<svg xmlns="http://www.w3.org/2000/svg" fill="none" viewBox="0 0 30 30" height="30" width="30">
<path fill="#00DC82" d="M16.5706 24.5H27.396C27.7398 24.5001 28.0776 24.4123 28.3754 24.2455C28.6731 24.0787 28.9204 23.8389 29.0922 23.55C29.2641 23.2611 29.3545 22.9334 29.3544 22.5999C29.3542 22.2664 29.2635 21.9388 29.0914 21.6501L21.8214 9.4358C21.6496 9.14701 21.4023 8.90717 21.1046 8.74042C20.8069 8.57368 20.4692 8.48589 20.1255 8.48589C19.7817 8.48589 19.4439 8.57368 19.1462 8.74042C18.8485 8.90717 18.6014 9.14701 18.4295 9.4358L16.5706 12.561L12.9361 6.44978C12.7642 6.161 12.5169 5.9212 12.2191 5.75448C11.9213 5.58777 11.5835 5.5 11.2397 5.5C10.8959 5.5 10.5581 5.58777 10.2603 5.75448C9.96253 5.9212 9.71523 6.161 9.54327 6.44978L0.49661 21.6501C0.324504 21.9388 0.233816 22.2664 0.233667 22.5999C0.233517 22.9334 0.323911 23.2611 0.495757 23.55C0.667603 23.8389 0.914843 24.0787 1.2126 24.2455C1.51037 24.4123 1.84816 24.5001 2.192 24.5H8.98725C11.6796 24.5 13.6651 23.3529 15.0314 21.1149L18.3483 15.543L20.1249 12.561L25.4569 21.5181H18.3483L16.5706 24.5ZM8.87646 21.515L4.13426 21.514L11.2428 9.57191L14.7898 15.543L12.4149 19.5339C11.5077 20.986 10.4769 21.515 8.87646 21.515Z"></path>
</svg>
