<svg xmlns="http://www.w3.org/2000/svg" fill="none" height="36" width="36"><g clip-path="url(#Logos__a)"><g clip-path="url(#Logos__b)"><mask height="36" width="34" y="0" x="1" maskUnits="userSpaceOnUse" style="mask-type:luminance" id="Logos__c"><path fill="#fff" d="M1.667.646h33.072v35H1.666v-35Z"></path></mask><g mask="url(#Logos__c)"><path fill="url(#Logos__d)" d="m34.602 6.458-1.19 18.675L22.042.646l12.56 5.812Zm-7.876 24.148-8.592 4.902-8.592-4.902 1.748-4.235h13.688l1.748 4.235ZM18.134 9.941l4.502 10.945h-9.004l4.502-10.945ZM2.844 25.133 1.667 6.458 14.227.646 2.843 25.133Z"></path><path fill="url(#Logos__e)" d="m34.602 6.458-1.19 18.675L22.042.646l12.56 5.812Zm-7.876 24.148-8.592 4.902-8.592-4.902 1.748-4.235h13.688l1.748 4.235ZM18.134 9.941l4.502 10.945h-9.004l4.502-10.945ZM2.844 25.133 1.667 6.458 14.227.646 2.843 25.133Z"></path></g></g></g><defs><linearGradient gradientUnits="userSpaceOnUse" y2="19.8844" x2="35.1581" y1="32.3462" x1="8.93479" id="Logos__d"><stop stop-color="#E40035"></stop><stop stop-color="#F60A48" offset="0.24"></stop><stop stop-color="#F20755" offset="0.352"></stop><stop stop-color="#DC087D" offset="0.494"></stop><stop stop-color="#9717E7" offset="0.745"></stop><stop stop-color="#6C00F5" offset="1"></stop></linearGradient><linearGradient gradientUnits="userSpaceOnUse" y2="24.4258" x2="24.912" y1="4.84956" x1="7.75072" id="Logos__e"><stop stop-color="#FF31D9"></stop><stop stop-opacity="0" stop-color="#FF5BE1" offset="1"></stop></linearGradient><clipPath id="Logos__a"><path d="M0 0h35v35H0z" transform="translate(.5 .646)" fill="#fff"></path></clipPath><clipPath id="Logos__b"><path d="M0 0h33.072v35H0z" transform="translate(1.667 .646)" fill="#fff"></path></clipPath></defs></svg>