<svg xmlns:xlink="http://www.w3.org/1999/xlink" xmlns="http://www.w3.org/2000/svg" width="146" height="30" fill="none" viewBox="0 0 146 30">
  <path fill="#000" d="M10.697 7.786c.403-1.437 0-2.98-1.056-4.035v.002a4.109 4.109 0 0 0-2.917-1.208H6.63A14.916 14.916 0 0 1 14.995 0h.057a14.95 14.95 0 0 1 10.69 4.533 3.3 3.3 0 0 1-4.78 4.548 8.375 8.375 0 0 0-5.929-2.487h-.032a8.33 8.33 0 0 0-4.304 1.192ZM20.92 20.955A3.3 3.3 0 0 1 23.243 20h.002v.004a3.3 3.3 0 0 1 2.323 5.642A14.927 14.927 0 0 1 15.009 30h-.057a14.908 14.908 0 0 1-8.371-2.587h.108a4.124 4.124 0 0 0 3.977-5.228 8.311 8.311 0 0 0 4.309 1.21h.032a8.377 8.377 0 0 0 5.914-2.44ZM3.766 20.368a4.088 4.088 0 0 1 2.917-1.208c.378 0 .754.05 1.118.152a8.374 8.374 0 0 1 .017-8.66 4.126 4.126 0 0 1-5.22-3.984v-.112a14.998 14.998 0 0 0-.04 16.816v-.087a4.088 4.088 0 0 1 1.208-2.917Z"/>
  <path fill="#000" d="M4.332 4.461c.797-.796 1.454-1.185 2.392-1.185a3.39 3.39 0 0 1 .002 6.78 3.39 3.39 0 0 1-3.393-3.388c.003-.788.241-1.45 1-2.207ZM3.285 23.295c.001.933.39 1.59 1.183 2.383.758.759 1.42 1 2.207 1.002a3.379 3.379 0 1 0-.021-6.76 3.38 3.38 0 0 0-3.37 3.375ZM3.285 23.295v.005-.01.005ZM41.526 18.124c-.557-.587-.762-.803-1.58-.185l-.001.004c-.587.442-1.386.735-2.1.714-4.554-.02-4.723-6.634-1.007-7.578 1.153-.294 2.372.063 3.337.735.493.348.744.097 1.108-.267.008-.01.017-.018.026-.027.148-.169.315-.336.484-.505l.023-.023c.72-.718 1.141-1.138.207-1.865-.46-.357-.986-.61-1.531-.82-.839-.357-1.637-.483-2.54-.504-1.784-.043-3.484.46-4.849 1.615-1.491 1.238-2.245 3.044-2.35 4.954-.252 4.262 2.792 7.473 7.094 7.494 1.91 0 3.253-.547 4.744-1.764.59-.485-.053-1.042-.52-1.447-.097-.085-.188-.163-.257-.232a15.781 15.781 0 0 1-.288-.299ZM142.086 20.814c0 .63.504 1.134 1.134 1.134h1.217a1.13 1.13 0 0 0 1.134-1.134l.063-14.653a1.13 1.13 0 0 0-1.134-1.134h-1.217a1.13 1.13 0 0 0-1.134 1.134l-.063 14.653ZM132.388 22.136c1.87 0 3.129-.65 4.451-1.888v.002l.063.566c.042.59.484 1.113 1.113 1.113h1.029c.632 0 1.134-.505 1.134-1.113l.043-11.252a1.13 1.13 0 0 0-1.135-1.134h-1.216a1.13 1.13 0 0 0-1.135 1.134l-.021 3.38c0 .082 0 .167.021.251v2.12c-.021 1.931-1.28 3.653-3.337 3.653-2.057 0-3.107-1.534-3.107-3.485l.021-5.961a1.13 1.13 0 0 0-1.134-1.134h-1.217a1.13 1.13 0 0 0-1.134 1.134l-.021 5.96c0 3.505 1.804 6.633 5.582 6.654ZM124.706 8.43h-2.351v.006l-.063-.462c.021-1.26.587-2.288 1.931-2.288h.88c.63 0 1.135-.526 1.135-1.134v-.714c0-.632-.484-1.155-1.114-1.155h-1.092c-.055 0-.111-.003-.167-.005-.112-.005-.224-.01-.335.005-.041 0-.077.005-.114.01-.037.005-.074.01-.117.01-2.855.252-4.45 2.455-4.45 5.247l-.042 12.805c0 .63.505 1.134 1.134 1.134h1.217a1.13 1.13 0 0 0 1.134-1.134l.042-9.258h2.351c.632 0 1.134-.526 1.134-1.134v-.778c0-.631-.483-1.155-1.113-1.155ZM116.498 8.388h-2.581V6.104c0-.63-.505-1.134-1.113-1.134h-1.196c-.629 0-1.134.505-1.134 1.113-.011 1.837-.016 3.668-.021 5.5-.005 1.83-.011 3.662-.021 5.499 0 2.729 1.238 4.535 4.03 4.723.188.02.357.02.545.02h.986c.632 0 1.135-.504 1.135-1.113v-.777c0-.63-.505-1.134-1.114-1.134h-.523c-1.092 0-1.616-.63-1.616-1.721l.021-5.668h2.581c.629 0 1.134-.504 1.134-1.113v-.777c0-.63-.505-1.134-1.113-1.134ZM79.156 8.24h-2.581l-.002.004V5.957c0-.63-.505-1.135-1.113-1.135h-1.196c-.63 0-1.134.505-1.134 1.113-.01 1.837-.016 3.669-.021 5.5-.006 1.832-.01 3.662-.021 5.499 0 3.422 1.763 4.723 4.807 4.744h.777c.63 0 1.135-.505 1.135-1.113v-.778c0-.63-.505-1.134-1.114-1.134h-.523c-1.092 0-1.616-.63-1.616-1.721v-5.667h2.58c.63 0 1.135-.505 1.135-1.114v-.777c0-.63-.505-1.134-1.113-1.134ZM65.743 7.946c-1.742 0-3.086.733-4.323 1.889v-.003l-.043-.566c-.042-.589-.483-1.113-1.113-1.113h-1.028c-.63 0-1.135.505-1.135 1.113v.484c-.01 1.794-.015 3.595-.02 5.395-.006 1.8-.011 3.6-.022 5.394 0 .63.505 1.135 1.113 1.135h1.196c.63 0 1.134-.505 1.134-1.114l.021-5.772c.021-1.93 1.28-3.631 3.337-3.631 2.058 0 3.108 1.533 3.108 3.485l-.022 5.918c0 .63.505 1.135 1.135 1.135h1.216a1.13 1.13 0 0 0 1.135-1.135l.02-5.96c.022-3.547-1.93-6.633-5.709-6.654ZM103.149 8.094c-1.743 0-3.086.733-4.324 1.888V9.98l-.042-.566c-.042-.59-.484-1.113-1.113-1.113H96.64c-.63 0-1.134.505-1.134 1.113l-.043 11.273c0 .63.505 1.134 1.114 1.134h1.195c.63 0 1.135-.504 1.135-1.113l.02-5.772c.022-1.931 1.281-3.631 3.338-3.631 2.057 0 3.107 1.533 3.107 3.485l-.021 5.918c0 .63.505 1.135 1.134 1.135h1.217a1.13 1.13 0 0 0 1.134-1.135l.021-5.96c.021-3.547-1.93-6.633-5.709-6.654Z"/>
  <path fill="#000" fill-rule="evenodd" d="M42.99 14.851c.022-4.072 2.917-7.032 7.011-7.01 4.072.02 7.032 3.001 7.01 7.052-.02 4.136-2.917 7.032-7.052 7.01-4.134-.02-6.99-2.937-6.969-7.052Zm10.538.042c0-2.034-1.406-3.882-3.527-3.882v-.002c-2.203 0-3.525 1.764-3.546 3.863 0 2.12 1.303 3.842 3.527 3.842s3.546-1.787 3.546-3.82ZM87.848 18.945c-1.764-.021-3.57-.799-3.863-2.687l9.298.042c1.184 0 1.177-.355 1.157-1.455l-.002-.097c-.063-4.326-2.52-6.865-6.844-6.886-4.241-.021-7.18 2.792-7.2 7.031 0 4.493 2.938 7.2 7.388 7.222 1.659 0 3.464-.462 4.85-1.386l.154-.102c.557-.37.85-.564.33-1.22-.167-.23-.357-.42-.545-.608a7.992 7.992 0 0 1-.402-.397l-.206-.212c-.379-.378-.757-.23-1.177 0a1.728 1.728 0 0 1-.25.129c-.042.019-.085.038-.128.06a6.308 6.308 0 0 1-2.56.566Zm3.19-5.583-6.969-.021c.524-1.637 1.952-2.414 3.61-2.414s3.107.692 3.358 2.435Z" clip-rule="evenodd"/>
</svg>