<svg xml:space="preserve" style="enable-background:new 0 0 28 28;" viewBox="0 0 28 28" y="0px" x="0px" xmlns:xlink="http://www.w3.org/1999/xlink" xmlns="http://www.w3.org/2000/svg" id="Ebene_1" version="1.1">
<style type="text/css">
	.st0{fill:#663399;}
	.st1{fill:#FFFFFF;}
</style>
<g id="monogram">
	<circle r="14" cy="14" cx="14" class="st0"></circle>
	<g>
		<path d="M6.2,21.8C4.1,19.7,3,16.9,3,14.2L13.9,25C11.1,24.9,8.3,23.9,6.2,21.8z" class="st1"></path>
		<path d="M16.4,24.7L3.3,11.6C4.4,6.7,8.8,3,14,3c3.7,0,6.9,1.8,8.9,4.5l-1.5,1.3C19.7,6.5,17,5,14,5
			c-3.9,0-7.2,2.5-8.5,6L17,22.5c2.9-1,5.1-3.5,5.8-6.5H18v-2h7C25,19.2,21.3,23.6,16.4,24.7z" class="st1"></path>
	</g>
</g>
</svg>
