<svg xmlns="http://www.w3.org/2000/svg" fill="none" viewBox="0 0 75 83" height="83" width="75">
<path fill="#FF4088" d="M71.3891 53.0184V26.9018C71.3891 23.5056 69.5904 20.3636 66.6625 18.6431C60.3782 14.951 49.2761 8.42794 42.4769 4.43272C38.8858 2.32381 34.4253 2.37123 30.8813 4.55662C24.8635 8.26729 15.4746 14.0565 9.41406 17.7943C5.75893 20.0481 3.53296 24.0343 3.53296 28.3282V55.0681C3.53296 59.3274 5.79312 63.2662 9.46961 65.4155L31.8405 78.4919C34.8141 80.2308 38.4863 80.2686 41.4963 78.5923C48.029 74.953 59.5989 68.5101 66.264 64.7975C69.4257 63.0351 71.3846 59.7004 71.3846 56.0816V53.0182L71.3891 53.0184Z" clip-rule="evenodd" fill-rule="evenodd"></path>
<path fill="white" d="M20.5056 63.2844V19.017H29.7671V35.1414H45.1302V19.017H54.4186V63.2844H45.1302V43.9287H29.7671V63.2844H20.5056Z"></path>
<path fill="#C9177E" d="M36.8119 0H36.8711L36.9239 0.000640931H37.2259L37.2787 0.00277723H37.2851L37.3379 0.00491354H37.3436L37.397 0.00704963H37.4013L37.4547 0.00918594H37.4611L37.5124 0.0113222H37.5188L37.5701 0.0134585H37.5743L37.6277 0.0155946H37.6342L37.6876 0.0198672H37.694L37.7452 0.0241396H37.7495L37.8008 0.0284123H37.8072L37.8606 0.0326849H37.8649L37.9161 0.0369573H37.9225L37.976 0.0412299H37.9824L38.0358 0.0455023H38.0422L38.0956 0.0497749H38.102L38.1533 0.0540473H38.1597L38.2109 0.0583199H38.2174L38.2708 0.0625923H38.2772L38.3306 0.069001H38.337L38.3904 0.0754099H38.3947L38.4459 0.0818186H38.4523L38.5036 0.0882273H38.51L38.5634 0.0946362H38.5698L38.6232 0.101045H38.6275L38.6788 0.107454H38.6852L38.7386 0.113862H38.745L38.7963 0.122407L38.8027 0.124544L38.8561 0.133089H38.8625L38.9138 0.141634H38.918L38.9714 0.150179H38.9779L39.0291 0.158724H39.0355L39.0868 0.167269H39.0911L39.1445 0.175814H39.1509L39.2022 0.184359L39.2086 0.186495L39.2598 0.19504L39.2663 0.197176L39.3175 0.207858H39.3239L39.3752 0.216403H39.3816L39.4329 0.227084H39.4393L39.4927 0.237765H39.497L39.5482 0.248446H39.5546L39.6059 0.259128H39.6102L39.6636 0.269809L39.67 0.271945L39.7234 0.282626H39.7277L39.779 0.295444L39.7854 0.29758L39.8366 0.310398H39.843L39.8964 0.323215L39.9007 0.325352L39.952 0.336033L39.9584 0.338169L40.0097 0.34885L40.0139 0.350987L40.0652 0.363804H40.0716L40.1229 0.376622L40.1293 0.378758L40.1806 0.391575L40.1848 0.393712L40.2382 0.406529L40.2425 0.408665L40.2938 0.421483L40.3002 0.423619L40.3515 0.436437H40.3557L40.407 0.45139H40.4134L40.4668 0.464208L40.4732 0.466344L40.5245 0.479162H40.5309L40.5822 0.494116L40.5886 0.496252L40.6399 0.511206L40.6463 0.513342L40.6975 0.528296L40.704 0.530432L40.7552 0.545386L40.7595 0.547522L40.8108 0.562476L40.8172 0.564612L40.8684 0.579566L40.8749 0.581702L40.9261 0.596656L40.9325 0.598792L40.9838 0.615882L40.9881 0.618018L41.0393 0.635108H41.0458L41.097 0.652198H41.1034L41.1547 0.669288L41.1611 0.671425L41.2124 0.688515L41.2188 0.690651L41.2701 0.707741L41.2743 0.709877L41.3256 0.726967L41.332 0.729104L41.3833 0.746194L41.3876 0.74833L41.4388 0.76542L41.4431 0.767556L41.4922 0.784646L41.4986 0.786782L41.5478 0.803872L41.5542 0.806008L41.6033 0.825235L41.6097 0.827371L41.661 0.846597L41.6674 0.848734L41.7165 0.86796L41.7208 0.870096L41.7721 0.887186L41.7764 0.889323L41.8276 0.908549L41.834 0.910685L41.8853 0.929911L41.8917 0.932047L41.9408 0.951274L41.9473 0.95341L41.9964 0.974773L42.0007 0.976909L42.0519 0.996135L42.0583 0.998271L42.1075 1.01963L42.1139 1.02177L42.1651 1.04313L42.1716 1.04527L42.2228 1.06663L42.2271 1.06877L42.2784 1.09013L42.2826 1.09227L42.3318 1.11363L42.336 1.11577L42.3852 1.13713L42.3895 1.13926L42.4407 1.16063L42.445 1.16276L42.4941 1.18413L42.5005 1.18626L42.5497 1.20762L42.5561 1.20976L42.6052 1.23112L42.6095 1.23326L42.6586 1.25676L42.665 1.25889L42.7142 1.28239L42.7206 1.28453L42.7697 1.30803L42.774 1.31016L42.8231 1.33366L42.8274 1.3358L42.8765 1.3593L42.8829 1.36143L42.9321 1.38493L42.9385 1.38707L42.9876 1.41057L42.994 1.4127L43.0431 1.4362L43.0474 1.43834L43.0966 1.46397L43.1008 1.46825L43.15 1.49175L43.1542 1.49388L43.2012 1.51952L43.2076 1.52165L43.2568 1.54515L43.261 1.54729L43.3102 1.57292L43.3166 1.57506L43.3636 1.60069L43.37 1.60497L43.4191 1.6306L43.4255 1.63274L43.4747 1.65837L43.4789 1.66051L43.5259 1.68614L43.5324 1.69042L43.5815 1.71605L43.5858 1.72032L43.6328 1.7481L43.637 1.75237L43.684 1.78014L43.6904 1.78228L43.7374 1.81005L43.7417 1.81218L43.7887 1.83996L43.793 1.84423L43.84 1.872L43.8464 1.87627L43.8912 1.90404H43.8955L68.0993 16.1251L68.1399 16.1486L68.1441 16.1529L68.1847 16.1764L68.1911 16.1785L68.2296 16.2041L68.2339 16.2084L68.2723 16.2319L68.2766 16.2362L68.315 16.2597L68.3193 16.2618L68.3578 16.2853L68.362 16.2874L68.4005 16.3109L68.4048 16.3131L68.4432 16.3366L68.4496 16.3387L68.4881 16.3643L68.4923 16.3665L68.5308 16.3921L68.5372 16.3942L68.5757 16.4177L68.5799 16.4199L68.6184 16.4455L68.6226 16.4498L68.6611 16.4754L68.6654 16.4797L68.7017 16.5032L68.7081 16.5053L68.7466 16.531L68.7508 16.5331L68.7893 16.5587L68.7936 16.5609L68.8299 16.5865L68.8341 16.5886L68.8705 16.6143L68.8747 16.6164L68.911 16.6421L68.9153 16.6463L68.9516 16.672L68.9559 16.6741L68.9922 16.7019L68.9986 16.7061L69.0349 16.7318L69.0392 16.7339L69.0755 16.7595L69.0798 16.7617L69.1161 16.7873L69.1204 16.7916L69.1567 16.8172L69.161 16.8194L69.1973 16.845L69.2016 16.8493L69.2379 16.8749L69.2422 16.8792L69.2785 16.9069L69.2849 16.9112L69.3191 16.939L69.3255 16.9433L69.3618 16.971L69.3682 16.9732L69.4045 17.0009L69.4088 17.0052L69.4451 17.033L69.4494 17.0373L69.4836 17.065L69.49 17.0693L69.5263 17.0992L69.5327 17.1056L69.6011 17.1612L69.6096 17.1676L69.678 17.2253L69.6865 17.2317L69.757 17.2893L69.7655 17.2957L69.836 17.3534L69.8446 17.3598L69.9129 17.4175L69.9215 17.4261L69.9899 17.4837L69.9984 17.4901L70.0646 17.55L70.0732 17.5564L70.1394 17.6162L70.1479 17.6226L70.2142 17.6845L70.2227 17.691L70.2868 17.7508L70.2953 17.7572L70.3616 17.8191L70.3701 17.8277L70.4342 17.8896L70.4427 17.8982L70.5068 17.9601L70.5154 17.9687L70.5773 18.0306L70.5859 18.0392L70.6478 18.1033L70.6564 18.1118L70.7183 18.1759L70.7247 18.1844L70.7867 18.2485L70.7952 18.2571L70.855 18.3212L70.8636 18.3297L70.9234 18.3938L70.9319 18.4023L70.9918 18.4664L71.0003 18.475L71.0601 18.5412L71.0687 18.5497L71.1263 18.6181L71.1327 18.6266L71.1926 18.6929L71.2011 18.7014L71.2588 18.7698L71.2673 18.7783L71.325 18.8467L71.3314 18.8552L71.3891 18.9236L71.3976 18.9321L71.4532 19.0005L71.4596 19.009L71.5151 19.0774L71.5237 19.0859L71.5792 19.1564L71.5856 19.165L71.639 19.2355L71.6455 19.244L71.6989 19.3145L71.7053 19.3231L71.7587 19.3935L71.7651 19.4042L71.8185 19.4769L71.8249 19.4854L71.8783 19.5559L71.8847 19.5666L71.936 19.6392L71.9424 19.6478L71.9937 19.7204L72.0001 19.7289L72.0513 19.8016L72.0577 19.8123L72.1069 19.8849L72.1133 19.8956L72.1624 19.9703L72.1688 19.981L72.2158 20.0537L72.2222 20.0622L72.2692 20.1348L72.2756 20.1434L72.3248 20.2181L72.3312 20.2267L72.3782 20.3015L72.3846 20.3121L72.4295 20.3869L72.4359 20.3976L72.4829 20.4724L72.4893 20.483L72.5341 20.5578L72.5405 20.5685L72.5854 20.6454L72.5918 20.6539L72.6345 20.7308L72.6409 20.7415L72.6837 20.8184L72.6901 20.8291L72.7328 20.906L72.7392 20.9167L72.7819 20.9936L72.7862 21.0043L72.8289 21.0833L72.8332 21.094L72.8738 21.173L72.8781 21.1837L72.9187 21.2628L72.9251 21.2713L72.9635 21.3525L72.9678 21.3632L73.0084 21.4422L73.0127 21.4529L73.0511 21.5319L73.0575 21.5426L73.0938 21.6238L73.0981 21.6345L73.1344 21.7157L73.1387 21.7263L73.175 21.8075L73.1793 21.8182L73.2156 21.8994L73.2199 21.9101L73.2541 21.9912L73.2583 22.0019L73.2925 22.0831L73.2968 22.0938L73.3288 22.1771L73.3331 22.1878L73.3651 22.2689L73.3694 22.2796L73.4015 22.3629L73.4057 22.3736L73.4378 22.4569L73.442 22.4676L73.4741 22.5509L73.4784 22.5616L73.5083 22.6449L73.5125 22.6556L73.5403 22.7389L73.5446 22.7496L73.5724 22.8329L73.5766 22.8436L73.6044 22.9269L73.6087 22.9376L73.6364 23.023L73.6386 23.0337L73.6642 23.117L73.6685 23.1277L73.6941 23.2132L73.6962 23.2239L73.7219 23.3093L73.7262 23.32L73.7518 23.4054L73.7561 23.4161L73.7796 23.5016L73.7838 23.5122L73.8073 23.5977L73.8095 23.6084L73.8308 23.6938L73.8351 23.7066L73.8586 23.7942L73.8607 23.8049L73.8821 23.8925L73.8864 23.9032L73.9056 23.9908L73.9099 24.0014L73.9312 24.089L73.9334 24.1019L73.9526 24.1894L73.9547 24.2001L73.974 24.2877L73.9761 24.2984L73.9932 24.386L73.9953 24.3967L74.0124 24.4842L74.0146 24.4949L74.0316 24.5825L74.0338 24.5932L74.0487 24.6829L74.0509 24.6936L74.0658 24.7812L74.068 24.794L74.0829 24.8837L74.085 24.8965L74.0979 24.9863L74.1 24.9991L74.1128 25.0867V25.0952L74.1192 25.1422V25.1465L74.1235 25.1913V25.1977L74.1299 25.2426V25.2469L74.1363 25.2917V25.2982L74.1427 25.343L74.1449 25.3494L74.1513 25.3943V25.4007L74.1555 25.4456L74.1577 25.4498L74.162 25.4947L74.1641 25.5011L74.1684 25.546V25.5524L74.1726 25.5972L74.1748 25.6036L74.179 25.6485L74.1812 25.6549L74.1855 25.6998V25.7062L74.1897 25.751V25.7574L74.194 25.8023V25.8087L74.1983 25.8536V25.86L74.2025 25.9048V25.9113L74.2047 25.9561V25.9625L74.2068 26.0095V26.0159L74.2111 26.0629V26.0672L74.2132 26.1121V26.1185L74.2154 26.1633V26.1697L74.2175 26.2146V26.221L74.2196 26.2659V26.2723L74.2218 26.3193V26.3257L74.2239 26.3706V26.377L74.226 26.4218V26.4261L74.2282 26.471V56.2931L74.226 56.3422V56.4041L74.2239 56.4533V56.4597L74.2218 56.5067V56.511L74.2196 56.5601V56.5665L74.2175 56.6135V56.6178L74.2154 56.6648V56.6712L74.2132 56.7182L74.2111 56.7246L74.209 56.7716V56.778L74.2068 56.825V56.8293L74.2047 56.8784V56.8848L74.2004 56.9339V56.9382L74.1961 56.9873V56.9937L74.1919 57.0407V57.0472L74.1897 57.0941V57.1006L74.1855 57.1476V57.154L74.1812 57.201V57.2074L74.1769 57.2544V57.2608L74.1726 57.3078L74.1705 57.3121L74.1662 57.3612L74.1641 57.3676L74.1598 57.4146V57.421L74.1555 57.468L74.1534 57.4744L74.147 57.5214V57.5278L74.1406 57.5748V57.5791L74.1342 57.6261V57.6325L74.1278 57.6795L74.1256 57.6859L74.1192 57.735L74.1171 57.7414L74.1107 57.7884L74.1086 57.7948L74.1021 57.8418V57.8482L74.0957 57.8952V57.9017L74.0893 57.9487L74.0872 57.9551L74.0808 58.0021L74.0786 58.0085L74.0701 58.0555V58.0597L74.0637 58.1067V58.111L74.0551 58.158L74.053 58.1644L74.0466 58.2114L74.0445 58.2178L74.0381 58.2648V58.2691L74.0295 58.3161V58.3204L74.021 58.3674V58.3716L74.0124 58.4186V58.425L74.0039 58.4699L74.0017 58.4763L73.9932 58.5212L73.9911 58.5276L73.9825 58.5746L73.9804 58.581L73.9697 58.628V58.6323L73.959 58.6793V58.6835L73.9505 58.7284V58.7348L73.9398 58.7818V58.7861L73.9312 58.8331L73.9291 58.8373L73.9184 58.8822V58.8865L73.9077 58.9313V58.9377L73.8971 58.9826L73.8949 58.989L73.8842 59.0339L73.8821 59.0403L73.8714 59.0851L73.8693 59.0894L73.8586 59.1343L73.8565 59.1385L73.8458 59.1834L73.8437 59.1898L73.8308 59.2347L73.8287 59.2411L73.818 59.2859L73.8159 59.2924L73.8031 59.3372V59.3436L73.7902 59.3906L73.7881 59.397L73.7753 59.4419V59.4483L73.7625 59.4932L73.7603 59.4996L73.7475 59.5444L73.7454 59.5508L73.7326 59.5978L73.7304 59.6021L73.7176 59.647L73.7155 59.6512L73.7027 59.6961L73.7005 59.7025L73.6856 59.7474L73.6834 59.7538L73.6706 59.7986L73.6685 59.8029L73.6557 59.8478L73.6535 59.8542L73.6407 59.8991L73.6386 59.9033L73.6236 59.9482L73.6215 59.9546L73.6065 59.9995L73.6044 60.0059L73.5894 60.0507L73.5873 60.0571L73.5724 60.102L73.5702 60.1084L73.5553 60.1533L73.5531 60.1575L73.5382 60.2024L73.536 60.2088L73.5211 60.2537L73.5189 60.2601L73.504 60.3049L73.5019 60.3092L73.4869 60.3541L73.4848 60.3605L73.4698 60.4053L73.4677 60.4118L73.4506 60.4545L73.4485 60.4609L73.4335 60.5036L73.4314 60.51L73.4164 60.5527L73.4143 60.5592L73.3993 60.604L73.3972 60.6104L73.3801 60.6553L73.378 60.6617L73.3609 60.7044L73.3587 60.7108L73.3416 60.7536L73.3395 60.76L73.3224 60.8027L73.3203 60.8091L73.3032 60.8518L73.301 60.8582L73.284 60.901L73.2818 60.9074L73.2647 60.9501L73.2626 60.9544L73.2434 60.9971L73.2412 61.0035L73.222 61.0484L73.2199 61.0548L73.2028 61.0975L73.2006 61.1039L73.1814 61.1466L73.1793 61.153L73.1601 61.1958L73.1579 61.2022L73.1387 61.2449L73.1366 61.2492L73.1173 61.2919L73.1152 61.2983L73.096 61.341L73.0938 61.3453L73.0746 61.388L73.0725 61.3923L73.0532 61.435L73.0511 61.4393L73.0319 61.482L73.0297 61.4863L73.0084 61.529L73.0062 61.5333L72.9849 61.5739L72.9827 61.5803L72.9635 61.623L72.9614 61.6273L72.94 61.6679L72.9379 61.6743L72.9187 61.717L72.9165 61.7213L72.8952 61.764L72.893 61.7704L72.8717 61.8131L72.8695 61.8174L72.8482 61.858L72.846 61.8623L72.8247 61.905L72.8225 61.9114L72.8012 61.9541L72.799 61.9605L72.7777 62.0033L72.7734 62.0097L72.752 62.0503L72.7499 62.0545L72.7285 62.0973L72.7264 62.1037L72.705 62.1464L72.7029 62.1528L72.6794 62.1934L72.6751 62.1977L72.6516 62.2383L72.6495 62.2425L72.626 62.2831L72.6239 62.2874L72.6004 62.328L72.5982 62.3322L72.5747 62.3728L72.5726 62.3771L72.5491 62.4177L72.547 62.4241L72.5234 62.4647L72.5213 62.469L72.4978 62.5096L72.4957 62.516L72.4722 62.5566L72.4679 62.5608L72.4444 62.6014L72.4401 62.6057L72.4166 62.6463L72.4145 62.6505L72.391 62.6911L72.3889 62.6975L72.3632 62.7381L72.3611 62.7424L72.3376 62.7809L72.3355 62.7873L72.312 62.8257L72.3077 62.83L72.2821 62.8706L72.2799 62.877L72.2543 62.9154L72.25 62.9197L72.2244 62.9582L72.2222 62.9624L72.1966 63.003L72.1923 63.0094L72.1667 63.0479L72.1624 63.0522L72.1368 63.0906L72.1346 63.0949L72.109 63.1355L72.1069 63.1398L72.0812 63.1782L72.077 63.1825L72.0492 63.2209L72.0471 63.2252L72.0214 63.2637L72.0193 63.2679L71.9915 63.3064L71.9894 63.3106L71.9638 63.3491L71.9595 63.3534L71.9338 63.3918L71.9296 63.3961L71.9018 63.4345L71.8975 63.4388L71.8719 63.4773L71.8698 63.4815L71.842 63.52L71.8377 63.5264L71.8121 63.5649L71.8078 63.5691L71.78 63.6076L71.7758 63.6119L71.748 63.6503L71.7437 63.6546L71.7159 63.693L71.7117 63.6973L71.6839 63.7358L71.6818 63.74L71.654 63.7764L71.6497 63.7806L71.6219 63.8169L71.6198 63.8212L71.5899 63.8575L71.5856 63.8618L71.5579 63.8981L71.5557 63.9024L71.528 63.9408L71.5237 63.9451L71.4938 63.9836L71.4895 63.9878L71.4596 64.0242L71.4553 64.0284L71.4254 64.0647L71.4233 64.069L71.3934 64.1053L71.3891 64.1096L71.3592 64.1459L71.3549 64.1502L71.325 64.1865L71.3207 64.1908L71.2908 64.2271L71.2866 64.2314L71.2567 64.2677L71.2545 64.272L71.2246 64.3083L71.2203 64.3126L71.1883 64.3489L71.184 64.3531L71.1541 64.3895L71.1498 64.3937L71.1199 64.43L71.1157 64.4343L71.0857 64.4706L71.0815 64.4749L71.0516 64.5112L71.0473 64.5155L71.0174 64.5497L71.0131 64.5539L70.9811 64.5903L70.9768 64.5945L70.9469 64.6309L70.9426 64.6351L70.9106 64.6714L70.9063 64.6757L70.8764 64.712L70.8721 64.7163L70.8401 64.7505L70.8358 64.7548L70.8038 64.7889L70.7995 64.7932L70.7674 64.8274L70.7632 64.8317L70.7311 64.8658L70.7269 64.8701L70.6948 64.9043L70.6905 64.9086L70.6585 64.9427L70.6542 64.947L70.6222 64.9812L70.6179 64.9855L70.5859 65.0197L70.5816 65.0239L70.5474 65.0581L70.5431 65.0624L70.5111 65.0966L70.5068 65.1008L70.4748 65.1329L70.4705 65.1371L70.4363 65.1713L70.4299 65.1756L70.3957 65.2098L70.3915 65.2141L70.3573 65.2461L70.353 65.2504L70.3188 65.2845L70.3146 65.2888L70.2804 65.3209L70.2761 65.3251L70.2419 65.3572L70.2377 65.3615L70.2035 65.3935L70.1992 65.3978L70.165 65.4298L70.1608 65.4341L70.1266 65.4661L70.1223 65.4704L70.0881 65.5024L70.0839 65.5067L70.0475 65.5388L70.0433 65.5409L70.0091 65.5729L70.0048 65.5772L69.9685 65.6093L69.9642 65.6135L69.9279 65.6456L69.9236 65.6477L69.8873 65.6798L69.883 65.684L69.8467 65.7139L69.8403 65.7182L69.804 65.7481L69.7997 65.7524L69.7634 65.7844L69.7591 65.7887L69.7228 65.8207L69.7185 65.825L69.6822 65.8571L69.678 65.8613L69.6416 65.8912L69.6374 65.8955L69.5989 65.9254L69.5946 65.9276L69.5583 65.9575L69.5541 65.9617L69.5177 65.9916L69.5113 65.9959L69.475 66.0258L69.4707 66.0301L69.4344 66.06L69.4302 66.0643L69.3938 66.0942L69.3896 66.0985L69.3511 66.1284L69.3468 66.1326L69.3105 66.1604L69.3063 66.1647L69.2678 66.1946L69.2635 66.1989L69.2251 66.2288L69.2208 66.233L69.1824 66.263L69.1781 66.2672L69.1396 66.2971L69.1354 66.2993L69.0969 66.327L69.0926 66.3292L69.0542 66.3569L69.0499 66.3591L69.0114 66.3869L69.005 66.389L68.9666 66.4168L68.9623 66.421L68.9239 66.4488L68.9196 66.4531L68.8811 66.4808L68.8769 66.4851L68.8384 66.5129L68.832 66.5172L68.7936 66.5449L68.7893 66.5471L68.7487 66.5748L68.7423 66.577L68.7017 66.6048L68.6974 66.609L68.6568 66.6368L68.6526 66.6411L68.612 66.6667L68.6077 66.671L68.5671 66.6987L68.5628 66.703L68.5244 66.7308L68.518 66.7351L68.4774 66.7607L68.4731 66.7628L68.4325 66.7885L68.4261 66.7906L68.3855 66.8162L68.3813 66.8205L68.3407 66.8461L68.3364 66.8504L68.2958 66.8761L68.2915 66.8782L68.2509 66.9038L68.2445 66.906L68.2039 66.9316L68.1997 66.9359L68.1591 66.9615L68.1527 66.9636L68.1121 66.9893L68.1057 66.9935L68.0651 67.0192L68.0587 67.0235L68.016 67.0491L68.0117 67.0534L67.9711 67.0769L67.9647 67.079L67.9241 67.1025L67.9198 67.1068L67.8771 67.1324L67.8707 67.1367L67.828 67.1602L67.8237 67.1645L67.7831 67.1879L67.7767 67.1901L67.734 67.2136L67.7276 67.2157L67.6848 67.2392L67.6806 67.2414L67.64 67.2649L67.6378 67.267L42.8722 81.0672H42.8701L42.8317 81.0907L42.8253 81.0928L42.7847 81.1163L42.7783 81.1206L42.7377 81.142L42.7313 81.1441L42.6907 81.1655L42.6864 81.1676L42.6458 81.189L42.6394 81.1911L42.5988 81.2124L42.5924 81.2146L42.5518 81.236L42.5454 81.2381L42.5048 81.2594L42.5005 81.2616L42.46 81.2829L42.4557 81.2851L42.4151 81.3043L42.4108 81.3064L42.3681 81.3278L42.3638 81.3321L42.3232 81.3534L42.319 81.3556L42.2784 81.3748L42.2741 81.3769L42.2335 81.3962L42.2292 81.3983L42.1886 81.4197L42.1844 81.4218L42.1416 81.441L42.1374 81.4432L42.0968 81.4624L42.0925 81.4645L42.0498 81.4838L42.0455 81.4859L42.0049 81.5051L42.0007 81.5073L41.9601 81.5265L41.9537 81.5308L41.9109 81.55L41.9067 81.5521L41.8639 81.5692L41.8597 81.5713L41.8169 81.5906L41.8127 81.5948L41.7699 81.6141L41.7635 81.6162L41.7229 81.6333L41.7187 81.6354L41.6759 81.6547L41.6717 81.6568L41.6289 81.6739L41.6247 81.676L41.582 81.6931L41.5777 81.6952L41.535 81.7123L41.5285 81.7145L41.4858 81.7316L41.4794 81.7337L41.4367 81.7508L41.4303 81.7529L41.3897 81.77L41.3854 81.7722L41.3427 81.7871L41.3384 81.7892L41.2957 81.8063L41.2893 81.8085L41.2466 81.8256L41.2402 81.8277L41.1974 81.8448L41.191 81.8469L41.1483 81.8619L41.1419 81.864L41.0992 81.8811L41.0928 81.8832L41.05 81.8982L41.0458 81.9003L41.003 81.9153L40.9966 81.9174L40.9539 81.9324L40.9475 81.9345L40.9048 81.9495L40.8984 81.9516L40.8556 81.9665L40.8514 81.9687L40.8086 81.9836L40.7659 81.9986L40.7595 82.0007L40.7146 82.0135L40.7082 82.0157L40.6655 82.0285L40.6612 82.0306L40.6185 82.0456L40.6142 82.0477L40.5694 82.0605L40.563 82.0627L40.5202 82.0755L40.5138 82.0776L40.4711 82.0905L40.4647 82.0926L40.4198 82.1075L40.4113 82.1097L40.3258 82.1353L40.3152 82.1396L40.2276 82.1652L40.2169 82.1674L40.1293 82.193L40.1186 82.1951L40.031 82.2186L40.0204 82.2229L39.9328 82.2464L39.9221 82.2485L39.8345 82.272L39.8217 82.2742L39.7341 82.2955L39.7234 82.2977L39.6358 82.319L39.623 82.3212L39.5354 82.3425L39.5247 82.3447L39.4372 82.3639L39.4265 82.366L39.3368 82.3853L39.3239 82.3874L39.2342 82.4066L39.2235 82.4088L39.1338 82.4258L39.1231 82.428L39.0355 82.4429L39.0249 82.4451L38.9373 82.4622L38.9266 82.4643L38.8369 82.4793L38.8262 82.4814L38.7365 82.4963L38.7258 82.4985L38.6361 82.5113L38.6254 82.5134L38.5357 82.5263L38.525 82.5284L38.4353 82.5412L38.4246 82.5433L38.3348 82.5562L38.322 82.5583L38.2323 82.569L38.2216 82.5711L38.1319 82.5818L38.1212 82.5839L38.0315 82.5946L37.9418 82.6032H37.9311L37.8414 82.6096L37.8307 82.6117L37.741 82.6181H37.7303L37.6406 82.6245H37.6299L37.5402 82.6309L37.5273 82.6331L37.4376 82.6395H37.4269L37.3372 82.6437H37.3265L37.2368 82.648H37.224L37.1343 82.6502H37.1236L37.0339 82.6523H37.0232L36.9335 82.6544H36.6173L36.5276 82.6523L36.4379 82.6502H36.425L36.3353 82.648H36.3334L36.2437 82.6437L36.233 82.6416L36.1433 82.6373H36.1326L36.0429 82.6331L36.0322 82.6309L35.9425 82.6267H35.9318L35.8421 82.6202L35.8314 82.6181L35.7416 82.6096L35.7288 82.6074L35.6391 82.5989L35.6263 82.5967L35.5366 82.5882L35.5259 82.5861L35.4362 82.5775H35.4255L35.3358 82.569L35.3251 82.5668L35.2354 82.5562H35.2225L35.1328 82.5455L35.12 82.5433L35.0303 82.5305L35.0196 82.5284L34.9299 82.5156L34.9192 82.5134L34.8295 82.5006L34.8188 82.4985L34.7291 82.4857L34.7184 82.4835L34.6308 82.4686H34.6244L34.5347 82.4515L34.5231 82.4493L34.4355 82.4323L34.4249 82.4301L34.3373 82.413L34.3266 82.4109L34.239 82.3938L34.2262 82.3917L34.1373 82.3746L34.1266 82.3724L34.0391 82.3532L34.0262 82.3489L33.9386 82.3297L33.928 82.3276L33.8404 82.3062L33.8284 82.3019L33.7408 82.2806L33.7302 82.2763L33.6426 82.2528L33.6319 82.2507L33.5443 82.2272L33.5336 82.2229L33.446 82.1994L33.4354 82.1951L33.3478 82.1716L33.3371 82.1674L33.2495 82.1417L33.2367 82.1375L33.1491 82.1118L33.1384 82.1075L33.0508 82.0819L33.0401 82.0776L32.9526 82.052L32.9419 82.0499L32.8569 82.0221L32.8483 82.02L32.8034 82.005H32.7977L32.755 81.9922L32.7485 81.99L32.7058 81.9751L32.6994 81.973L32.6567 81.958L32.6503 81.9559L32.6076 81.9409L32.6011 81.9388L32.5584 81.9238L32.552 81.9217L32.5093 81.9067L32.505 81.9046L32.4623 81.8896L32.458 81.8875L32.4153 81.8726L32.411 81.8704L32.3683 81.8533L32.3619 81.8512L32.3192 81.8341L32.3127 81.832L32.27 81.8149L32.2658 81.8127L32.223 81.7956L32.2166 81.7935L32.1739 81.7764L32.1696 81.7743L32.1269 81.7572L32.1205 81.7551L32.0778 81.738L32.0735 81.7358L32.0308 81.7187L32.0265 81.7166L31.9838 81.6995L31.9774 81.6974L31.9346 81.6803L31.9282 81.6782L31.8855 81.6611L31.8791 81.6589L31.8364 81.6418L31.83 81.6397L31.7872 81.6226L31.783 81.6205L31.7402 81.6012L31.7338 81.5991L31.6932 81.5799L31.689 81.5778L31.6462 81.5585L31.642 81.5564L31.5992 81.5372L31.595 81.535L31.5522 81.5179L31.5458 81.5158L31.5052 81.4966L31.4988 81.4944L31.4561 81.4752L31.4497 81.4731L31.4091 81.4538L31.4048 81.4496L31.3643 81.4304L31.36 81.4282L31.3194 81.409L31.3151 81.4068L31.2724 81.3876L31.2681 81.3834L31.2254 81.362L31.2211 81.3577L31.1805 81.3385L31.1741 81.3364L31.1314 81.3171L31.1271 81.3129L31.0865 81.2915L31.0801 81.2894L31.0374 81.268L31.0331 81.2659L30.9925 81.2445L30.9861 81.2424L30.9455 81.221L30.9413 81.2189L30.9007 81.1975L30.8943 81.1932L30.8537 81.1719L30.8494 81.1697L30.8088 81.1484L30.8046 81.1462L30.764 81.1249L30.7576 81.1206L30.717 81.0992L30.7127 81.0971L30.6721 81.0736L30.6657 81.0693L30.6251 81.048L30.6187 81.0458L30.5781 81.0245L30.5717 81.0223L30.5311 81.001L30.5247 80.9988L30.4841 80.9753L30.4777 80.9732L30.4393 80.9497L30.4328 80.9476L30.3944 80.9241L30.3923 80.9219L8.00432 67.8545L8.00219 67.8523L7.95519 67.8246L7.95092 67.8224L7.90392 67.7946L7.89751 67.7925L7.84838 67.7647L7.84197 67.7626L7.79497 67.7327L7.7907 67.7306L7.7437 67.7006L7.73943 67.6964L7.69243 67.6665L7.68816 67.6622L7.64116 67.6323L7.63475 67.6302L7.58775 67.6024L7.58134 67.5981L7.53435 67.5682L7.53007 67.5639L7.48308 67.534H7.49397L7.44697 67.5041L7.44056 67.4998L7.39357 67.4699L7.38929 67.4657L7.3423 67.4358L7.33632 67.4315L7.28932 67.3994L7.28291 67.3952L7.23591 67.3631L7.23164 67.3589L7.18464 67.3289L7.18037 67.3247L7.13337 67.2926L7.1291 67.2884L7.0821 67.2563L7.07783 67.252L7.03297 67.22L7.02656 67.2157L6.98063 67.1837L6.97636 67.1794L6.9315 67.1474L6.92615 67.1431L6.88129 67.111L6.87553 67.1068L6.83066 67.0747L6.82639 67.0726L6.78153 67.0405L6.77726 67.0363L6.73304 67.0042L6.72876 67L6.68476 66.9679L6.67835 66.9658L6.63349 66.9337L6.62922 66.9295L6.58435 66.8953L6.58008 66.891L6.53522 66.859L6.52967 66.8547L6.4848 66.8205L6.47925 66.8162L6.43652 66.7821L6.43225 66.7778L6.38953 66.7436L6.38525 66.7415L6.34253 66.7073L6.33826 66.703L6.29553 66.6688L6.29126 66.6646L6.24853 66.6304L6.24426 66.6261L6.20154 66.5919L6.19726 66.5877L6.15454 66.5535L6.15027 66.5492L6.10754 66.515L6.10327 66.5108L6.06054 66.4744L6.05627 66.4723L6.01355 66.4381L6.00927 66.4338L5.96783 66.3997L5.96356 66.3954L5.92083 66.3591L5.91656 66.3548L5.87384 66.3206L5.86956 66.3164L5.82684 66.28L5.82257 66.2779L5.7807 66.2437L5.77642 66.2395L5.73583 66.2053L5.73156 66.201L5.69097 66.1647L5.6867 66.1604L5.64611 66.1241L5.64184 66.1198L5.60125 66.0835L5.59698 66.0792L5.55639 66.0429L5.55212 66.0386L5.51153 66.0023L5.50726 65.9981L5.46667 65.9596L5.46239 65.9575L5.4218 65.9212L5.4154 65.9169L5.37588 65.8784L5.3716 65.8742L5.33101 65.8378L5.32674 65.8336L5.28701 65.7951L5.28273 65.7908L5.24428 65.7524L5.24001 65.7481L5.20156 65.7097L5.19728 65.7054L5.1567 65.6669L5.15242 65.6627L5.11183 65.6242L5.10756 65.6221L5.06911 65.5836L5.06484 65.5793L5.02638 65.5409L5.02211 65.5366L4.98366 65.4982L4.97939 65.4939L4.94093 65.4554L4.93666 65.4512L4.89821 65.4127L4.89394 65.4085L4.85548 65.37L4.85121 65.3657L4.8149 65.3273L4.81062 65.323L4.77217 65.2845L4.7679 65.2803L4.72944 65.2397L4.72517 65.2354L4.68886 65.1948L4.68458 65.1905L4.64827 65.15L4.64399 65.1457L4.60554 65.1051L4.60127 65.1008L4.56495 65.0602L4.56068 65.056L4.52436 65.0154L4.52009 65.0111L4.48378 64.9705L4.4795 64.9662L4.44319 64.9257L4.43891 64.9214L4.4026 64.8808L4.40046 64.8765L4.36628 64.8359L4.36201 64.8317L4.32569 64.7911L4.32142 64.7868L4.28297 64.7441L4.2787 64.7398L4.24238 64.6992L4.23811 64.6949L4.20179 64.6522L4.19752 64.6479L4.16334 64.6074L4.1612 64.6031L4.12702 64.5625L4.12275 64.5582L4.08857 64.5155L4.0843 64.5112L4.04798 64.4685L4.04371 64.4642L4.00953 64.4236L4.00526 64.4194L3.96894 64.3788L3.96467 64.3745L3.93049 64.3339L3.92621 64.3296L3.89203 64.2869L3.88776 64.2826L3.85358 64.2399L3.84931 64.2356L3.81513 64.1929L3.81086 64.1886L3.77668 64.1459L3.7724 64.1416L3.73822 64.0989L3.73609 64.0947L3.70404 64.0519L3.69977 64.0477L3.66773 64.0049L3.66559 64.0007L3.63355 63.9579L3.62927 63.9537L3.59723 63.9088L3.59296 63.9045L3.56091 63.8618L3.55664 63.8575L3.5246 63.8148L3.52246 63.8105L3.49042 63.7657L3.48828 63.7614L3.45624 63.7165L3.4541 63.7123L3.42206 63.6695L3.41992 63.6653L3.38788 63.6225L3.38361 63.6183L3.35156 63.5734L3.34729 63.5691L3.31524 63.5243L3.31097 63.5179L3.28106 63.473L3.27679 63.4687L3.24688 63.4239L3.24261 63.4196L3.2127 63.3747L3.20843 63.3705L3.17852 63.3256L3.17639 63.3213L3.14648 63.2765L3.14221 63.2701L3.1123 63.2252L3.10803 63.2209L3.07812 63.1761L3.07385 63.1718L3.04394 63.1269L3.03967 63.1227L3.00976 63.0778L3.00549 63.0735L2.97772 63.0287L2.97558 63.0244L2.94781 62.9795L2.94354 62.9731L2.91363 62.9283L2.90936 62.9218L2.87945 62.877L2.87731 62.8727L2.84741 62.8257L2.84527 62.8193L2.8175 62.7744L2.81323 62.7702L2.78545 62.7253L2.78118 62.721L2.75341 62.674L2.74914 62.6676L2.72137 62.6228L2.71923 62.6185L2.69146 62.5715L2.68932 62.5672L2.66155 62.5224L2.65728 62.516L2.62951 62.469L2.62524 62.4626L2.59746 62.4156L2.59319 62.4091L2.56756 62.3622L2.56328 62.3579L2.53551 62.3109L2.53338 62.3066L2.50774 62.2596L2.50561 62.2553L2.47997 62.2083L2.47783 62.2019L2.4522 62.1549L2.44793 62.1485L2.42229 62.1015L2.42015 62.0951L2.39452 62.046L2.39238 62.0417L2.36675 61.9947L2.36461 61.9883L2.33898 61.9413L2.33684 61.9349L2.31121 61.8879L2.30907 61.8815L2.28557 61.8324L2.28343 61.8281L2.2578 61.779L2.25566 61.7725L2.23003 61.7234L2.22576 61.7191L2.20226 61.67L2.20012 61.6657L2.17662 61.6187L2.17449 61.6123L2.15099 61.5632V61.5653L2.12749 61.5162L2.12322 61.5098L2.09972 61.4607L2.09758 61.4542L2.07408 61.4072L2.07195 61.4008L2.04845 61.3517L2.04631 61.3474L2.02281 61.2983L2.02068 61.294L1.99931 61.2449L1.99718 61.2406L1.97368 61.1915L1.97154 61.1872L1.94804 61.1381L1.94591 61.1338L1.92241 61.0847L1.92027 61.0783L1.89891 61.0291L1.89677 61.0249L1.87327 60.9757L1.87114 60.9693L1.84764 60.9202L1.8455 60.9159L1.82414 60.8668L1.822 60.8625L1.80064 60.8134L1.79851 60.807L1.77714 60.7578L1.77501 60.7536L1.75578 60.7044L1.75364 60.7001L1.73228 60.651L1.73015 60.6446L1.71092 60.5933L1.70878 60.5891L1.68742 60.5399L1.68528 60.5335L1.66606 60.4865L1.66392 60.4801L1.64256 60.4288L1.64042 60.4246L1.6212 60.3733L1.61906 60.3669L1.59983 60.3156L1.5977 60.3113L1.57847 60.2601L1.57633 60.2537L1.55711 60.2024L1.55497 60.1981L1.53575 60.1469L1.53361 60.1426L1.51652 60.0913L1.51438 60.0849L1.49516 60.0336L1.49302 60.0294L1.47593 59.9781L1.47379 59.9717L1.4567 59.9204L1.45457 59.914L1.43534 59.8627L1.43321 59.8563L1.41612 59.8051L1.41398 59.8008L1.39689 59.7495L1.39475 59.7452L1.37766 59.694L1.37553 59.6876L1.35844 59.6363L1.3563 59.6299L1.33921 59.5786L1.33707 59.5722L1.31998 59.5209L1.31785 59.5145L1.30076 59.4633L1.29884 59.4571L1.28388 59.4058L1.28175 59.4015L1.26466 59.3481L1.26252 59.3417L1.24757 59.2883L1.24543 59.2819L1.23048 59.2306L1.22834 59.2242L1.21339 59.1729L1.21125 59.1665L1.1963 59.1131L1.19416 59.1067L1.17921 59.0533L1.17707 59.049L1.16212 58.9956L1.15998 58.9935L1.14503 58.9401L1.14289 58.9358L1.13007 58.8845L1.12794 58.8803L1.11512 58.829V58.8247L1.10016 58.7713V58.7649L1.08735 58.7136L1.08521 58.7072L1.07239 58.656L1.07026 58.6496L1.05744 58.5962H1.05958L1.04676 58.5427L1.04462 58.5385L1.0318 58.4851L1.02967 58.4808L1.01685 58.4274L1.01471 58.4231L1.0019 58.3697L1.00403 58.3676L0.991215 58.3142L0.989079 58.3078L0.976261 58.2543L0.974125 58.2479L0.963444 58.1945L0.961307 58.1881L0.94849 58.1347L0.946354 58.1304L0.935672 58.077L0.933536 58.0706L0.922855 58.0172L0.920719 58.0108L0.910037 57.9574L0.899356 57.904V57.8976L0.888675 57.8421V57.8356L0.877994 57.7822L0.875857 57.7758L0.86304 57.7246V57.7181L0.852358 57.6605L0.850222 57.6541L0.839541 57.5985L0.837405 57.5921L0.82886 57.5387L0.826723 57.5323L0.818178 57.4789V57.4725L0.809633 57.4191V57.4127L0.801088 57.3593L0.798952 57.3528L0.790407 57.2994V57.3016L0.781862 57.2482V57.2439L0.773317 57.1905V57.1841L0.764772 57.1307V57.1243L0.756227 57.0709V57.0666L0.749818 57.011V57.0046L0.74341 56.9512V56.947L0.734865 56.8914L0.732728 56.885L0.72632 56.8316V56.8252L0.719911 56.7697L0.717775 56.7632L0.711366 56.7077V56.7013L0.704957 56.6458L0.702821 56.6393L0.696412 56.5838V56.5774L0.690003 56.5219L0.687867 56.5176L0.681458 56.462L0.677186 56.4065V56.4001L0.670777 56.3445L0.668641 56.3381L0.662232 56.2826V56.2762L0.657959 56.2206L0.655823 56.2142L0.651551 56.1587V56.1523L0.647278 56.0967V56.0903L0.643006 56.0348L0.638733 55.9792V55.9728L0.634461 55.9173V55.9109L0.630188 55.8553V55.7863L0.628052 55.7308V55.7244L0.625916 55.6688V55.6624L0.623779 55.6069L0.621643 55.6005L0.619507 55.5449V55.4851L0.617371 55.4296V55.4232L0.615234 55.3676V28.3227L0.617371 28.2693V28.2009L0.619507 28.1454V27.9488L0.621643 27.8933V27.889L0.623779 27.8335V27.8271L0.625916 27.7715V27.7651L0.628052 27.7096V27.7053L0.630188 27.6497V27.6433L0.632324 27.5878V27.5814L0.636597 27.5237V27.5173L0.640869 27.4618V27.4575L0.643006 27.4019V27.3955L0.647278 27.34V27.3336L0.649414 27.278V27.2716L0.651551 27.2161V27.2097L0.655823 27.1541V27.1477L0.660096 27.0922V27.0858L0.666504 27.0302V27.0238L0.670777 26.9683L0.672913 26.964L0.677186 26.9085V26.9042L0.683594 26.8486V26.8444L0.690003 26.7888L0.692139 26.7824L0.698548 26.7269V26.7205L0.704957 26.6649V26.6607L0.711366 26.6051V26.6008L0.717775 26.5453L0.719911 26.5389L0.72632 26.4833V26.4769L0.732728 26.4235V26.4171L0.739137 26.3616V26.3552L0.745546 26.2996L0.747682 26.2932L0.754091 26.2398V26.2334L0.762636 26.1779V26.1715L0.769045 26.1159L0.771181 26.1095L0.77759 26.0561L0.779726 26.0497L0.788271 25.9941L0.790407 25.9899L0.798952 25.9343V25.9301L0.807497 25.8745V25.8702L0.816042 25.8168L0.818178 25.8104L0.826723 25.757V25.7506L0.841677 25.6951L0.843813 25.6887L0.852358 25.6353V25.6288L0.86304 25.5754V25.5712L0.873721 25.5178V25.5135L0.884402 25.4579L0.886539 25.4537L0.89722 25.4003L0.899356 25.396L0.910037 25.3426L0.912174 25.3362L0.922855 25.2828L0.924991 25.2764L0.935672 25.223V25.2165L0.946354 25.1631V25.1589L0.957035 25.1055L0.959171 25.1012L0.969852 25.0478L0.971989 25.0435L0.984806 24.9901V24.9837L0.997624 24.9303L0.99976 24.9239L1.01044 24.8705L1.01258 24.8641L1.02539 24.8107V24.8043L1.03821 24.7508L1.04035 24.7444L1.05317 24.691V24.6846L1.06598 24.6312L1.06812 24.6269L1.08094 24.5735V24.5693L1.09376 24.5159L1.09589 24.5094L1.11085 24.456V24.4518L1.1258 24.3984V24.3941L1.14075 24.3407L1.14289 24.3343L1.15784 24.2809V24.2745L1.1728 24.2211L1.17493 24.2146L1.18989 24.1634L1.19202 24.1591L1.20698 24.1057L1.20911 24.1004L1.22407 24.0469L1.2262 24.0405L1.24116 23.9884L1.24329 23.9841L1.26038 23.9307L1.26252 23.9265L1.27747 23.8752L1.27961 23.8709L1.29456 23.819L1.2967 23.8147L1.31165 23.7618L1.31379 23.7554L1.33088 23.7032L1.33302 23.6968L1.35011 23.6455V23.6413L1.3672 23.59V23.5836L1.38429 23.5323L1.38642 23.5281L1.40351 23.4768L1.40565 23.4704L1.42274 23.4191L1.42487 23.4127L1.44196 23.3614L1.4441 23.355L1.46119 23.3037L1.46333 23.2995L1.48255 23.2482L1.48469 23.2439L1.50178 23.1927L1.50392 23.1873L1.52101 23.1361L1.52314 23.1318L1.54237 23.0805L1.5445 23.0762L1.56373 23.025V23.0207L1.58296 22.9694L1.58509 22.9652L1.60432 22.9139L1.60646 22.9075L1.62568 22.8562L1.62782 22.8519L1.64704 22.8007L1.64918 22.7943L1.67054 22.7451L1.67268 22.7408L1.69404 22.6896L1.69618 22.6853L1.71754 22.634L1.71968 22.6276L1.74104 22.5764L1.74318 22.5699L1.76454 22.5187L1.76667 22.5123L1.78804 22.461L1.79017 22.4546L1.81154 22.4033L1.81367 22.3969L1.83504 22.3456L1.83717 22.3403L1.85853 22.2912L1.86067 22.2848L1.88203 22.2356L1.88417 22.2292L1.90553 22.1779L1.90767 22.1737L1.93117 22.1224L1.9333 22.1181L1.9568 22.069L1.95894 22.0647L1.9803 22.0156L1.98244 22.0092L2.00594 21.96L2.00807 21.9558L2.03157 21.9066L2.03371 21.9024L2.05721 21.8532L2.05934 21.849L2.08284 21.7998L2.08498 21.7934L2.10848 21.7443L2.11061 21.74L2.13411 21.6909L2.13625 21.6845L2.15975 21.6353L2.16188 21.6311L2.18538 21.5819L2.18752 21.5777L2.21102 21.5285L2.21315 21.5242L2.23665 21.4751L2.23879 21.4708L2.26442 21.4238L2.26656 21.4196L2.29219 21.3704L2.29647 21.364L2.3221 21.3149L2.32424 21.3106L2.34987 21.2615L2.35201 21.2551L2.37764 21.2081L2.37978 21.2038L2.40541 21.1568L2.40755 21.1525L2.43319 21.1055L2.43532 21.0991L2.46096 21.0521L2.46523 21.0479L2.49086 21.0009L2.493 20.9945L2.51864 20.9475L2.52291 20.9432L2.54854 20.8962L2.55068 20.8919L2.57631 20.8449L2.58059 20.8385L2.60836 20.7915L2.6105 20.7872L2.63613 20.7402L2.63827 20.736L2.66604 20.689L2.66817 20.6847L2.69595 20.6377L2.69808 20.6334L2.72585 20.5864L2.73013 20.5822L2.7579 20.5352L2.76003 20.5309L2.7878 20.4839L2.79208 20.4796L2.81985 20.4326L2.82198 20.4284L2.84976 20.3814L2.85403 20.3771L2.8818 20.3301L2.88394 20.3258L2.91384 20.2788L2.91812 20.2724L2.94802 20.2254L2.95016 20.2211L2.97793 20.1763L2.9822 20.172L3.01211 20.1271L3.01638 20.1229L3.04415 20.0759L3.04629 20.0716L3.0762 20.0267L3.07833 20.0225L3.10824 19.9776L3.11251 19.9733L3.14242 19.9263L3.14669 19.9221L3.1766 19.8772L3.17874 19.8708L3.20865 19.8259L3.21078 19.8217L3.24069 19.7768L3.24283 19.7725L3.27487 19.7277L3.27914 19.7234L3.30905 19.6785L3.31332 19.6743L3.34537 19.6294L3.3475 19.6251L3.37955 19.5803L3.38168 19.576L3.41373 19.5311L3.41586 19.5269L3.44791 19.482L3.45218 19.4777L3.48422 19.4329L3.48636 19.4286L3.5184 19.3837L3.52268 19.3794L3.55472 19.3367L3.55686 19.3325L3.5889 19.2876L3.59317 19.2833L3.62522 19.2406L3.62949 19.2363L3.66153 19.1936L3.6658 19.1893L3.69785 19.1466L3.70212 19.1423L3.73416 19.0996L3.7363 19.0953L3.76834 19.0526L3.77262 19.0483L3.8068 19.0056L3.81107 19.0013L3.84525 18.9586L3.84952 18.9543L3.8837 18.9116L3.88797 18.9073L3.92215 18.8646L3.92643 18.8603L3.96061 18.8176L3.96488 18.8112L3.99906 18.7685L4.0012 18.7642L4.03538 18.7215L4.03965 18.7172L4.07383 18.6745L4.0781 18.6702L4.11228 18.6296L4.11655 18.6254L4.15073 18.5826L4.15501 18.5784L4.18919 18.5356L4.19346 18.5314L4.22978 18.4908L4.23405 18.4865L4.26823 18.4438L4.2725 18.4395L4.30668 18.3989L4.31095 18.3946L4.34513 18.3519L4.34941 18.3476L4.38572 18.3049L4.38786 18.3006L4.42417 18.2601L4.42845 18.2558L4.46476 18.2152L4.46904 18.2109L4.50535 18.1703L4.50962 18.1661L4.54594 18.1255L4.54808 18.1212L4.58439 18.0806L4.58867 18.0763L4.62498 18.0357L4.62925 18.0315L4.66557 17.9909L4.66771 17.9866L4.70402 17.946L4.7083 17.9418L4.74675 17.9012L4.74888 17.8969L4.78734 17.8563L4.79161 17.852L4.8322 17.8136L4.83647 17.8093L4.87492 17.7687L4.8792 17.7644L4.91765 17.7239L4.92192 17.7196L4.96037 17.6811L4.96465 17.6769L5.0031 17.6384L5.00737 17.6341L5.04582 17.5957L5.0501 17.5914L5.09069 17.553L5.09496 17.5487L5.13341 17.5102L5.13768 17.506L5.17614 17.4675L5.18041 17.4632L5.21886 17.4248L5.22313 17.4205L5.26159 17.3821L5.26586 17.3778L5.30431 17.3393L5.30858 17.3351L5.34704 17.2966L5.35131 17.2923L5.38976 17.2539L5.39403 17.2496L5.43462 17.2133L5.43889 17.209L5.47948 17.1727L5.48376 17.1684L5.52435 17.13L5.52862 17.1257L5.56921 17.0873L5.57348 17.0851L5.61407 17.0488L5.61834 17.0467L5.65893 17.0103L5.6632 17.0061L5.70379 16.9698L5.70806 16.9655L5.74865 16.9292L5.75292 16.9249L5.79351 16.8886L5.79779 16.8864L5.84051 16.8501L5.84478 16.8459L5.88751 16.8095L5.89178 16.8053L5.93451 16.7689L5.93878 16.7647L5.9815 16.7305L5.98578 16.7262L6.0285 16.692L6.03277 16.6878L6.07336 16.6536L6.07763 16.6493L6.12036 16.6151L6.12463 16.6109L6.16736 16.5767L6.17163 16.5745L6.21435 16.5404L6.21863 16.5361L6.26135 16.5019L6.26562 16.4976L6.30835 16.4635L6.31262 16.4592L6.35748 16.425L6.36176 16.4207L6.40448 16.3866L6.40875 16.3823L6.45361 16.3481L6.45789 16.3438L6.50275 16.3097L6.50702 16.3054L6.54975 16.2712L6.55402 16.2691L6.59888 16.2349L6.60315 16.2306L6.64588 16.1964L6.65015 16.1922L6.69501 16.1601L6.69928 16.1558L6.74415 16.1217L6.74842 16.1174L6.79328 16.0853L6.79755 16.0832L6.84241 16.0512L6.84882 16.0469L6.89368 16.0148L6.89796 16.0127L6.94282 15.9807L6.94709 15.9764L6.99195 15.9422L6.99622 15.9401L7.04322 15.908L7.04749 15.9038L7.09235 15.8717L7.09876 15.8696L7.14363 15.8375L7.1479 15.8354L7.19276 15.8034L7.19703 15.8012L7.24403 15.7692L7.2483 15.7649L7.29316 15.7329L7.29744 15.7307L7.34443 15.7008L7.34871 15.6987L7.39357 15.6666L7.39998 15.6624L7.44697 15.6325L7.45125 15.6282L7.49824 15.5961L7.50252 15.5919L7.54951 15.562L7.55592 15.5598L7.60292 15.5299L7.60719 15.5256L7.65419 15.4957L7.65846 15.4936L7.70546 15.4637L7.70973 15.4616L7.75673 15.4317L7.761 15.4295L7.808 15.3996L7.81441 15.3975L7.86141 15.3697H7.86354L29.335 2.12493L29.3372 2.1228L29.382 2.09502L29.3863 2.09289L29.4333 2.06298L29.4397 2.05871L29.4867 2.03094L29.4931 2.02666L29.5401 1.99889L29.5465 1.99462L29.5935 1.96685L29.5999 1.96471L29.6491 1.93694L29.6533 1.93267L29.7003 1.9049L29.7067 1.90276L29.7537 1.87499L29.758 1.87285L29.8071 1.84722L29.8114 1.84295L29.8605 1.81731L29.8648 1.81304L29.9118 1.7874L29.9182 1.78527L29.9674 1.75963L29.9716 1.75536L30.0186 1.72972L30.025 1.72545L30.072 1.69982L30.0784 1.69554L30.1254 1.66991L30.1297 1.66564L30.1788 1.64L30.1831 1.63787L30.2301 1.61223L30.2365 1.61009L30.2835 1.58446L30.2899 1.58232L30.3391 1.55669L30.3455 1.55455L30.3946 1.52892L30.3989 1.52678L30.448 1.50328L30.4544 1.50115L30.5036 1.47765L30.51 1.47551L30.557 1.45201L30.5634 1.44988L30.6125 1.42638L30.6168 1.42424L30.6659 1.40074L30.6723 1.39861L30.7215 1.37511L30.7279 1.37083L30.777 1.34734L30.7834 1.3452L30.8325 1.3217L30.8389 1.31956L30.8881 1.2982L30.8945 1.29607L30.9436 1.2747L30.9479 1.27043L30.997 1.24907L31.0013 1.24693L31.0504 1.22557L31.0568 1.2213L31.106 1.19993L31.1124 1.1978L31.1615 1.17643L31.1679 1.1743L31.2171 1.15294L31.2235 1.1508L31.2726 1.12944L31.279 1.1273L31.3282 1.10594L31.3346 1.1038L31.3837 1.08458L31.3901 1.08244L31.4392 1.06108L31.4456 1.05894L31.4969 1.03758L31.5033 1.03544L31.5546 1.01408L31.561 1.00981L31.6101 0.990581L31.6144 0.988444L31.6657 0.969218L31.6721 0.967082L31.7212 0.947856L31.7255 0.94572L31.7768 0.926493L31.7832 0.924357L31.8344 0.907267L31.8409 0.905131L31.8921 0.885904L31.8985 0.883768L31.9498 0.864542L31.9562 0.862405L32.0075 0.845315L32.0139 0.843179L32.0652 0.826089L32.0716 0.823953L32.1207 0.806863L32.1271 0.804727L32.1784 0.787637L32.1848 0.785501L32.2339 0.768411L32.2403 0.766274L32.2916 0.749184L32.2959 0.747048L32.3471 0.729958L32.3535 0.727822L32.4048 0.710732L32.4112 0.708595L32.4625 0.691505L32.4689 0.689369L32.5202 0.674415L32.5245 0.672279L32.5757 0.657325L32.5821 0.655189L32.6334 0.640235H32.6398L32.6911 0.625282L32.6975 0.623145L32.7488 0.608192L32.753 0.606055L32.8043 0.591102L32.8086 0.588965L32.8598 0.574012L32.8663 0.571875L32.9175 0.556922L32.9239 0.554785L32.9752 0.539831L32.9816 0.537695L33.0329 0.524877L33.0393 0.522741L33.0906 0.509924L33.0948 0.507787L33.1461 0.492834L33.1512 0.490697L33.2046 0.47788H33.2089L33.2602 0.462926H33.2666L33.3194 0.450109L33.3258 0.447972L33.3792 0.435155L33.3856 0.433019L33.4368 0.420201H33.4433L33.4967 0.407384H33.5031L33.5543 0.394566L33.5607 0.39243L33.612 0.381749L33.6184 0.379612L33.6697 0.366795L33.6761 0.364659L33.7274 0.353977H33.7338L33.7851 0.343296L33.7915 0.34116L33.8427 0.330478H33.847L33.8983 0.319797L33.9047 0.317661L33.9581 0.30698H33.9624L34.0158 0.296298L34.02 0.294162L34.0734 0.283481L34.0799 0.281345L34.1333 0.270663L34.1397 0.268527L34.1931 0.259982H34.1995L34.2508 0.251437L34.2572 0.249301L34.3106 0.23862L34.317 0.236483L34.3704 0.227938H34.3768L34.4281 0.219393L34.4345 0.217257L34.4879 0.208712L34.4943 0.206576L34.5456 0.198031H34.5498L34.6011 0.189486H34.6075L34.6609 0.180941L34.6673 0.178804L34.7207 0.170259H34.7271L34.7805 0.161714H34.787L34.8404 0.153169H34.8468L34.9002 0.146761H34.9066L34.9579 0.140352H34.9643L35.0177 0.133943L35.0241 0.131807L35.0775 0.125398L35.0818 0.123262L35.1352 0.118989H35.1416L35.1928 0.112581H35.1993L35.2505 0.106172H35.2569L35.3103 0.099763H35.3167L35.3702 0.0933543H35.3766L35.4278 0.0890819H35.4342L35.4876 0.082673L35.4941 0.0805369L35.5475 0.0762643L35.5539 0.074128L35.6073 0.0698556H35.6137L35.6662 0.065583H35.6726L35.7261 0.0613106H35.7325L35.7859 0.0591743L35.7923 0.057038L35.8457 0.0527656L35.85 0.0506293L35.9034 0.048493H35.9098L35.9632 0.0442206H35.9675L36.0209 0.0420843H36.0273L36.0807 0.039948H36.0871L36.1405 0.0378117H36.1469L36.2003 0.0356756L36.2067 0.0335393L36.2601 0.031403H36.2665L36.3199 0.0292667H36.3263L36.3797 0.0271306H36.3862L36.4396 0.0249943H36.446L36.4994 0.022858H36.5036L36.5571 0.0207217H36.6233L36.6767 0.0185854H36.8006L36.8119 0ZM36.7628 5.76788H36.7277L36.6927 5.76831H36.6579L36.6216 5.76917L36.5853 5.77002L36.5489 5.77109L36.5126 5.77323L36.4763 5.77536L36.44 5.7775L36.4058 5.77963L36.3695 5.78177L36.3353 5.78391L36.3011 5.78604L36.267 5.78818L36.2306 5.79031L36.1965 5.79245L36.1601 5.79672L36.1238 5.801L36.0896 5.80527L36.0533 5.80954L36.017 5.81381L35.9807 5.81809L35.9465 5.82236L35.9102 5.82663L35.876 5.8309L35.8418 5.83518L35.8055 5.83945L35.7713 5.84372L35.7372 5.84799L35.703 5.85227L35.6688 5.85654L35.6325 5.86081L35.5983 5.86722L35.5641 5.87149L35.5278 5.8779L35.4936 5.88431L35.4594 5.89072L35.4253 5.89713L35.3911 5.90354L35.3569 5.90995L35.3227 5.91635L35.2885 5.92063L35.2522 5.92704L35.2181 5.93344L35.1817 5.93985L35.1476 5.94626L35.1134 5.95267L35.0792 5.95908L35.045 5.96762L35.0108 5.97617L34.9767 5.98471L34.9425 5.99112L34.9083 5.99753L34.8741 6.00608L34.8399 6.01462L34.8058 6.02317L34.7716 6.03171L34.7374 6.04026L34.7032 6.0488L34.669 6.05735L34.6349 6.06589L34.6007 6.07444L34.5665 6.08298L34.5323 6.09366L34.4981 6.10221L34.464 6.11289L34.4319 6.12357L34.3977 6.13425L34.3636 6.14493L34.3294 6.15561L34.2952 6.1663L34.261 6.17698L34.229 6.18766L34.1948 6.19834L34.1606 6.21116L34.1264 6.22184L34.0922 6.23252L34.0581 6.24534L34.0239 6.25602L33.9897 6.2667L33.9577 6.27738L33.9235 6.2902L33.8893 6.30302L33.8551 6.31583L33.8231 6.32865L33.7889 6.34147L33.7569 6.35429L33.7248 6.3671L33.6906 6.38206L33.6565 6.39487L33.6223 6.40769L33.5881 6.42051L33.556 6.43546L33.524 6.44828L33.4898 6.46323L33.4578 6.47819L33.4257 6.49314L33.3937 6.5081L33.3595 6.52305L33.3275 6.538L33.2933 6.55296L33.2612 6.56791L33.2292 6.58287L33.1972 6.59782L33.163 6.61277L33.1309 6.62773L33.0989 6.64268L33.0668 6.65977L33.0348 6.67686L33.0028 6.69181L32.9707 6.7089L32.9387 6.72386L32.9066 6.74095L32.8746 6.75804L32.8425 6.77513L32.8105 6.79222L32.7785 6.80931L32.7464 6.82853L32.7165 6.84562L32.6845 6.86271L32.6546 6.8798L32.6225 6.89903L32.5905 6.91826L32.5584 6.93748L32.5285 6.95457L32.4965 6.9738L32.4666 6.99303L32.4345 7.01225L32.4025 7.03148L32.3683 7.05284L10.9203 20.272L10.884 20.2955L10.8498 20.3168L10.8178 20.3382L10.7857 20.3596L10.7537 20.3809L10.7216 20.4023L10.6896 20.4236L10.6575 20.445L10.6255 20.4664L10.5935 20.4877L10.5614 20.5091L10.5294 20.5305L10.4973 20.554L10.4674 20.5753L10.4375 20.5967L10.4055 20.618L10.3756 20.6394L10.3457 20.6608L10.3157 20.6821L10.2858 20.7035L10.2559 20.7249L10.226 20.7462L10.1961 20.7697L10.1662 20.7911L10.1363 20.8146L10.1064 20.8381L10.0765 20.8616L10.0466 20.8851L10.0167 20.9086L9.98676 20.9321L9.95899 20.9556L9.92909 20.9791L9.89918 21.0026L9.87141 21.0261L9.8415 21.0496L9.81159 21.0731L9.78382 21.0966L9.75391 21.1201L9.72614 21.1436L9.69837 21.1671L9.6706 21.1927L9.64283 21.2183L9.61506 21.2418L9.58729 21.2653L9.55951 21.291L9.53174 21.3166L9.50397 21.3422L9.4762 21.3679L9.44843 21.3935L9.42066 21.4191L9.39289 21.4448L9.36511 21.4704L9.33734 21.4961L9.30957 21.5217L9.2818 21.5473L9.25617 21.573L9.22839 21.5986L9.20276 21.6264L9.17499 21.652L9.14935 21.6798L9.12372 21.7054L9.09808 21.7332L9.07245 21.7588L9.04681 21.7866L9.02118 21.8144L8.99341 21.8421L8.96777 21.8678L8.94214 21.8955L8.9165 21.9233L8.89087 21.9511L8.86737 21.9788L8.84173 22.0066L8.8161 22.0344L8.79046 22.0622L8.76483 22.0921L8.73919 22.1198L8.71569 22.1476L8.6922 22.1754L8.66656 22.2053L8.64306 22.2331L8.61743 22.2608L8.59393 22.2907L8.57043 22.3185L8.54693 22.3484L8.52343 22.3783L8.49993 22.4082L8.47643 22.4381L8.45293 22.468L8.42944 22.498L8.40807 22.5279L8.38457 22.5578L8.36108 22.5877L8.33758 22.6176L8.31408 22.6475L8.29272 22.6774L8.27135 22.7073L8.24999 22.7372L8.22863 22.7693L8.20727 22.7992L8.1859 22.8291L8.16454 22.8611L8.14318 22.891L8.12182 22.9209L8.10045 22.9508L8.07909 22.9807L8.05986 23.0128L8.0385 23.0448L8.01714 23.0747L7.99578 23.1068L7.97655 23.1388L7.95732 23.1687L7.9381 23.2008L7.91887 23.2328L7.89964 23.2649L7.88042 23.2969L7.85906 23.329L7.83769 23.361L7.81847 23.393L7.79924 23.4251L7.78002 23.4571L7.76079 23.4892L7.74156 23.5212L7.72234 23.5533L7.70311 23.5853L7.68388 23.6173L7.66466 23.6494L7.64543 23.6814L7.6262 23.7156L7.60698 23.7477L7.58775 23.7797L7.56853 23.8139L7.55144 23.8459L7.53435 23.8801L7.51726 23.9143L7.50017 23.9485L7.48308 23.9805L7.46599 24.0126L7.4489 24.0467L7.43181 24.0788L7.41472 24.113L7.39976 24.145L7.38267 24.1792L7.36558 24.2134L7.34849 24.2475L7.3314 24.2817L7.31431 24.3159L7.29936 24.3501L7.2844 24.3843L7.26945 24.4184L7.2545 24.4526L7.23954 24.4868L7.22459 24.521L7.20963 24.5552L7.19468 24.5893L7.17973 24.6235L7.16691 24.6577L7.15196 24.6919L7.137 24.7282L7.12205 24.7624L7.10709 24.7966L7.09214 24.8307L7.07932 24.8649L7.06437 24.9012L7.04942 24.9354L7.0366 24.9696L7.02378 25.0059L7.01096 25.0401L6.99815 25.0764L6.98533 25.1106L6.97251 25.1469L6.95969 25.1832L6.94688 25.2195L6.93619 25.2559L6.92338 25.29L6.91056 25.3264L6.89988 25.3627L6.8892 25.3968L6.87852 25.4332L6.8657 25.4695L6.85502 25.5037L6.84434 25.5378L6.83365 25.5742L6.82084 25.6105L6.81016 25.6468L6.79947 25.681L6.78879 25.7173L6.77811 25.7536L6.76743 25.7899L6.75675 25.8262L6.74607 25.8626L6.73752 25.8989L6.72898 25.9352L6.7183 25.9715L6.70975 26.0078L6.69907 26.0441L6.69053 26.0804L6.68198 26.1168L6.67344 26.1552L6.66489 26.1915L6.65635 26.2279L6.6478 26.2642L6.63926 26.3005L6.63071 26.3368L6.62217 26.3731L6.61576 26.4094L6.60721 26.4457L6.6008 26.4821L6.59439 26.5205L6.58799 26.559L6.58158 26.5974L6.57517 26.6359L6.56876 26.6722L6.56235 26.7085L6.55594 26.747L6.54953 26.7854L6.54312 26.8217L6.53672 26.858L6.53031 26.8944L6.5239 26.9328L6.51963 26.9713L6.51535 27.0097L6.51108 27.046L6.50467 27.0845L6.49826 27.1208L6.49399 27.1593L6.48972 27.1977L6.48545 27.2362L6.48117 27.2746L6.4769 27.3131L6.47263 27.3515L6.46836 27.3878L6.46408 27.4263L6.45981 27.4647L6.45767 27.5032L6.4534 27.5416L6.44913 27.5801L6.44699 27.6186L6.44486 27.657L6.44272 27.6955L6.44058 27.7339L6.43845 27.7724L6.43631 27.8108L6.43418 27.8493L6.43204 27.8877L6.4299 27.9262L6.42777 27.9646V28.0031L6.42563 28.0415L6.42349 28.08V28.1184L6.42136 28.1569V55.2446L6.42349 55.283V55.3984L6.42563 55.4347L6.42777 55.4732L6.4299 55.5116L6.43204 55.5501L6.43418 55.5885L6.43631 55.627L6.43845 55.6654L6.44058 55.7039L6.44272 55.7423L6.44699 55.7808L6.44913 55.8192L6.45127 55.8577L6.4534 55.8961L6.45767 55.9325L6.46195 55.9709L6.46622 56.0072L6.46836 56.0457L6.47263 56.082L6.4769 56.1183L6.48117 56.1546L6.48545 56.1909L6.48972 56.2294L6.49399 56.2657L6.49826 56.302L6.50254 56.3405L6.50681 56.3789L6.51108 56.4152L6.51535 56.4537L6.52176 56.49L6.52817 56.5263L6.53458 56.5626L6.54099 56.599L6.5474 56.6374L6.55381 56.6737L6.56021 56.7101L6.56662 56.7464L6.57303 56.7827L6.58158 56.819L6.58799 56.8553L6.59439 56.8916L6.6008 56.928L6.60935 56.9643L6.61789 57.0006L6.6243 57.0369L6.63285 57.0732L6.64139 57.1095L6.64994 57.1458L6.65848 57.1822L6.66703 57.2185L6.67557 57.2548L6.68412 57.2911L6.69266 57.3253L6.70334 57.3595L6.71189 57.3958L6.72043 57.4321L6.72898 57.4684L6.73966 57.5047L6.7482 57.5389L6.75675 57.5752L6.76529 57.6094L6.77598 57.6457L6.78452 57.6799L6.7952 57.7162L6.80588 57.7525L6.81656 57.7867L6.82725 57.823L6.83793 57.8594L6.84861 57.8935L6.85929 57.9299L6.87211 57.964L6.88492 57.9982L6.89774 58.0324L6.91056 58.0666L6.92124 58.1008L6.93406 58.1371L6.94688 58.1712L6.95969 58.2054L6.97251 58.2396L6.98533 58.2738L6.99815 58.308L7.01096 58.3422L7.02378 58.3763L7.0366 58.4105L7.04942 58.4447L7.06437 58.4789L7.07932 58.513L7.09214 58.5472L7.10496 58.5814L7.11778 58.6156L7.13059 58.6498L7.14341 58.684L7.15837 58.7181L7.17332 58.7523L7.18827 58.7865L7.20323 58.8207L7.21818 58.8549L7.23313 58.889L7.24809 58.9232L7.26304 58.9574L7.27799 58.9916L7.29295 59.0257L7.3079 59.0599L7.32286 59.092L7.33995 59.1262L7.35704 59.1582L7.37413 59.1924L7.39122 59.2244L7.40831 59.2565L7.4254 59.2885L7.44249 59.3206L7.45958 59.3526L7.47667 59.3846L7.49589 59.4167L7.51298 59.4487L7.53007 59.4808L7.54716 59.5128L7.56639 59.5449L7.58562 59.5769L7.60271 59.6089L7.6198 59.641L7.63689 59.673L7.65611 59.7051L7.6732 59.7371L7.69243 59.767L7.71165 59.7991L7.73088 59.829L7.75011 59.861L7.76933 59.8931L7.78856 59.923L7.80779 59.9529L7.82701 59.9828L7.84624 60.0127L7.86546 60.0447L7.88469 60.0768L7.90605 60.1067L7.92528 60.1366L7.94451 60.1686L7.96373 60.1986L7.98296 60.2285L8.00432 60.2584L8.02568 60.2883L8.04705 60.3203L8.06841 60.3502L8.08977 60.3801L8.11113 60.41L8.1325 60.44L8.15386 60.4699L8.17522 60.4998L8.19658 60.5297L8.22008 60.5596L8.24358 60.5895L8.26494 60.6194L8.28631 60.6493L8.30767 60.6792L8.32903 60.7091L8.35253 60.7369L8.37603 60.7647L8.39953 60.7946L8.42303 60.8223L8.44653 60.8522L8.47002 60.88L8.49352 60.9078L8.51702 60.9356L8.54052 60.9633L8.56402 60.9911L8.58752 61.0189L8.61102 61.0466L8.63452 61.0744L8.65802 61.1022L8.68151 61.13L8.70501 61.1577L8.73065 61.1855L8.75628 61.2133L8.77978 61.241L8.80542 61.2667L8.83105 61.2945L8.85669 61.3201L8.88232 61.3479L8.90582 61.3756L8.93146 61.4034L8.95709 61.429L8.98273 61.4547L9.00836 61.4803L9.034 61.5059L9.05963 61.5337L9.08527 61.5593L9.1109 61.585L9.13654 61.6106L9.16217 61.6363L9.18781 61.6619L9.21558 61.6875L9.24121 61.7132L9.26685 61.7388L9.29462 61.7644L9.32025 61.7901L9.34589 61.8157L9.37366 61.8413L9.40143 61.8648L9.4292 61.8883L9.45697 61.914L9.48475 61.9396L9.51252 61.9631L9.54029 61.9866L9.56806 62.0122L9.59583 62.0379L9.6236 62.0614L9.65351 62.0849L9.68342 62.1084L9.71332 62.1319L9.7411 62.1554L9.76887 62.1789L9.79877 62.2024L9.82655 62.2259L9.85645 62.2472L9.88422 62.2707L9.91413 62.2942L9.94404 62.3177L9.97395 62.3412L10.0017 62.3626L10.0316 62.3861L10.0615 62.4074L10.0914 62.4309L10.1213 62.4544L10.1513 62.4758L10.1812 62.4972L10.2132 62.5185L10.2431 62.5399L10.273 62.5613L10.3029 62.5826L10.3328 62.604L10.3627 62.6253L10.3927 62.6467L10.4247 62.6681L10.4567 62.6873L10.4888 62.7087L10.5187 62.73L10.5507 62.7514L10.5828 62.7727L10.6127 62.792L10.6447 62.8112L10.6768 62.8304L10.7088 62.8496L10.7409 62.8689L10.7729 62.8881L10.8071 62.9073L10.8391 62.9265L10.8712 62.9458L10.9075 62.9671L33.2698 76.041L33.2976 76.0581L33.3211 76.0709L33.3467 76.0837L33.3723 76.0966L33.398 76.1094L33.4215 76.1243L33.4471 76.1371L33.4727 76.15L33.4984 76.1628L33.524 76.1777L33.5496 76.1905L33.5753 76.2034L33.6009 76.2162L33.6265 76.229L33.6522 76.2418L33.6778 76.2546L33.7034 76.2675L33.7291 76.2803L33.7526 76.2931L33.7782 76.3059L33.8039 76.3187L33.8295 76.3294L33.8551 76.3422L33.8808 76.3529L33.9064 76.3636L33.932 76.3743L33.9577 76.3871L33.9833 76.3999L34.0089 76.4106L34.0346 76.4234L34.0602 76.4341L34.0858 76.4448L34.1115 76.4554L34.1371 76.4661L34.1627 76.4768L34.1884 76.4875L34.214 76.4982L34.2396 76.5089L34.2653 76.5195L34.2909 76.5281L34.3187 76.5388L34.3443 76.5494L34.37 76.5601L34.3956 76.5708L34.4212 76.5815L34.4469 76.59L34.4725 76.6007L34.4981 76.6092L34.5238 76.6178L34.5515 76.6263L34.5772 76.6349L34.6007 76.6434L34.6562 76.6605L34.7096 76.6776L34.763 76.6926L34.8164 76.7075L34.8698 76.7225L34.9233 76.7374L34.9767 76.7524L35.0301 76.7673L35.0835 76.7823L35.1369 76.7951L35.1903 76.8079L35.2437 76.8207L35.2971 76.8314L35.3505 76.8442L35.4039 76.8549L35.4573 76.8656L35.5107 76.8763L35.5641 76.8848L35.6175 76.8955L35.6709 76.9041L35.7243 76.9126L35.7799 76.9211L35.8333 76.9297L35.8888 76.9361L35.9444 76.9425L35.9999 76.9489L36.0555 76.9532L36.1089 76.9575L36.1644 76.9617L36.2178 76.966L36.2734 76.9703L36.3289 76.9746L36.3823 76.9788L36.4357 76.981L36.4891 76.9831L36.5447 76.9852H36.8181L36.8737 76.9831H36.9292L36.9847 76.981L37.0403 76.9788L37.0958 76.9746L37.1514 76.9703L37.2069 76.9681L37.2624 76.9639L37.318 76.9596L37.3735 76.9553L37.4269 76.9511L37.4825 76.9446L37.538 76.9382L37.5914 76.9318L37.647 76.9254L37.7004 76.9169L37.7559 76.9083L37.8093 76.8998L37.8649 76.8912L37.9183 76.8827L37.9717 76.872L38.0251 76.8635L38.0806 76.8528L38.134 76.8421L38.1874 76.8293L38.2409 76.8186L38.2943 76.8058L38.3477 76.793L38.4011 76.7802L38.4545 76.7673L38.5079 76.7524L38.5613 76.7374L38.6147 76.7225L38.6681 76.7075L38.7236 76.6904L38.7493 76.6819L38.7749 76.6733L38.8005 76.6648L38.8283 76.6562L38.854 76.6477L38.8817 76.6392L38.9074 76.6306L38.933 76.6221L38.9608 76.6135L38.9864 76.605L39.012 76.5964L39.0398 76.5858L39.0654 76.5772L39.0932 76.5687L39.1189 76.558L39.1445 76.5494L39.1701 76.5409L39.1958 76.5323L39.2235 76.5217L39.2492 76.5131L39.2748 76.5024L39.3004 76.4918L39.3261 76.4811L39.3517 76.4704L39.3773 76.4597L39.403 76.449L39.4286 76.4384L39.4542 76.4277L39.4799 76.417L39.5055 76.4063L39.5311 76.3935L39.5568 76.3807L39.5824 76.37L39.6081 76.3572L39.6337 76.3444L39.6593 76.3337L39.685 76.3209L39.7106 76.308L39.7362 76.2952L39.7597 76.2824L39.7854 76.2696L39.811 76.2568L39.8366 76.244L39.8623 76.2311L39.8879 76.2183L39.9135 76.2055L39.9392 76.1927L39.9648 76.1799L39.9883 76.1671L40.0139 76.1542L40.0396 76.1414L40.0673 76.1265L64.8415 62.3199L64.8714 62.3049L64.8992 62.2899L64.9248 62.275L64.9504 62.26L64.9761 62.2451L65.0017 62.228L65.0295 62.213L65.0551 62.1981L65.0807 62.1831L65.1064 62.1682L65.132 62.1511L65.1576 62.134L65.1833 62.119L65.2089 62.1041L65.2346 62.0891L65.2602 62.072L65.2858 62.055L65.3115 62.04L65.3371 62.0229L65.3627 62.008L65.3862 61.9909L65.4097 61.9738L65.4332 61.9567L65.4567 61.9396L65.4802 61.9225L65.5059 61.9054L65.5294 61.8883L65.555 61.8712L65.5785 61.8542L65.602 61.8371L65.6255 61.82L65.649 61.8029L65.6725 61.7858L65.6981 61.7687L65.7216 61.7495L65.7451 61.7324L65.7686 61.7132L65.7921 61.6961L65.8156 61.6768L65.8391 61.6576L65.8626 61.6384L65.8861 61.6213L65.9096 61.6042L65.9331 61.585L65.9545 61.5658L65.978 61.5465L66.0015 61.5273L66.0228 61.5102L66.0463 61.491L66.0698 61.4696L66.0912 61.4504L66.1147 61.4312L66.1361 61.4119L66.1574 61.3927L66.1788 61.3714L66.2023 61.3521L66.2236 61.3308L66.245 61.3115L66.2664 61.2902L66.2877 61.2688L66.3091 61.2496L66.3305 61.2282L66.3518 61.209L66.3732 61.1876L66.3945 61.1663L66.4159 61.1449L66.4373 61.1236L66.4565 61.1022L66.4779 61.0808L66.4971 61.0595L66.5184 61.0381L66.5398 61.0167L66.5612 60.9954L66.5804 60.974L66.5996 60.9527L66.6188 60.9313L66.6381 60.9099L66.6594 60.8886L66.6787 60.8672L66.6979 60.8458L66.7171 60.8245L66.7363 60.8031L66.7556 60.7817L66.7748 60.7604L66.794 60.739L66.8132 60.7155L66.8325 60.692L66.8517 60.6685L66.8709 60.6472L66.8901 60.6258L66.9094 60.6044L66.9286 60.5809L66.9478 60.5596L66.9671 60.5361L66.9841 60.5147L67.0012 60.4912L67.0183 60.4677L67.0354 60.4464L67.0546 60.4229L67.0717 60.3994L67.0888 60.3759L67.1059 60.3524L67.123 60.3289L67.1401 60.3054L67.1572 60.2819L67.1743 60.2584L67.1914 60.2349L67.2084 60.2114L67.2255 60.1879L67.2426 60.1644L67.2597 60.1409L67.2747 60.1174L67.2896 60.0917L67.3067 60.0661L67.3238 60.0426L67.3388 60.0191L67.3537 59.9956L67.3708 59.97L67.3879 59.9465L67.4028 59.923L67.4178 59.8973L67.4328 59.8717L67.4477 59.8461L67.4627 59.8204L67.4776 59.7969L67.4926 59.7713L67.5075 59.7457L67.5225 59.7222L67.5374 59.6965L67.5524 59.6709L67.5673 59.6453L67.5802 59.6196L67.593 59.594L67.6079 59.5684L67.6229 59.5427L67.6357 59.5171L67.6507 59.4915L67.6656 59.4658L67.6784 59.4402L67.6912 59.4145L67.7041 59.3868L67.7169 59.3611L67.7318 59.3355L67.7468 59.3099L67.7596 59.2842L67.7724 59.2586L67.7852 59.233L67.7981 59.2052L67.8109 59.1796L67.8237 59.1539L67.8365 59.1262L67.8493 59.1005L67.8621 59.0749L67.875 59.0471L67.8878 59.0193L67.9006 58.9916L67.9134 58.9659L67.9241 58.9403L67.9348 58.9125L67.9455 58.8848L67.9561 58.857L67.9668 58.8314L67.9775 58.8036L67.9882 58.7758L67.9989 58.748L68.0095 58.7224L68.0202 58.6946L68.0309 58.6669L68.0416 58.6391L68.0523 58.6113L68.063 58.5835L68.0715 58.5558L68.08 58.528L68.0886 58.5002L68.0971 58.4725L68.1078 58.4447L68.1185 58.4169L68.1292 58.3891L68.1399 58.3614L68.1484 58.3336L68.1591 58.3058L68.1676 58.2781L68.1762 58.2503L68.1869 58.2225L68.1954 58.1947L68.2039 58.167L68.2125 58.1392L68.221 58.1114L68.2274 58.0837L68.236 58.0559L68.2445 58.0281L68.2531 58.0003L68.2616 57.9726L68.268 57.9448L68.2744 57.9149L68.283 57.8871L68.2894 57.8594L68.2958 57.8295L68.3043 57.8017L68.3108 57.7739L68.3172 57.7461L68.3236 57.7184L68.33 57.6885L68.3364 57.6607L68.3428 57.6329L68.3471 57.603L68.3535 57.5731L68.3599 57.5453L68.3642 57.5154L68.3706 57.4876L68.377 57.4577L68.3834 57.4278L68.3898 57.4001L68.3962 57.3702L68.4005 57.3402L68.4069 57.3103L68.4112 57.2826L68.4176 57.2548L68.4218 57.2249L68.4261 57.195L68.4304 57.1651L68.4347 57.1352L68.4389 57.1053L68.4432 57.0754L68.4475 57.0454L68.4496 57.0155L68.4539 56.9878L68.456 56.9579L68.4603 56.928L68.4646 56.9002L68.4688 56.8703L68.471 56.8404L68.4731 56.8105L68.4753 56.7806L68.4774 56.7506L68.4817 56.7207L68.4838 56.6908L68.4859 56.6609L68.4881 56.631L68.4902 56.6011L68.4923 56.5712L68.4945 56.5413L68.4966 56.5114L68.4987 56.4815L68.5009 56.4516L68.503 56.4217L68.5052 56.3918V56.3319L68.5073 56.302V26.7297L68.5052 26.7034L68.503 26.6756V26.6478L68.5009 26.6201V26.5923L68.4987 26.5645V26.5368L68.4966 26.509L68.4945 26.4833L68.4923 26.4556L68.4902 26.4278L68.4881 26.4L68.4859 26.3744L68.4838 26.3466L68.4817 26.321L68.4795 26.2932L68.4753 26.2654L68.4731 26.2398L68.471 26.2142L68.4667 26.1885L68.4646 26.1629L68.4603 26.1351L68.4582 26.1095L68.4539 26.0839L68.4496 26.0561L68.4475 26.0283L68.4453 26.0027L68.4411 25.9792L68.4325 25.923L68.4261 25.8685L68.4176 25.813L68.409 25.7596L68.3983 25.7062L68.3877 25.6528L68.3791 25.5994L68.3684 25.546L68.3556 25.4926L68.3428 25.4391L68.33 25.3857L68.3172 25.3323L68.3043 25.2789L68.2915 25.2255L68.2787 25.1721L68.2638 25.1187L68.2488 25.0653L68.2339 25.0119L68.2168 24.9585L68.2018 24.9072L68.1847 24.856L68.1676 24.8047L68.1505 24.7534L68.1335 24.7021L68.1142 24.6509L68.095 24.5996L68.0758 24.5505L68.0565 24.4992L68.0373 24.4479L68.0181 24.3967L67.9967 24.3475L67.9775 24.2962L67.9561 24.2471L67.9348 24.198L67.9134 24.1488L67.8899 24.0997L67.8686 24.0506L67.8451 24.0014L67.8216 23.9523L67.7981 23.9053L67.7724 23.8562L67.7489 23.807L67.7233 23.7579L67.6977 23.7109L67.672 23.6639L67.6464 23.6169L67.6208 23.5699L67.5951 23.5229L67.5673 23.4759L67.5396 23.4289L67.5118 23.3819L67.4819 23.3349L67.4541 23.2901L67.4264 23.2452L67.3964 23.2004L67.3665 23.1555L67.3366 23.1106L67.3067 23.0658L67.2768 23.0209L67.2469 22.976L67.2149 22.9333L67.1828 22.8906L67.1508 22.8479L67.1187 22.8051L67.0867 22.7624L67.0525 22.7197L67.0183 22.677L66.9841 22.6342L66.95 22.5915L66.9158 22.5509L66.8795 22.5103L66.8453 22.4698L66.809 22.4292L66.7727 22.3886L66.7363 22.348L66.7 22.3074L66.6637 22.2668L66.6253 22.2284L66.5868 22.1899L66.5483 22.1515L66.5099 22.113L66.4714 22.0745L66.4309 22.0361L66.3903 21.9976L66.3497 21.9613L66.3091 21.925L66.2685 21.8887L66.2279 21.8524L66.1873 21.8161L66.1446 21.7797L66.1019 21.7456L66.0591 21.7114L66.0186 21.6772L65.9737 21.6409L65.9545 21.6259L65.9331 21.6088L65.9117 21.5918L65.8904 21.5747L65.869 21.5576L65.8477 21.5426L65.8263 21.5255L65.8049 21.5084L65.7814 21.4913L65.7579 21.4743L65.7366 21.4572L65.7152 21.4401L65.6938 21.423L65.6725 21.408L65.6511 21.3909L65.6276 21.3739L65.6063 21.3589L65.5849 21.3439L65.5614 21.3269L65.5379 21.3119L65.5144 21.297L65.493 21.282L65.4695 21.267L65.446 21.2521L65.4225 21.2371L65.399 21.2222L65.3755 21.2072L65.352 21.1923L65.3285 21.1773L65.305 21.1624L65.2816 21.1474L65.258 21.1346L65.2346 21.1218L65.2068 21.1068L41.0331 6.92445L40.999 6.90352L40.968 6.88643L40.9359 6.8672L40.9039 6.84797L40.8725 6.83024L40.8405 6.81315L40.8095 6.79606L40.7774 6.77897L40.7454 6.76188L40.7134 6.74479L40.6819 6.7277L40.6499 6.71061L40.6179 6.69352L40.5858 6.67643L40.5538 6.65934L40.5217 6.64225L40.4897 6.62516L40.457 6.61021L40.425 6.59312L40.3929 6.57817L40.3609 6.56321L40.3288 6.54612L40.2957 6.53117L40.2637 6.51621L40.2316 6.50126L40.1983 6.48631L40.1663 6.47135L40.1342 6.45854L40.1011 6.44358L40.0686 6.42863L40.0366 6.41367L40.0035 6.40086L39.9714 6.38804L39.9372 6.37522L39.9044 6.36027L39.8706 6.34745L39.8364 6.3325L39.8022 6.31968L39.7691 6.30686L39.736 6.29404L39.7025 6.28123L39.6683 6.26841L39.6341 6.25559L39.6021 6.24277L39.57 6.23209L39.538 6.22141L39.5038 6.20859L39.4696 6.19791L39.4376 6.18723L39.4034 6.17655L39.3692 6.16587L39.3372 6.15519L39.303 6.14451L39.2688 6.13382L39.2346 6.12314L39.2026 6.11246L39.1684 6.10178L39.1342 6.0911L39.1001 6.08042L39.0659 6.07187L39.0317 6.06119L38.9975 6.05265L38.9633 6.04197L38.9292 6.03342L38.895 6.02488L38.8608 6.01633L38.8266 6.00565L38.7924 5.9971L38.7583 5.98856L38.7241 5.98215L38.6899 5.97361L38.6557 5.96506L38.6215 5.95652L38.5874 5.95011L38.5532 5.94156L38.519 5.93515L38.4848 5.92874L38.4506 5.9202L38.4165 5.91379L38.3823 5.90738L38.3481 5.90097L38.3139 5.89456L38.2797 5.88816L38.2456 5.88175L38.2092 5.87534L38.1751 5.87107L38.1409 5.86679L38.1067 5.86252L38.0725 5.85825L38.0383 5.85184L38.0042 5.84543L37.97 5.84116L37.9337 5.83475L37.8995 5.83048L37.8653 5.82407L37.8311 5.8198L37.7969 5.81552L37.7628 5.81125L37.7286 5.80698L37.6944 5.80271L37.6581 5.79843L37.6239 5.7963L37.5897 5.79202L37.5555 5.78775L37.5214 5.78562L37.4872 5.78348L37.453 5.78134L37.4188 5.77921L37.3846 5.77707L37.3483 5.77493L37.312 5.7728L37.2778 5.77066L37.2436 5.76853H37.2095L37.1753 5.76639L37.1411 5.76425H37.1048L37.0706 5.76212L37.0364 5.75998L37.0044 5.75784L36.9702 5.75571H36.8997L36.8655 5.75357H36.7972L36.7628 5.76788Z" clip-rule="evenodd" fill-rule="evenodd"></path>
</svg>
