<svg xmlns="http://www.w3.org/2000/svg" fill="none" viewBox="0 0 36 36" height="36" width="36">
<path stroke-width="0.615085" stroke="white" fill="black" d="M12.8778 20.4886L18.0184 23.1695L13.9324 25.2849L8.40866 22.4043L8.26698 22.3304L8.12508 22.4039L3.093 25.0086L2.56745 25.2807L3.09211 25.5544L17.7797 33.2177L17.9132 33.3228L18.0892 33.2317L23.1212 30.6271L23.6472 30.3548L23.122 30.0812L18.2879 27.5625L22.381 25.4411L27.5911 28.1593L27.7328 28.2332L27.8748 28.1598L32.9065 25.555L33.432 25.283L32.9073 25.0093L18.1943 17.3323L18.0525 17.2583L17.9104 17.332L12.8783 19.943L12.3535 20.2153L12.8778 20.4886Z"></path>
<path fill="url(#paint0_linear_2473_360)" d="M17.9479 17.6872L3.23486 10.0103L8.26695 7.40551L13.9324 10.3601L18.6859 7.89898L13.0205 4.94447L18.0525 2.3335L32.7656 10.0104L27.7335 12.6151L22.3816 9.82303L17.6211 12.2903L22.98 15.0825L17.9479 17.6872Z"></path>
<defs>
<linearGradient gradientUnits="userSpaceOnUse" y2="22.4101" x2="10.702" y1="10.6072" x1="32.2118" id="paint0_linear_2473_360">
<stop stop-color="#AA31FF" offset="0.234375"></stop>
<stop stop-color="#326BFF" offset="0.385417"></stop>
<stop stop-color="#01FFFF" offset="0.833333"></stop>
</linearGradient>
</defs>
</svg>
