<svg xmlns:xlink="http://www.w3.org/1999/xlink" xmlns="http://www.w3.org/2000/svg" width="81" height="30" fill="none" viewBox="0 0 81 30">
  <path fill="#000" fill-rule="evenodd" d="M10.308 1.305C5.073 7.56.053 15.31 0 21.1c-.02 2.182.663 4.082 2.306 5.526 2.363 2.074 4.966 2.806 7.556 2.812 3.79.005 7.546-1.546 10.493-2.747C25.315 24.675 80.125.48 80.125.48c.53-.269.43-.604-.233-.436-.264.069-59.67 16.428-59.67 16.428a12.763 12.763 0 0 1-3.454.5C12.2 17 8.14 14.427 8.172 8.996c.016-2.116.652-4.674 2.136-7.69Z" clip-rule="evenodd"/>
</svg>