<svg xmlns="http://www.w3.org/2000/svg" fill="none" viewBox="0 0 92 82" height="82" width="92">
<path fill="#61DAFB" d="M91.869 41.1539C91.8887 35.0768 84.2968 29.2929 72.6402 25.6837C75.3714 13.7998 74.2052 4.3343 68.9419 1.28801C67.7288 0.573517 66.3088 0.232339 64.7568 0.227319L64.7433 4.39718C65.6034 4.39997 66.2947 4.57049 66.8734 4.89025C69.4117 6.357 70.497 11.9142 69.6137 19.0544C69.4024 20.8114 69.0598 22.6615 68.6423 24.5488C64.9802 23.6394 60.9809 22.9346 56.7751 22.4722C54.2619 19.0047 51.6542 15.8548 49.0265 13.0975C55.1407 7.45148 60.8726 4.36596 64.762 4.37855L64.7755 0.208681C59.6333 0.192047 52.8898 3.83527 46.0629 10.1709C39.2769 3.82863 32.557 0.179257 27.4148 0.162623L27.4013 4.33249C31.272 4.34501 37.0026 7.4489 43.0802 13.097C40.4535 15.8373 37.8255 18.9515 35.3274 22.4028C31.1 22.8379 27.0962 23.5168 23.4282 24.4212C23.0042 22.5499 22.6922 20.7351 22.4734 18.9954C21.6176 11.8495 22.7201 6.29945 25.2493 4.8304C25.8113 4.49564 26.5411 4.3484 27.4012 4.35119L27.4147 0.181322C25.844 0.176241 24.4218 0.508225 23.1854 1.21479C17.9212 4.22702 16.7126 13.6662 19.3856 25.5301C7.74323 29.0827 0.151593 34.7987 0.131996 40.8572C0.112337 46.9344 7.70418 52.7182 19.3608 56.3275C16.6296 68.2113 17.7958 77.6768 23.0591 80.7231C24.2722 81.4376 25.6922 81.7788 27.263 81.7839C32.4052 81.8005 39.1486 78.1573 45.9756 71.8217C52.7616 78.1639 59.4815 81.8133 64.6237 81.8299C66.1944 81.835 67.6166 81.503 68.853 80.7965C74.1172 77.7842 75.3258 68.3451 72.6528 56.4812C84.2577 52.9472 91.8494 47.2124 91.869 41.1539ZM67.5633 28.603C66.8637 31.0129 65.9955 33.4971 65.0151 35.9809C64.2533 34.4825 63.4541 32.984 62.58 31.4852C61.7247 29.9865 60.8132 28.5251 59.9016 27.101C62.5555 27.5022 65.1157 27.9967 67.5633 28.603ZM58.9348 48.4897C57.4681 51.0093 55.9645 53.3979 54.4052 55.6181C51.6183 55.8522 48.7944 55.9739 45.9521 55.9647C43.1286 55.9556 40.3055 55.8156 37.5387 55.5822C35.9939 53.352 34.487 50.9724 33.0366 48.462C31.6234 46.0078 30.3412 43.5167 29.1713 41.0072C30.3387 38.5053 31.6557 36.0039 33.0661 33.5589C34.5328 31.0392 36.0364 28.6506 37.5956 26.4304C40.3826 26.1964 43.2065 26.0746 46.0488 26.0838C48.8723 26.0929 51.6954 26.233 54.4621 26.4663C56.007 28.6965 57.5139 31.0762 58.9643 33.5865C60.3775 36.0407 61.6597 38.5318 62.8296 41.0413C61.6435 43.5432 60.3451 46.0446 58.9348 48.4897ZM64.9824 46.0783C65.9841 48.5873 66.8361 51.0957 67.5388 53.5289C65.0873 54.1193 62.5052 54.6158 59.83 54.9999C60.7509 53.563 61.6719 52.0888 62.537 50.5769C63.402 49.0838 64.2109 47.5718 64.9824 46.0783ZM45.9572 65.9688C44.224 64.1681 42.4914 62.1616 40.7782 59.9683C42.4609 60.0485 44.181 60.1102 45.92 60.1158C47.6777 60.1215 49.4168 60.0897 51.1187 60.0018C49.4287 62.1841 47.6833 64.1792 45.9572 65.9688ZM32.0808 54.9101C29.4268 54.5088 26.8666 54.0144 24.419 53.4081C25.1186 50.9982 25.9868 48.514 26.9672 46.0302C27.729 47.5286 28.5283 49.0271 29.4023 50.5258C30.2763 52.0246 31.1691 53.486 32.0808 54.9101ZM46.0252 16.0423C47.7584 17.843 49.4909 19.8494 51.2041 22.0428C49.5214 21.9625 47.8013 21.9009 46.0623 21.8952C44.3046 21.8896 42.5655 21.9213 40.8636 22.0093C42.5536 19.827 44.2991 17.8318 46.0252 16.0423ZM32.1523 27.0112C31.2314 28.4481 30.3104 29.9223 29.4453 31.4342C28.5803 32.9273 27.7714 34.4206 26.9999 35.914C25.9983 33.4051 25.1463 30.8967 24.4436 28.4635C26.895 27.8918 29.4771 27.3952 32.1523 27.0112ZM15.154 50.3676C8.54375 47.5226 4.27366 43.8064 4.28316 40.8706C4.29266 37.9349 8.58676 34.2276 15.2153 31.4442C16.8256 30.7576 18.5853 30.1462 20.401 29.5724C21.455 33.2408 22.845 37.0599 24.5714 40.9737C22.8385 44.8575 21.4425 48.6489 20.3836 52.2918C18.5343 51.7061 16.7786 51.0647 15.154 50.3676ZM25.1276 77.1209C22.5893 75.6541 21.504 70.097 22.3873 62.9568C22.5987 61.1997 22.9412 59.3496 23.3587 57.4624C27.0208 58.3718 31.0201 59.0766 35.226 59.539C37.7391 63.0064 40.3468 66.1563 42.9745 68.9136C36.8603 74.5597 31.1284 77.6452 27.239 77.6326C26.3976 77.6112 25.6876 77.4406 25.1276 77.1209ZM69.5276 63.0158C70.3834 70.1616 69.2809 75.7117 66.7517 77.1807C66.1897 77.5155 65.4599 77.6627 64.5998 77.66C60.7291 77.6474 54.9985 74.5435 48.9209 68.8954C51.5476 66.1552 54.1755 63.0409 56.6737 59.5896C60.9011 59.1545 64.9049 58.4756 68.5729 57.5712C68.9968 59.4612 69.3276 61.2761 69.5276 63.0158ZM76.7671 50.5669C75.1567 51.2535 73.397 51.8649 71.5813 52.4387C70.5274 48.7703 69.1373 44.9511 67.4109 41.0374C69.1438 37.1536 70.5398 33.3622 71.5987 29.7193C73.4481 30.305 75.2037 30.9464 76.847 31.6436C83.4573 34.4885 87.7273 38.2048 87.7178 41.1405C87.6896 44.0762 83.3956 47.7834 76.7671 50.5669Z"></path>
<path fill="#61DAFB" d="M45.9538 49.5509C50.6733 49.5662 54.5115 45.7526 54.5268 41.0331C54.5421 36.3136 50.7285 32.4753 46.009 32.4601C41.2895 32.4448 37.4512 36.2583 37.436 40.9778C37.4207 45.6974 41.2342 49.5356 45.9538 49.5509Z"></path>
</svg>
