<svg width="105" height="62" viewBox="0 0 105 62" fill="none" xmlns="http://www.w3.org/2000/svg">
  <path fill-rule="evenodd" clip-rule="evenodd"
    d="M81.5 40L81.5 70L72.7903 70L72.7903 40L81.5 40ZM70.8549 40L70.8549 70L62.1452 70L62.1452 40L70.8549 40ZM60.2095 70L60.2095 40L51.4998 40L51.4998 70L60.2095 70Z"
    fill="#B5D2FB" />
  <path fill-rule="evenodd" clip-rule="evenodd"
    d="M17.2013 30.0629C15.3028 31.9614 15.3028 35.0394 17.2013 36.9378C19.0997 38.8363 22.1777 38.8363 24.0762 36.9378C25.9746 35.0394 25.9746 31.9614 24.0762 30.0629C22.1777 28.1645 19.0997 28.1645 17.2013 30.0629ZM9.56254 37.7013C7.66409 39.5998 7.66409 42.6777 9.56254 44.5762C11.461 46.4746 14.539 46.4746 16.4374 44.5762C18.3359 42.6777 18.3359 39.5998 16.4374 37.7013C14.539 35.8029 11.461 35.8029 9.56254 37.7013ZM9.56254 29.2987C7.66409 27.4003 7.66409 24.3223 9.56254 22.4238C11.461 20.5254 14.539 20.5254 16.4374 22.4238C18.3359 24.3223 18.3359 27.4003 16.4374 29.2987C14.539 31.1972 11.461 31.1972 9.56254 29.2987ZM1.92399 30.0629C0.0255408 31.9614 0.0255407 35.0394 1.92399 36.9378C3.82243 38.8363 6.90043 38.8363 8.79888 36.9378C10.6973 35.0394 10.6973 31.9614 8.79888 30.0629C6.90043 28.1645 3.82244 28.1645 1.92399 30.0629Z"
    fill="#B5D2FB" />
  <path
    d="M96.1024 23.5225C94.6996 24.9253 92.3872 24.8872 90.9375 23.4374C89.4877 21.9877 89.4497 19.6753 90.8524 18.2725L106.335 2.78997C107.738 1.38722 110.05 1.4253 111.5 2.87504C112.95 4.32478 112.988 6.63719 111.585 8.03994L96.1024 23.5225Z"
    fill="#B5D2FB" />
</svg>
  