<svg xmlns:xlink="http://www.w3.org/1999/xlink" xmlns="http://www.w3.org/2000/svg" width="20" height="20" class="icon" data-astro-cid-7kdedvnl="true" data-icon="discourse"><defs><symbol id="ai:local:discourse" viewBox="0 0 24 24" fill="#7E8792"><path fill="#7E8792" d="M12.103 0C18.666 0 24 5.485 24 11.997c0 6.51-5.33 11.99-11.9 11.99L0 24V11.79C0 5.28 5.532 0 12.103 0m.116 4.563a7.4 7.4 0 0 0-6.337 3.57 7.25 7.25 0 0 0-.148 7.22L4.4 19.61l4.794-1.074a7.42 7.42 0 0 0 8.136-1.39 7.26 7.26 0 0 0 1.737-7.997 7.375 7.375 0 0 0-6.84-4.585z"></path></symbol></defs>   <symbol id="ai:local:discourse" viewBox="0 0 24 24" fill="#7E8792"><path fill="#7E8792" d="M12.103 0C18.666 0 24 5.485 24 11.997c0 6.51-5.33 11.99-11.9 11.99L0 24V11.79C0 5.28 5.532 0 12.103 0m.116 4.563a7.4 7.4 0 0 0-6.337 3.57 7.25 7.25 0 0 0-.148 7.22L4.4 19.61l4.794-1.074a7.42 7.42 0 0 0 8.136-1.39 7.26 7.26 0 0 0 1.737-7.997 7.375 7.375 0 0 0-6.84-4.585z"></path></symbol><use href="#ai:local:discourse"></use>  </svg>