<svg xmlns:xlink="http://www.w3.org/1999/xlink" data-icon="comment" viewBox="0 0 64 64" fill="none" xmlns="http://www.w3.org/2000/svg" width="64"  height="64" ><path d="M15.4623 44.9025C17.0744 43.7277 19.1614 43.4278 21.0359 44.1027C24.3475 45.3024 28.0591 45.9897 32.0081 45.9897C47.5917 45.9897 58.0015 35.9295 58.0015 25.9942C58.0015 16.0589 47.5917 5.99866 32.0081 5.99866C16.4246 5.99866 6.01468 16.0589 6.01468 25.9942C6.01468 29.9933 7.56429 33.8424 10.4761 37.1417C11.5508 38.3539 12.0756 39.9536 11.9507 41.5782C11.7757 43.8402 11.2384 45.9148 10.5385 47.7518C12.663 46.7646 14.4251 45.6648 15.4623 44.915V44.9025ZM2.66553 49.9763C2.89048 49.6389 3.10292 49.3015 3.30287 48.9641C4.55255 46.8895 5.73975 44.1651 5.97719 41.1033C2.22814 36.8418 0.0162028 31.6304 0.0162028 25.9942C0.0162028 11.6349 14.3376 0 32.0081 0C49.6786 0 64 11.6349 64 25.9942C64 40.3535 49.6786 51.9884 32.0081 51.9884C27.3718 51.9884 22.9729 51.1886 18.9989 49.7514C17.5118 50.8387 15.0874 52.3258 12.2131 53.5755C10.3261 54.4004 8.17664 55.1502 5.9522 55.5876C5.85222 55.6126 5.75225 55.6251 5.65228 55.6501C5.10241 55.7501 4.56505 55.8375 4.00269 55.8875C3.9777 55.8875 3.94021 55.9 3.91522 55.9C3.27788 55.9625 2.64054 56 2.0032 56C1.19091 56 0.466089 55.5126 0.153668 54.7628C-0.158753 54.0129 0.0162028 53.1631 0.57856 52.5883C1.09093 52.0634 1.55331 51.501 1.9907 50.9011C2.20315 50.6137 2.4031 50.3263 2.59055 50.0388L2.62804 49.9763H2.66553Z" fill="#545A61"></path></svg>