<svg xmlns:xlink="http://www.w3.org/1999/xlink" data-icon="pageWithLines" viewBox="0 0 64 64" fill="none" xmlns="http://www.w3.org/2000/svg" width="64"  height="64" ><path d="M8 58C6.9 58 6 57.1 6 56V8C6 6.9 6.9 6 8 6H28V16C28 18.2125 29.7875 20 32 20H42V56C42 57.1 41.1 58 40 58H8ZM8 0C3.5875 0 0 3.5875 0 8V56C0 60.4125 3.5875 64 8 64H40C44.4125 64 48 60.4125 48 56V19.3125C48 17.1875 47.1625 15.15 45.6625 13.65L34.3375 2.3375C32.8375 0.8375 30.8125 0 28.6875 0H8ZM15 32C13.3375 32 12 33.3375 12 35C12 36.6625 13.3375 38 15 38H33C34.6625 38 36 36.6625 36 35C36 33.3375 34.6625 32 33 32H15ZM15 44C13.3375 44 12 45.3375 12 47C12 48.6625 13.3375 50 15 50H33C34.6625 50 36 48.6625 36 47C36 45.3375 34.6625 44 33 44H15Z" fill="#545A61"></path></svg>