<svg xmlns:xlink="http://www.w3.org/1999/xlink" data-icon="book" viewBox="0 0 64 64" fill="none" xmlns="http://www.w3.org/2000/svg" width="64"  height="64" ><path d="M0 11C0 4.925 4.925 0 11 0H49C52.8625 0 56 3.1375 56 7V43C56 45.7875 54.3625 48.2 52 49.325V58H53C54.6625 58 56 59.3375 56 61C56 62.6625 54.6625 64 53 64H10C4.475 64 0 59.525 0 54C0 53.6625 0.0125 53.325 0.05 53H0V11ZM10 50C7.7875 50 6 51.7875 6 54C6 56.2125 7.7875 58 10 58H46V50H10ZM6 44.8375C7.225 44.3 8.575 44 10 44H49C49.55 44 50 43.55 50 43V7C50 6.45 49.55 6 49 6H11C8.2375 6 6 8.2375 6 11V44.8375ZM19 14H41C42.6625 14 44 15.3375 44 17C44 18.6625 42.6625 20 41 20H19C17.3375 20 16 18.6625 16 17C16 15.3375 17.3375 14 19 14ZM19 24H41C42.6625 24 44 25.3375 44 27C44 28.6625 42.6625 30 41 30H19C17.3375 30 16 28.6625 16 27C16 25.3375 17.3375 24 19 24Z" fill="#545A61"></path></svg>