<svg xmlns:xlink="http://www.w3.org/1999/xlink" xmlns="http://www.w3.org/2000/svg"   aria-hidden="true" data-astro-cid-sdvpe5d5="true" data-icon="tanstack" width="30"  height="30" >   <symbol id="ai:local:tanstack" viewBox="0 0 30 30"><g fill="none"><defs><path id="b" fill="#fff" d="M15 30c8.284 0 15-6.716 15-15S23.284 0 15 0 0 6.716 0 15s6.716 15 15 15"></path><path id="b" fill="#fff" d="M15 30c8.284 0 15-6.716 15-15S23.284 0 15 0 0 6.716 0 15s6.716 15 15 15"></path><path id="b" fill="#fff" d="M15 30c8.284 0 15-6.716 15-15S23.284 0 15 0 0 6.716 0 15s6.716 15 15 15"></path><path id="b" fill="#fff" d="M15 30c8.284 0 15-6.716 15-15S23.284 0 15 0 0 6.716 0 15s6.716 15 15 15"></path><path id="b" fill="#fff" d="M15 30c8.284 0 15-6.716 15-15S23.284 0 15 0 0 6.716 0 15s6.716 15 15 15"></path><path id="b" fill="#fff" d="M15 30c8.284 0 15-6.716 15-15S23.284 0 15 0 0 6.716 0 15s6.716 15 15 15"></path><path id="b" fill="#fff" d="M15 30c8.284 0 15-6.716 15-15S23.284 0 15 0 0 6.716 0 15s6.716 15 15 15"></path><path id="b" fill="#fff" d="M15 30c8.284 0 15-6.716 15-15S23.284 0 15 0 0 6.716 0 15s6.716 15 15 15"></path><path id="b" fill="#fff" d="M15 30c8.284 0 15-6.716 15-15S23.284 0 15 0 0 6.716 0 15s6.716 15 15 15"></path><path id="b" fill="#fff" d="M15 30c8.284 0 15-6.716 15-15S23.284 0 15 0 0 6.716 0 15s6.716 15 15 15"></path><path id="b" fill="#fff" d="M15 30c8.284 0 15-6.716 15-15S23.284 0 15 0 0 6.716 0 15s6.716 15 15 15"></path><path id="b" fill="#fff" d="M15 30c8.284 0 15-6.716 15-15S23.284 0 15 0 0 6.716 0 15s6.716 15 15 15"></path><path id="b" fill="#fff" d="M15 30c8.284 0 15-6.716 15-15S23.284 0 15 0 0 6.716 0 15s6.716 15 15 15"></path><path id="b" fill="#fff" d="M15 30c8.284 0 15-6.716 15-15S23.284 0 15 0 0 6.716 0 15s6.716 15 15 15"></path><path id="b" fill="#fff" d="M15 30c8.284 0 15-6.716 15-15S23.284 0 15 0 0 6.716 0 15s6.716 15 15 15"></path><path id="b" fill="#fff" d="M15 30c8.284 0 15-6.716 15-15S23.284 0 15 0 0 6.716 0 15s6.716 15 15 15"></path><path id="b" fill="#fff" d="M15 30c8.284 0 15-6.716 15-15S23.284 0 15 0 0 6.716 0 15s6.716 15 15 15"></path><path id="b" fill="#fff" d="M15 30c8.284 0 15-6.716 15-15S23.284 0 15 0 0 6.716 0 15s6.716 15 15 15"></path><path id="b" fill="#fff" d="M15 30c8.284 0 15-6.716 15-15S23.284 0 15 0 0 6.716 0 15s6.716 15 15 15"></path><symbol id="ai:local:tanstack" viewBox="0 0 30 30"><g fill="none"><defs><path id="b" fill="#fff" d="M15 30c8.284 0 15-6.716 15-15S23.284 0 15 0 0 6.716 0 15s6.716 15 15 15"></path></defs><g clip-path="url(#a)" fill="none"><mask id="c" width="30" height="30" x="0" y="0" maskUnits="userSpaceOnUse" style="mask-type:luminance" fill="none"><use href="#b"></use></mask><g mask="url(#c)" fill="none"><path stroke="#545A61" stroke-width="1.185px" d="M9.74 20.847a11.9 11.9 0 0 0-5.498-1.32c-5.942 0-10.759 4.212-10.759 9.407" fill="none"></path></g><mask id="d" width="30" height="30" x="0" y="0" maskUnits="userSpaceOnUse" style="mask-type:luminance" fill="none"><use href="#b"></use></mask><g mask="url(#d)" fill="none"><path stroke="#545A61" stroke-width="1.185px" d="M8.185 21.98a12.1 12.1 0 0 0-3.943-.652c-5.942 0-10.759 4.212-10.759 9.407" fill="none"></path></g><mask id="e" width="30" height="30" x="0" y="0" maskUnits="userSpaceOnUse" style="mask-type:luminance" fill="none"><use href="#b"></use></mask><g mask="url(#e)" fill="none"><path stroke="#545A61" stroke-width="1.185px" d="M6.93 23.33c-.86-.193-1.76-.295-2.688-.295-5.942 0-10.759 4.21-10.759 9.406" fill="none"></path></g><mask id="f" width="30" height="30" x="0" y="0" maskUnits="userSpaceOnUse" style="mask-type:luminance" fill="none"><use href="#b"></use></mask><g mask="url(#f)" fill="none"><path stroke="#545A61" stroke-width="1.185px" d="M36.517 28.934c0-5.195-4.817-9.406-10.759-9.406-1.979 0-3.833.467-5.426 1.282" fill="none"></path></g><mask id="g" width="30" height="30" x="0" y="0" maskUnits="userSpaceOnUse" style="mask-type:luminance" fill="none"><use href="#b"></use></mask><g mask="url(#g)" fill="none"><path stroke="#545A61" stroke-width="1.185px" d="M36.517 30.735c0-5.195-4.817-9.407-10.759-9.407-1.412 0-2.76.238-3.996.67" fill="none"></path></g><mask id="h" width="30" height="30" x="0" y="0" maskUnits="userSpaceOnUse" style="mask-type:luminance" fill="none"><use href="#b"></use></mask><g mask="url(#h)" fill="none"><path stroke="#545A61" stroke-width="1.185px" d="M36.517 32.44c0-5.194-4.817-9.405-10.759-9.405-.886 0-1.747.093-2.57.27" fill="none"></path></g><mask id="i" width="30" height="30" x="0" y="0" maskUnits="userSpaceOnUse" style="mask-type:luminance" fill="none"><use href="#b"></use></mask><g mask="url(#i)" fill="none"><path stroke="#545A61" stroke-width="1.185px" d="M15 48.318c6.635 0 12.014-6.451 12.014-14.408S21.635 19.502 15 19.502 2.986 25.952 2.986 33.91 8.365 48.318 15 48.318Z" fill="none"></path></g><mask id="j" width="30" height="30" x="0" y="0" maskUnits="userSpaceOnUse" style="mask-type:luminance" fill="none"><use href="#b"></use></mask><g mask="url(#j)" fill="none"><path stroke="#545A61" stroke-width="1.09px" d="M26.8 9.076a4.834 4.834 0 1 0 0-9.669 4.834 4.834 0 0 0 0 9.669Z" fill="none"></path></g><mask id="k" width="30" height="30" x="0" y="0" maskUnits="userSpaceOnUse" style="mask-type:luminance" fill="none"><use href="#b"></use></mask><g mask="url(#k)" fill="none"><path fill="#545A61" d="M20.284 4.17a.284.284 0 1 1 0 .57h-1.421a.284.284 0 0 1 0-.57z"></path></g><mask id="l" width="30" height="30" x="0" y="0" maskUnits="userSpaceOnUse" style="mask-type:luminance" fill="none"><use href="#b"></use></mask><g mask="url(#l)" fill="none"><path fill="#545A61" d="M18.774 2.738a.284.284 0 0 1 .336-.22l1.256.26a.284.284 0 0 1-.116.557l-1.256-.26a.284.284 0 0 1-.22-.337"></path></g><mask id="m" width="30" height="30" x="0" y="0" maskUnits="userSpaceOnUse" style="mask-type:luminance" fill="none"><use href="#b"></use></mask><g mask="url(#m)" fill="none"><path fill="#545A61" d="M20.35 5.697a.284.284 0 1 1 .152.549l-1.374.379a.284.284 0 1 1-.151-.548l1.374-.38Z"></path></g><mask id="n" width="30" height="30" x="0" y="0" maskUnits="userSpaceOnUse" style="mask-type:luminance" fill="none"><use href="#b"></use></mask><g mask="url(#n)" fill="none"><path fill="#545A61" d="M20.955 7.238a.284.284 0 0 1 .27.5l-1.137.616a.284.284 0 1 1-.27-.5z"></path></g><mask id="o" width="30" height="30" x="0" y="0" maskUnits="userSpaceOnUse" style="mask-type:luminance" fill="none"><use href="#b"></use></mask><g mask="url(#o)" fill="none"><path fill="#545A61" d="M21.842 8.467a.284.284 0 0 1 .392.412l-.948.9a.284.284 0 1 1-.392-.412z"></path></g><mask id="p" width="30" height="30" x="0" y="0" maskUnits="userSpaceOnUse" style="mask-type:luminance" fill="none"><use href="#b"></use></mask><g mask="url(#p)" fill="none"><path fill="#545A61" d="M23.092 9.52a.284.284 0 1 1 .486.295l-.655 1.083a.284.284 0 1 1-.487-.294z"></path></g><mask id="q" width="30" height="30" x="0" y="0" maskUnits="userSpaceOnUse" style="mask-type:luminance" fill="none"><use href="#b"></use></mask><g mask="url(#q)" fill="none"><path fill="#545A61" d="M24.728 10.367a.284.284 0 1 1 .544.166l-.356 1.162a.284.284 0 1 1-.543-.167z"></path></g><mask id="r" width="30" height="30" x="0" y="0" maskUnits="userSpaceOnUse" style="mask-type:luminance" fill="none"><use href="#b"></use></mask><g mask="url(#r)" fill="none"><path fill="#545A61" d="M26.795 10.498a.284.284 0 0 1 .29.278l.024 1.161a.284.284 0 0 1-.569.012l-.023-1.161a.284.284 0 0 1 .278-.29"></path></g><path stroke="#545A61" stroke-width="1.185px" d="M15 29.408c7.957 0 14.408-6.45 14.408-14.408S22.958.592 15 .592.592 7.042.592 15 7.042 29.408 15 29.408Z" fill="none"></path><mask id="s" width="30" height="30" x="0" y="0" maskUnits="userSpaceOnUse" style="mask-type:luminance" fill="none"><use href="#b"></use></mask><g mask="url(#s)" fill="none"><path fill="#545A61" fill-rule="evenodd" d="M10.615 9.113c.413 1.748.493 1.698.877 4.802s.137 3.865 0 5.871l2.463-.538c-.77-2.78-.95-3.97-1.533-6.175q-.584-2.205-1.322-3.96-.21-.552-.36-.535-.192.022-.125.535" clip-rule="evenodd"></path><path fill="#545A61" d="m14.066 5.024-.099.308a6.2 6.2 0 0 1-.472 1.127l-.016.028h.003a3.9 3.9 0 0 1 1.668.23l.038.013c1.587.587 2.47 1.62 2.61 3.077l.031.327-.322-.063-2.224-.434-.03-.006.026.032a6.5 6.5 0 0 1 1.467 3.466l.005.046.04.362-.35-.1c-1.882-.533-3.23-1.266-4.04-2.208a19 19 0 0 1-1.594-2.145l-.026-.04v.023q-.04 1.71-.313 2.768l-.008.031c-.237.898-1.035 2.274-2.397 4.15l-.292.402-.142-.477q-.67-2.266-.376-4.173l.003-.024q-.835.752-2.06 1.809l-.045.04-.396.34-.01-.522c-.046-2.439.53-4.061 1.754-4.84q.334-.21.705-.36l.028-.01-.01-.006a7 7 0 0 1-1.078-.878l-.032-.03-.237-.23.288-.161c1.063-.59 2.004-.746 2.813-.448.442.162.83.43 1.167.768q.1.102.19.206l.02.025.005-.023c.133-.743.49-1.316 1.071-1.707l.023-.015q1.111-.729 2.29-.69zm-5.26 1.884c-.585-.216-1.282-.134-2.097.257l-.007.003.016.014q.679.612 1.207.836l.022.01.67.277-.7.186a4 4 0 0 0-1.155.495c-.967.614-1.483 1.901-1.526 3.883v.001l.036-.03q1.37-1.19 2.192-1.946l.025-.024.637-.586-.235.833-.029.11q-.461 1.821.096 4.056l.007.028.01-.013c1.128-1.593 1.797-2.775 2.004-3.532l.007-.025q.316-1.195.311-3.353v-.012l-.146-.393-.024-.032a4 4 0 0 0-.301-.358l-.031-.031a2.7 2.7 0 0 0-.988-.654Zm4.582-1.399h-.002q-.844.064-1.665.603c-.543.356-.849.907-.918 1.672l-.001.019.057.417q1.195 1.844 1.854 2.619l.06.07q1.03 1.2 3.432 1.947l.008.003-.002-.012c-.21-1.254-.77-2.35-1.688-3.293l-.03-.032-.102-.1-.612-.583.829.165q.963.191 2.611.512l.043.008c-.212-1.073-.937-1.84-2.202-2.318l-.042-.016a3.43 3.43 0 0 0-1.998-.136l-.69.159.444-.552q.338-.42.605-1.127l.01-.025Z"></path><path stroke="#545A61" stroke-linecap="round" stroke-width="0.28px" d="M10.615 8.071q-1.091 1.491-1.537 2.748-.447 1.256-.596 2.106m2.133-4.854q-1.408.963-1.91 1.48-.501.516-1.17 1.692" fill="none"></path><path stroke="#545A61" stroke-linecap="round" stroke-width="0.28px" d="M10.535 8.227q-1.735-.296-2.769.576a5.1 5.1 0 0 0-1.502 2.09m4.477-2.863q.942-.938 2.41-.938t2.635 1.387M10.62 8.03q1.643.731 2.564 1.449a5.8 5.8 0 0 1 1.483 1.707" fill="none"></path><path stroke="#545A61" stroke-linecap="round" stroke-width="0.28px" d="M10.62 8.078q1.69.053 2.694.5 1.003.448 1.963 1.435" fill="none"></path></g><mask id="t" width="30" height="30" x="0" y="0" maskUnits="userSpaceOnUse" style="mask-type:luminance" fill="none"><use href="#b"></use></mask><g stroke="#545A61" stroke-linecap="round" stroke-linejoin="bevel" stroke-width="0.377px" mask="url(#t)" fill="none"><path d="m16.978 17.616 3.333.588q.296.109.242.413-.053.303-.374.336l-3.616-.637-1.961-2.022q-.164-.249.026-.438c.19-.189.282-.15.466-.072z" clip-rule="evenodd" stroke="#545A61" fill="none" stroke-width="0.377px"></path><path d="m20.115 18.99-1.032.692M15.832 17.6l-1.11 1.663m1.897-.913.822 1.128m2.409-1.129.07-.345m-1.196.174.077-.374m-1.203.172.11-.377m-1.408-.383.224-.224m-.94-.458.248-.266" stroke="#545A61" fill="none" stroke-width="0.377px"></path></g></g><defs><clipPath id="a"><path fill="#fff" d="M0 0h30v30H0z"></path></clipPath></defs></g></symbol></defs><g clip-path="url(#a)" fill="none"><mask id="c" width="30" height="30" x="0" y="0" maskUnits="userSpaceOnUse" style="mask-type:luminance" fill="none"><use href="#b"></use></mask><g mask="url(#c)" fill="none"><path stroke="#545A61" stroke-width="1.185px" d="M9.74 20.847a11.9 11.9 0 0 0-5.498-1.32c-5.942 0-10.759 4.212-10.759 9.407" fill="none"></path></g><mask id="d" width="30" height="30" x="0" y="0" maskUnits="userSpaceOnUse" style="mask-type:luminance" fill="none"><use href="#b"></use></mask><g mask="url(#d)" fill="none"><path stroke="#545A61" stroke-width="1.185px" d="M8.185 21.98a12.1 12.1 0 0 0-3.943-.652c-5.942 0-10.759 4.212-10.759 9.407" fill="none"></path></g><mask id="e" width="30" height="30" x="0" y="0" maskUnits="userSpaceOnUse" style="mask-type:luminance" fill="none"><use href="#b"></use></mask><g mask="url(#e)" fill="none"><path stroke="#545A61" stroke-width="1.185px" d="M6.93 23.33c-.86-.193-1.76-.295-2.688-.295-5.942 0-10.759 4.21-10.759 9.406" fill="none"></path></g><mask id="f" width="30" height="30" x="0" y="0" maskUnits="userSpaceOnUse" style="mask-type:luminance" fill="none"><use href="#b"></use></mask><g mask="url(#f)" fill="none"><path stroke="#545A61" stroke-width="1.185px" d="M36.517 28.934c0-5.195-4.817-9.406-10.759-9.406-1.979 0-3.833.467-5.426 1.282" fill="none"></path></g><mask id="g" width="30" height="30" x="0" y="0" maskUnits="userSpaceOnUse" style="mask-type:luminance" fill="none"><use href="#b"></use></mask><g mask="url(#g)" fill="none"><path stroke="#545A61" stroke-width="1.185px" d="M36.517 30.735c0-5.195-4.817-9.407-10.759-9.407-1.412 0-2.76.238-3.996.67" fill="none"></path></g><mask id="h" width="30" height="30" x="0" y="0" maskUnits="userSpaceOnUse" style="mask-type:luminance" fill="none"><use href="#b"></use></mask><g mask="url(#h)" fill="none"><path stroke="#545A61" stroke-width="1.185px" d="M36.517 32.44c0-5.194-4.817-9.405-10.759-9.405-.886 0-1.747.093-2.57.27" fill="none"></path></g><mask id="i" width="30" height="30" x="0" y="0" maskUnits="userSpaceOnUse" style="mask-type:luminance" fill="none"><use href="#b"></use></mask><g mask="url(#i)" fill="none"><path stroke="#545A61" stroke-width="1.185px" d="M15 48.318c6.635 0 12.014-6.451 12.014-14.408S21.635 19.502 15 19.502 2.986 25.952 2.986 33.91 8.365 48.318 15 48.318Z" fill="none"></path></g><mask id="j" width="30" height="30" x="0" y="0" maskUnits="userSpaceOnUse" style="mask-type:luminance" fill="none"><use href="#b"></use></mask><g mask="url(#j)" fill="none"><path stroke="#545A61" stroke-width="1.09px" d="M26.8 9.076a4.834 4.834 0 1 0 0-9.669 4.834 4.834 0 0 0 0 9.669Z" fill="none"></path></g><mask id="k" width="30" height="30" x="0" y="0" maskUnits="userSpaceOnUse" style="mask-type:luminance" fill="none"><use href="#b"></use></mask><g mask="url(#k)" fill="none"><path fill="#545A61" d="M20.284 4.17a.284.284 0 1 1 0 .57h-1.421a.284.284 0 0 1 0-.57z"></path></g><mask id="l" width="30" height="30" x="0" y="0" maskUnits="userSpaceOnUse" style="mask-type:luminance" fill="none"><use href="#b"></use></mask><g mask="url(#l)" fill="none"><path fill="#545A61" d="M18.774 2.738a.284.284 0 0 1 .336-.22l1.256.26a.284.284 0 0 1-.116.557l-1.256-.26a.284.284 0 0 1-.22-.337"></path></g><mask id="m" width="30" height="30" x="0" y="0" maskUnits="userSpaceOnUse" style="mask-type:luminance" fill="none"><use href="#b"></use></mask><g mask="url(#m)" fill="none"><path fill="#545A61" d="M20.35 5.697a.284.284 0 1 1 .152.549l-1.374.379a.284.284 0 1 1-.151-.548l1.374-.38Z"></path></g><mask id="n" width="30" height="30" x="0" y="0" maskUnits="userSpaceOnUse" style="mask-type:luminance" fill="none"><use href="#b"></use></mask><g mask="url(#n)" fill="none"><path fill="#545A61" d="M20.955 7.238a.284.284 0 0 1 .27.5l-1.137.616a.284.284 0 1 1-.27-.5z"></path></g><mask id="o" width="30" height="30" x="0" y="0" maskUnits="userSpaceOnUse" style="mask-type:luminance" fill="none"><use href="#b"></use></mask><g mask="url(#o)" fill="none"><path fill="#545A61" d="M21.842 8.467a.284.284 0 0 1 .392.412l-.948.9a.284.284 0 1 1-.392-.412z"></path></g><mask id="p" width="30" height="30" x="0" y="0" maskUnits="userSpaceOnUse" style="mask-type:luminance" fill="none"><use href="#b"></use></mask><g mask="url(#p)" fill="none"><path fill="#545A61" d="M23.092 9.52a.284.284 0 1 1 .486.295l-.655 1.083a.284.284 0 1 1-.487-.294z"></path></g><mask id="q" width="30" height="30" x="0" y="0" maskUnits="userSpaceOnUse" style="mask-type:luminance" fill="none"><use href="#b"></use></mask><g mask="url(#q)" fill="none"><path fill="#545A61" d="M24.728 10.367a.284.284 0 1 1 .544.166l-.356 1.162a.284.284 0 1 1-.543-.167z"></path></g><mask id="r" width="30" height="30" x="0" y="0" maskUnits="userSpaceOnUse" style="mask-type:luminance" fill="none"><use href="#b"></use></mask><g mask="url(#r)" fill="none"><path fill="#545A61" d="M26.795 10.498a.284.284 0 0 1 .29.278l.024 1.161a.284.284 0 0 1-.569.012l-.023-1.161a.284.284 0 0 1 .278-.29"></path></g><path stroke="#545A61" stroke-width="1.185px" d="M15 29.408c7.957 0 14.408-6.45 14.408-14.408S22.958.592 15 .592.592 7.042.592 15 7.042 29.408 15 29.408Z" fill="none"></path><mask id="s" width="30" height="30" x="0" y="0" maskUnits="userSpaceOnUse" style="mask-type:luminance" fill="none"><use href="#b"></use></mask><g mask="url(#s)" fill="none"><path fill="#545A61" fill-rule="evenodd" d="M10.615 9.113c.413 1.748.493 1.698.877 4.802s.137 3.865 0 5.871l2.463-.538c-.77-2.78-.95-3.97-1.533-6.175q-.584-2.205-1.322-3.96-.21-.552-.36-.535-.192.022-.125.535" clip-rule="evenodd"></path><path fill="#545A61" d="m14.066 5.024-.099.308a6.2 6.2 0 0 1-.472 1.127l-.016.028h.003a3.9 3.9 0 0 1 1.668.23l.038.013c1.587.587 2.47 1.62 2.61 3.077l.031.327-.322-.063-2.224-.434-.03-.006.026.032a6.5 6.5 0 0 1 1.467 3.466l.005.046.04.362-.35-.1c-1.882-.533-3.23-1.266-4.04-2.208a19 19 0 0 1-1.594-2.145l-.026-.04v.023q-.04 1.71-.313 2.768l-.008.031c-.237.898-1.035 2.274-2.397 4.15l-.292.402-.142-.477q-.67-2.266-.376-4.173l.003-.024q-.835.752-2.06 1.809l-.045.04-.396.34-.01-.522c-.046-2.439.53-4.061 1.754-4.84q.334-.21.705-.36l.028-.01-.01-.006a7 7 0 0 1-1.078-.878l-.032-.03-.237-.23.288-.161c1.063-.59 2.004-.746 2.813-.448.442.162.83.43 1.167.768q.1.102.19.206l.02.025.005-.023c.133-.743.49-1.316 1.071-1.707l.023-.015q1.111-.729 2.29-.69zm-5.26 1.884c-.585-.216-1.282-.134-2.097.257l-.007.003.016.014q.679.612 1.207.836l.022.01.67.277-.7.186a4 4 0 0 0-1.155.495c-.967.614-1.483 1.901-1.526 3.883v.001l.036-.03q1.37-1.19 2.192-1.946l.025-.024.637-.586-.235.833-.029.11q-.461 1.821.096 4.056l.007.028.01-.013c1.128-1.593 1.797-2.775 2.004-3.532l.007-.025q.316-1.195.311-3.353v-.012l-.146-.393-.024-.032a4 4 0 0 0-.301-.358l-.031-.031a2.7 2.7 0 0 0-.988-.654Zm4.582-1.399h-.002q-.844.064-1.665.603c-.543.356-.849.907-.918 1.672l-.001.019.057.417q1.195 1.844 1.854 2.619l.06.07q1.03 1.2 3.432 1.947l.008.003-.002-.012c-.21-1.254-.77-2.35-1.688-3.293l-.03-.032-.102-.1-.612-.583.829.165q.963.191 2.611.512l.043.008c-.212-1.073-.937-1.84-2.202-2.318l-.042-.016a3.43 3.43 0 0 0-1.998-.136l-.69.159.444-.552q.338-.42.605-1.127l.01-.025Z"></path><path stroke="#545A61" stroke-linecap="round" stroke-width="0.28px" d="M10.615 8.071q-1.091 1.491-1.537 2.748-.447 1.256-.596 2.106m2.133-4.854q-1.408.963-1.91 1.48-.501.516-1.17 1.692" fill="none"></path><path stroke="#545A61" stroke-linecap="round" stroke-width="0.28px" d="M10.535 8.227q-1.735-.296-2.769.576a5.1 5.1 0 0 0-1.502 2.09m4.477-2.863q.942-.938 2.41-.938t2.635 1.387M10.62 8.03q1.643.731 2.564 1.449a5.8 5.8 0 0 1 1.483 1.707" fill="none"></path><path stroke="#545A61" stroke-linecap="round" stroke-width="0.28px" d="M10.62 8.078q1.69.053 2.694.5 1.003.448 1.963 1.435" fill="none"></path></g><mask id="t" width="30" height="30" x="0" y="0" maskUnits="userSpaceOnUse" style="mask-type:luminance" fill="none"><use href="#b"></use></mask><g stroke="#545A61" stroke-linecap="round" stroke-linejoin="bevel" stroke-width="0.377px" mask="url(#t)" fill="none"><path d="m16.978 17.616 3.333.588q.296.109.242.413-.053.303-.374.336l-3.616-.637-1.961-2.022q-.164-.249.026-.438c.19-.189.282-.15.466-.072z" clip-rule="evenodd" stroke="#545A61" fill="none" stroke-width="0.377px"></path><path d="m20.115 18.99-1.032.692M15.832 17.6l-1.11 1.663m1.897-.913.822 1.128m2.409-1.129.07-.345m-1.196.174.077-.374m-1.203.172.11-.377m-1.408-.383.224-.224m-.94-.458.248-.266" stroke="#545A61" fill="none" stroke-width="0.377px"></path></g></g><defs><clipPath id="a"><path fill="#fff" d="M0 0h30v30H0z"></path></clipPath></defs></g></symbol><use href="#ai:local:tanstack"></use>  </svg>