<svg xmlns:xlink="http://www.w3.org/1999/xlink" xmlns="http://www.w3.org/2000/svg"   class="icon" data-astro-cid-bthvj2cz="true" data-icon="browser" width="1"  height="1" ><defs><symbol id="ai:local:browser" viewBox="0 0 512 512" fill="#FFFFFF"><path fill="#FFFFFF" d="M.3 89.5C.1 91.6 0 93.8 0 96v320c0 35.3 28.7 64 64 64h384c35.3 0 64-28.7 64-64V96c0-35.3-28.7-64-64-64H64c-2.2 0-4.4.1-6.5.3-9.2.9-17.8 3.8-25.5 8.2-10.2 6-18.6 14.6-24.3 25-3.9 7.3-6.5 15.4-7.4 24M48 160h416v256c0 8.8-7.2 16-16 16H64c-8.8 0-16-7.2-16-16z"></path></symbol></defs>   <symbol id="ai:local:browser" viewBox="0 0 512 512" fill="#FFFFFF"><path fill="#FFFFFF" d="M.3 89.5C.1 91.6 0 93.8 0 96v320c0 35.3 28.7 64 64 64h384c35.3 0 64-28.7 64-64V96c0-35.3-28.7-64-64-64H64c-2.2 0-4.4.1-6.5.3-9.2.9-17.8 3.8-25.5 8.2-10.2 6-18.6 14.6-24.3 25-3.9 7.3-6.5 15.4-7.4 24M48 160h416v256c0 8.8-7.2 16-16 16H64c-8.8 0-16-7.2-16-16z"></path></symbol><use href="#ai:local:browser"></use>  </svg>