<svg xmlns:xlink="http://www.w3.org/1999/xlink" xmlns="http://www.w3.org/2000/svg"   aria-hidden="true" data-astro-cid-sdvpe5d5="true" data-icon="nuxtjs" width="1"  height="1" ><defs><symbol id="ai:local:nuxtjs" viewBox="0 0 24 24"><path fill="#545A61" d="M13.464 19.83h8.922c.283 0 .562-.073.807-.21a1.6 1.6 0 0 0 .591-.574 1.53 1.53 0 0 0 .216-.783 1.53 1.53 0 0 0-.217-.782L17.792 7.414a1.6 1.6 0 0 0-.591-.573 1.65 1.65 0 0 0-.807-.21c-.283 0-.562.073-.807.21a1.6 1.6 0 0 0-.59.573L13.463 9.99 10.47 4.953a1.6 1.6 0 0 0-.591-.573 1.65 1.65 0 0 0-.807-.21c-.284 0-.562.073-.807.21a1.6 1.6 0 0 0-.591.573L.216 17.481a1.53 1.53 0 0 0-.217.782c0 .275.074.545.216.783a1.6 1.6 0 0 0 .59.574c.246.137.525.21.808.21h5.6c2.22 0 3.856-.946 4.982-2.79l2.733-4.593 1.464-2.457 4.395 7.382h-5.859Zm-6.341-2.46-3.908-.002 5.858-9.842 2.923 4.921-1.957 3.29c-.748 1.196-1.597 1.632-2.916 1.632"></path></symbol></defs>   <symbol id="ai:local:nuxtjs" viewBox="0 0 24 24"><path fill="#545A61" d="M13.464 19.83h8.922c.283 0 .562-.073.807-.21a1.6 1.6 0 0 0 .591-.574 1.53 1.53 0 0 0 .216-.783 1.53 1.53 0 0 0-.217-.782L17.792 7.414a1.6 1.6 0 0 0-.591-.573 1.65 1.65 0 0 0-.807-.21c-.283 0-.562.073-.807.21a1.6 1.6 0 0 0-.59.573L13.463 9.99 10.47 4.953a1.6 1.6 0 0 0-.591-.573 1.65 1.65 0 0 0-.807-.21c-.284 0-.562.073-.807.21a1.6 1.6 0 0 0-.591.573L.216 17.481a1.53 1.53 0 0 0-.217.782c0 .275.074.545.216.783a1.6 1.6 0 0 0 .59.574c.246.137.525.21.808.21h5.6c2.22 0 3.856-.946 4.982-2.79l2.733-4.593 1.464-2.457 4.395 7.382h-5.859Zm-6.341-2.46-3.908-.002 5.858-9.842 2.923 4.921-1.957 3.29c-.748 1.196-1.597 1.632-2.916 1.632"></path></symbol><use href="#ai:local:nuxtjs"></use>  </svg>