<svg xmlns:xlink="http://www.w3.org/1999/xlink" data-icon="sparkles" viewBox="0 0 64 64" fill="none" xmlns="http://www.w3.org/2000/svg" width="64"  height="64" ><path d="M45.264 17.719L37.08 15.439C35.64 14.987 35.64 13.011 37.08 12.631L45.264 10.275C45.4922 10.1958 45.6994 10.0656 45.8699 9.89446C46.0404 9.72329 46.1697 9.51555 46.248 9.287L48.6 1.083C49.052 -0.361 51.024 -0.361 51.4 1.083L53.676 9.287C53.7543 9.51555 53.8836 9.72329 54.0541 9.89446C54.2246 10.0656 54.4318 10.1958 54.66 10.275L62.92 12.635C64.36 13.087 64.36 15.063 62.92 15.443L54.736 17.723C54.5078 17.8022 54.3006 17.9324 54.1301 18.1035C53.9596 18.2747 53.8303 18.4824 53.752 18.711L51.4 26.915C50.948 28.359 48.976 28.359 48.6 26.915L46.248 18.711C46.1694 18.4826 46.0401 18.275 45.8696 18.1039C45.6992 17.9327 45.4921 17.8025 45.264 17.723V17.719ZM29.36 33.663L42.348 37.615C44.536 38.271 44.536 41.643 42.424 42.383L29.436 46.335C29.0506 46.4707 28.7043 46.6988 28.4274 46.9994C28.1506 47.2999 27.9516 47.6637 27.848 48.059L24.224 62.211C24.1201 62.7151 23.8456 63.1679 23.4466 63.4931C23.0476 63.8182 22.5487 63.9958 22.034 63.9958C21.5193 63.9958 21.0204 63.8182 20.6214 63.4931C20.2224 63.1679 19.9479 62.7151 19.844 62.211L16.22 48.059C16.1164 47.6637 15.9174 47.2999 15.6406 46.9994C15.3637 46.6988 15.0174 46.4707 14.632 46.335L1.644 42.383C-0.548 41.727 -0.548 38.271 1.644 37.615L14.556 33.663C14.9414 33.5273 15.2877 33.2992 15.5646 32.9986C15.8414 32.6981 16.0404 32.3343 16.144 31.939L19.768 17.787C19.8719 17.2829 20.1464 16.8301 20.5454 16.5049C20.9444 16.1798 21.4433 16.0022 21.958 16.0022C22.4727 16.0022 22.9716 16.1798 23.3706 16.5049C23.7696 16.8301 24.0441 17.2829 24.148 17.787L27.772 31.939C28 32.759 28.604 33.419 29.36 33.663Z" fill="#545A61"></path></svg>