<svg xmlns:xlink="http://www.w3.org/1999/xlink" data-icon="bluesky" viewBox="0 0 64 64" fill="none" xmlns="http://www.w3.org/2000/svg" width="64"  height="64" ><path d="M13.975 7.77494C21.275 13.2374 29.125 24.3374 32 30.2999C34.875 24.3499 42.725 13.2499 50.025 7.77494C55.2875 3.82494 63.8125 0.77494 63.8125 10.4999C63.8125 12.4374 62.7 26.8124 62.05 29.1499C59.775 37.2499 51.5 39.3249 44.1375 38.0624C57 40.2499 60.275 47.4999 53.2 54.7499C39.775 68.5249 33.9125 51.2999 32.4125 46.8874C32.2 46.2749 32.0875 45.9124 32 45.9124C31.9125 45.9124 31.8 46.2874 31.5875 46.8874C30.0875 51.2999 24.2125 68.5249 10.8 54.7499C3.7375 47.4999 7 40.2499 19.8625 38.0624C12.5 39.3249 4.225 37.2499 1.9625 29.1374C1.3 26.7999 0.1875 12.4249 0.1875 10.4874C0.1875 0.76244 8.7125 3.81244 13.975 7.76244V7.77494Z" fill="#545A61"></path></svg>