<svg xmlns:xlink="http://www.w3.org/1999/xlink" width="870" height="440" viewBox="0 0 870 440" fill="none" xmlns="http://www.w3.org/2000/svg" data-astro-cid-65apewjt=""> <defs data-astro-cid-65apewjt=""> <g id="deploy-log-badge-progress" data-astro-cid-65apewjt=""> <g class="icon-badge" data-astro-cid-65apewjt=""> <rect x="19.4238" width="67.0417" height="16.0208" rx="4.53125" fill="#FDF5D8" data-astro-cid-65apewjt=""></rect> <path d="M23.6426 11.5104H25.2017V4.06079H23.6426V11.5104Z" fill="#603408" data-astro-cid-65apewjt=""></path> <path fill-rule="evenodd" clip-rule="evenodd" d="M39.4809 4.06079H36.373V11.5104H37.9321V9.1614H39.4035C40.9729 9.1614 42.0622 8.13921 42.0622 6.62142C42.0622 5.08298 41.0142 4.06079 39.4809 4.06079ZM37.9321 7.93787V5.2998H39.0679C39.9662 5.2998 40.4773 5.75927 40.4773 6.62658C40.4773 7.47324 39.9559 7.93787 39.0627 7.93787H37.9321Z" fill="#603408" data-astro-cid-65apewjt=""></path> <path fill-rule="evenodd" clip-rule="evenodd" d="M47.5391 8.66594C47.5391 10.5193 48.5922 11.6293 50.3423 11.6293C52.0924 11.6293 53.1456 10.5245 53.1456 8.66594C53.1456 6.82291 52.077 5.70264 50.3423 5.70264C48.6077 5.70264 47.5391 6.82807 47.5391 8.66594ZM51.602 8.66594C51.602 9.79138 51.1425 10.4419 50.3423 10.4419C49.537 10.4419 49.0827 9.79138 49.0827 8.66594C49.0827 7.55083 49.5421 6.89519 50.3423 6.89519C51.1374 6.89519 51.602 7.55083 51.602 8.66594Z" fill="#603408" data-astro-cid-65apewjt=""></path> <path fill-rule="evenodd" clip-rule="evenodd" d="M69.3503 9.90496H70.7494C70.5274 10.9633 69.5413 11.6293 68.1474 11.6293C66.4128 11.6293 65.3906 10.5348 65.3906 8.69692C65.3906 6.84872 66.4335 5.70264 68.1268 5.70264C69.8046 5.70264 70.7958 6.77645 70.7958 8.57302V9.02216H66.8878V9.0996C66.9084 9.96691 67.404 10.509 68.1887 10.509C68.7824 10.509 69.1903 10.2921 69.3503 9.90496ZM68.1319 6.82291C67.435 6.82291 66.9446 7.32368 66.8929 8.08774H69.3193C69.2884 7.30819 68.834 6.82291 68.1319 6.82291Z" fill="#603408" data-astro-cid-65apewjt=""></path> <path d="M74.2707 5.70264C72.851 5.70264 71.9011 6.42023 71.9011 7.48372C71.9011 8.35619 72.438 8.87761 73.5428 9.12025L74.5753 9.35256C75.0761 9.46614 75.2929 9.64167 75.2929 9.93077C75.2929 10.3076 74.8902 10.5658 74.3069 10.5658C73.708 10.5658 73.3415 10.3335 73.2279 9.9411H71.7617C71.865 11.0149 72.7736 11.6293 74.2759 11.6293C75.7679 11.6293 76.7849 10.8962 76.7849 9.77073C76.7849 8.92407 76.2893 8.45944 75.1845 8.2168L74.1158 7.98449C73.5893 7.86575 73.3466 7.68506 73.3466 7.39596C73.3466 7.02425 73.7441 6.77129 74.281 6.77129C74.8386 6.77129 75.1845 7.0036 75.2619 7.38047H76.6507C76.5681 6.30666 75.7162 5.70264 74.2707 5.70264Z" fill="#603408" data-astro-cid-65apewjt=""></path> <path d="M80.1555 5.70264C78.7358 5.70264 77.7859 6.42023 77.7859 7.48372C77.7859 8.35619 78.3228 8.87761 79.4276 9.12025L80.4601 9.35256C80.9608 9.46614 81.1777 9.64167 81.1777 9.93077C81.1777 10.3076 80.775 10.5658 80.1916 10.5658C79.5928 10.5658 79.2262 10.3335 79.1127 9.9411H77.6465C77.7497 11.0149 78.6583 11.6293 80.1607 11.6293C81.6526 11.6293 82.6697 10.8962 82.6697 9.77073C82.6697 8.92407 82.174 8.45944 81.0693 8.2168L80.0006 7.98449C79.474 7.86575 79.2314 7.68506 79.2314 7.39596C79.2314 7.02425 79.6289 6.77129 80.1658 6.77129C80.7234 6.77129 81.0693 7.0036 81.1467 7.38047H82.5354C82.4528 6.30666 81.601 5.70264 80.1555 5.70264Z" fill="#603408" data-astro-cid-65apewjt=""></path> <path d="M61.1992 5.82632V11.5103H62.7015V8.33016C62.7015 7.52997 63.2642 7.03953 64.0851 7.03953C64.3277 7.03953 64.6788 7.08083 64.7975 7.12213V5.80051C64.6685 5.75921 64.4155 5.7334 64.209 5.7334C63.4862 5.7334 62.8977 6.16189 62.748 6.72977H62.6551V5.82632H61.1992Z" fill="#603408" data-astro-cid-65apewjt=""></path> <path fill-rule="evenodd" clip-rule="evenodd" d="M56.8833 13.6631C55.3707 13.6631 54.3692 13.0074 54.2763 12.0111H55.7631C55.8405 12.3724 56.2638 12.5996 56.9143 12.5996C57.7197 12.5996 58.1895 12.2176 58.1895 11.5619V10.5036H58.0965C57.7816 11.1025 57.1828 11.4277 56.3826 11.4277C54.9629 11.4277 54.0801 10.3229 54.0801 8.61927C54.0801 6.85884 54.968 5.7334 56.4136 5.7334C57.1828 5.7334 57.8384 6.11543 58.143 6.73493H58.2359V5.82632H59.6918V11.5C59.6918 12.8268 58.6025 13.6631 56.8833 13.6631ZM56.904 10.2764C57.7197 10.2764 58.205 9.63629 58.205 8.61411C58.205 7.59192 57.7145 6.95176 56.904 6.95176C56.0935 6.95176 55.6237 7.59192 55.6237 8.61411C55.6237 9.63629 56.0883 10.2764 56.904 10.2764Z" fill="#603408" data-astro-cid-65apewjt=""></path> <path d="M43.3477 11.5103V5.82632H44.8035V6.72977H44.8964C45.0461 6.16189 45.6347 5.7334 46.3574 5.7334C46.5639 5.7334 46.8169 5.75921 46.946 5.80051V7.12213C46.8272 7.08083 46.4762 7.03953 46.2335 7.03953C45.4127 7.03953 44.85 7.52997 44.85 8.33016V11.5103H43.3477Z" fill="#603408" data-astro-cid-65apewjt=""></path> <path d="M26.8594 11.5105V5.82654H28.3152V6.74031H28.4081C28.6714 6.10015 29.2496 5.70264 30.0911 5.70264C31.356 5.70264 32.0374 6.47702 32.0374 7.83477V11.5105H30.5351V8.1755C30.5351 7.3753 30.1995 6.95714 29.4871 6.95714C28.7902 6.95714 28.3617 7.45274 28.3617 8.22196V11.5105H26.8594Z" fill="#603408" data-astro-cid-65apewjt=""></path> </g> </g> <g id="deploy-log-badge-complete" data-astro-cid-65apewjt=""> <path class="icon-check" fill-rule="evenodd" clip-rule="evenodd" d="M13.084 8.66138C13.084 12.2744 10.155 15.2034 6.54199 15.2034C2.92895 15.2034 0 12.2744 0 8.66138C0 5.04833 2.92895 2.11938 6.54199 2.11938C10.155 2.11938 13.084 5.04833 13.084 8.66138ZM4.96517 11.2672C5.28802 11.5901 5.81092 11.5919 6.13597 11.2712L6.82984 10.5868L10.0936 7.32299C10.3725 7.04407 10.373 6.59124 10.0945 6.31282L9.82482 6.04311C9.54641 5.76469 9.09358 5.7651 8.81466 6.04402L5.55958 9.2991L4.28061 8.02012C4.0022 7.74171 3.54936 7.74212 3.27045 8.02103L3.00025 8.29123C2.72133 8.57015 2.72092 9.02298 2.99934 9.3014L4.96517 11.2672Z" fill="#31A855" data-astro-cid-65apewjt=""></path> <g class="icon-badge" data-astro-cid-65apewjt=""> <rect x="20.6641" width="63.6458" height="17.3229" rx="5" fill="#E7FCE9" data-astro-cid-65apewjt=""></rect> <path d="M59.3516 4.01831V12.6615H61.0041V4.01831H59.3516Z" fill="#0F4A21" data-astro-cid-65apewjt=""></path> <path d="M71.8461 4.91553H70.1936V6.46584H69.2168V7.72086H70.1936V10.9748C70.1936 12.1901 70.7955 12.6841 72.3174 12.6841C72.6354 12.6841 72.9421 12.6501 73.1465 12.6103V11.3894C72.9875 11.4064 72.874 11.4178 72.6582 11.4178C72.096 11.4178 71.8461 11.1565 71.8461 10.5943V7.72086H73.1465V6.46584H71.8461V4.91553Z" fill="#0F4A21" data-astro-cid-65apewjt=""></path> <path fill-rule="evenodd" clip-rule="evenodd" d="M80.0684 10.8953H78.5295C78.3534 11.3212 77.9048 11.5597 77.2517 11.5597C76.3886 11.5597 75.8434 10.9634 75.8207 10.0094V9.92418H80.1195V9.43013C80.1195 7.4539 79.0292 6.27271 77.1836 6.27271C75.3209 6.27271 74.1738 7.5334 74.1738 9.56642C74.1738 11.5881 75.2982 12.792 77.2063 12.792C78.7396 12.792 79.8242 12.0594 80.0684 10.8953ZM75.8264 8.89632C75.8832 8.05585 76.4226 7.50501 77.1893 7.50501C77.9616 7.50501 78.4613 8.03882 78.4954 8.89632H75.8264Z" fill="#0F4A21" data-astro-cid-65apewjt=""></path> <path fill-rule="evenodd" clip-rule="evenodd" d="M66.7736 10.8953H68.3126C68.0684 12.0594 66.9837 12.792 65.4505 12.792C63.5424 12.792 62.418 11.5881 62.418 9.56642C62.418 7.5334 63.5651 6.27271 65.4277 6.27271C67.2734 6.27271 68.3637 7.4539 68.3637 9.43013V9.92418H64.0648V10.0094C64.0875 10.9634 64.6327 11.5597 65.4959 11.5597C66.149 11.5597 66.5976 11.3212 66.7736 10.8953ZM65.4334 7.50501C64.6668 7.50501 64.1273 8.05585 64.0705 8.89632H66.7395C66.7055 8.03882 66.2057 7.50501 65.4334 7.50501Z" fill="#0F4A21" data-astro-cid-65apewjt=""></path> <path fill-rule="evenodd" clip-rule="evenodd" d="M55.3947 6.30688C56.9791 6.30688 57.9502 7.51647 57.9502 9.53245C57.9502 11.5428 56.9905 12.758 55.4231 12.758C54.5259 12.758 53.8388 12.3662 53.5321 11.7074H53.4299V14.7342H51.7773V6.4091H53.3788V7.43697H53.481C53.8217 6.7328 54.5316 6.30688 55.3947 6.30688ZM54.8325 11.4235C55.7241 11.4235 56.2522 10.7136 56.2522 9.53245C56.2522 8.35694 55.7184 7.64708 54.8382 7.64708C53.958 7.64708 53.4128 8.36829 53.4128 9.53813C53.4128 10.708 53.958 11.4235 54.8325 11.4235Z" fill="#0F4A21" data-astro-cid-65apewjt=""></path> <path d="M40.9883 6.409V12.6614H42.6408V8.89064C42.6408 8.17511 43.1008 7.65266 43.7482 7.65266C44.3956 7.65266 44.7817 8.03882 44.7817 8.70892V12.6614H46.3718V8.81681C46.3718 8.14103 46.8034 7.65266 47.4735 7.65266C48.172 7.65266 48.5184 8.02746 48.5184 8.78274V12.6614H50.1709V8.36819C50.1709 7.0791 49.3929 6.27271 48.1436 6.27271C47.269 6.27271 46.5478 6.73269 46.2582 7.4255H46.156C45.9061 6.70997 45.3042 6.27271 44.424 6.27271C43.6005 6.27271 42.9475 6.70997 42.6919 7.4255H42.5897V6.409H40.9883Z" fill="#0F4A21" data-astro-cid-65apewjt=""></path> <path fill-rule="evenodd" clip-rule="evenodd" d="M36.5523 12.792C34.6272 12.792 33.4688 11.571 33.4688 9.53234C33.4688 7.51069 34.6443 6.27271 36.5523 6.27271C38.4604 6.27271 39.6359 7.50501 39.6359 9.53234C39.6359 11.5767 38.4775 12.792 36.5523 12.792ZM36.5523 11.4859C37.4326 11.4859 37.938 10.7703 37.938 9.53234C37.938 8.30572 37.4269 7.58451 36.5523 7.58451C35.6721 7.58451 35.1667 8.30572 35.1667 9.53234C35.1667 10.7703 35.6665 11.4859 36.5523 11.4859Z" fill="#0F4A21" data-astro-cid-65apewjt=""></path> <path d="M24.957 8.56138C24.957 11.2247 26.4278 12.8716 28.8016 12.8716C30.7778 12.8716 32.2202 11.6734 32.3622 9.92429H30.6926C30.5279 10.8272 29.7897 11.4065 28.8073 11.4065C27.5125 11.4065 26.7118 10.3161 26.7118 8.56138C26.7118 6.80662 27.5125 5.71629 28.8016 5.71629C29.7783 5.71629 30.5223 6.34096 30.687 7.28932H32.3565C32.2316 5.52889 30.7437 4.25684 28.8016 4.25684C26.4222 4.25684 24.957 5.89801 24.957 8.56138Z" fill="#0F4A21" data-astro-cid-65apewjt=""></path> </g> </g> <g id="deploy-log-sparkle" class="icon-sparkle" data-astro-cid-65apewjt=""> <path d="M3.84038 7C6.67952 7.25842 8.92019 10.2937 8.92019 14C8.92019 13.8861 8.9223 13.7729 8.92651 13.6603C9.05846 10.1097 11.2481 7.25041 14 7C11.1609 6.74158 8.92019 3.70632 8.92019 0C8.92019 0.100194 8.91851 0.199959 8.91527 0.299009C8.8016 3.77721 6.71366 6.60094 4.05102 6.97527C4.01701 6.98027 3.98301 6.98456 3.94886 6.98857C3.91275 6.993 3.87664 6.99671 3.84038 7Z" fill="url(#icon-sparkle-gradient-1)" data-astro-cid-65apewjt=""></path> <path d="M7.9094e-05 9.55697C1.6604 9.70809 2.97074 11.4831 2.97074 13.6506C2.97074 13.5839 2.97198 13.5177 2.97444 13.4519C3.0516 11.3755 4.33212 9.70341 5.94141 9.55697C4.28109 9.40584 2.97074 7.63083 2.97074 5.46338C2.97074 5.52197 2.96976 5.58032 2.96787 5.63824C2.90139 7.67229 1.68037 9.3236 0.123258 9.54251C0.103372 9.54543 0.083485 9.54794 0.0635168 9.55028C0.042399 9.55287 0.0212797 9.55504 7.9094e-05 9.55697Z" fill="url(#icon-sparkle-gradient-2)" data-astro-cid-65apewjt=""></path> <path d="M2.96119 3.06502C4.07511 3.16641 4.95423 4.35728 4.95423 5.81143C4.95423 5.76674 4.95505 5.72232 4.95671 5.67813C5.00848 4.2851 5.86758 3.16327 6.94727 3.06502C5.83335 2.96363 4.95423 1.77276 4.95423 0.318604C4.95423 0.357914 4.95357 0.397058 4.9523 0.43592C4.9077 1.80057 4.08851 2.90845 3.04383 3.05532C3.03049 3.05728 3.01715 3.05896 3.00375 3.06053C2.98958 3.06227 2.97542 3.06373 2.96119 3.06502Z" fill="url(#icon-sparkle-gradient-3)" data-astro-cid-65apewjt=""></path> <linearGradient id="icon-sparkle-gradient" data-astro-cid-65apewjt=""> <stop stop-color="#FFC100" data-astro-cid-65apewjt=""></stop> <stop offset="0.4919" stop-color="#FDBF00" data-astro-cid-65apewjt=""></stop> <stop offset="0.6691" stop-color="#F6BA00" data-astro-cid-65apewjt=""></stop> <stop offset="0.7954" stop-color="#EAB100" data-astro-cid-65apewjt=""></stop> <stop offset="0.8975" stop-color="#D9A400" data-astro-cid-65apewjt=""></stop> <stop offset="0.9839" stop-color="#C39400" data-astro-cid-65apewjt=""></stop> <stop offset="1" stop-color="#BF9100" data-astro-cid-65apewjt=""></stop> </linearGradient> <linearGradient id="icon-sparkle-gradient-1" href="#icon-sparkle-gradient" x1="5.4793" y1="10.5" x2="12.4783" y2="3.61921" gradientUnits="userSpaceOnUse" data-astro-cid-65apewjt=""></linearGradient> <linearGradient id="icon-sparkle-gradient-2" href="#icon-sparkle-gradient" x1="0.958512" y1="11.6038" x2="5.05151" y2="7.57988" gradientUnits="userSpaceOnUse" data-astro-cid-65apewjt=""></linearGradient> <linearGradient id="icon-sparkle-gradient-3" href="#icon-sparkle-gradient" x1="3.60421" y1="4.43822" x2="6.35023" y2="1.73858" gradientUnits="userSpaceOnUse" data-astro-cid-65apewjt=""></linearGradient> </g> <g id="deploy-log-badge-complete" data-astro-cid-65apewjt=""> <path class="icon-check" fill-rule="evenodd" clip-rule="evenodd" d="M13.084 8.66138C13.084 12.2744 10.155 15.2034 6.54199 15.2034C2.92895 15.2034 0 12.2744 0 8.66138C0 5.04833 2.92895 2.11938 6.54199 2.11938C10.155 2.11938 13.084 5.04833 13.084 8.66138ZM4.96517 11.2672C5.28802 11.5901 5.81092 11.5919 6.13597 11.2712L6.82984 10.5868L10.0936 7.32299C10.3725 7.04407 10.373 6.59124 10.0945 6.31282L9.82482 6.04311C9.54641 5.76469 9.09358 5.7651 8.81466 6.04402L5.55958 9.2991L4.28061 8.02012C4.0022 7.74171 3.54936 7.74212 3.27045 8.02103L3.00025 8.29123C2.72133 8.57015 2.72092 9.02298 2.99934 9.3014L4.96517 11.2672Z" fill="#31A855" data-astro-cid-65apewjt=""></path> <g class="icon-badge" data-astro-cid-65apewjt=""> <rect x="20.6641" width="63.6458" height="17.3229" rx="5" fill="#E7FCE9" data-astro-cid-65apewjt=""></rect> <path d="M59.3516 4.01831V12.6615H61.0041V4.01831H59.3516Z" fill="#0F4A21" data-astro-cid-65apewjt=""></path> <path d="M71.8461 4.91553H70.1936V6.46584H69.2168V7.72086H70.1936V10.9748C70.1936 12.1901 70.7955 12.6841 72.3174 12.6841C72.6354 12.6841 72.9421 12.6501 73.1465 12.6103V11.3894C72.9875 11.4064 72.874 11.4178 72.6582 11.4178C72.096 11.4178 71.8461 11.1565 71.8461 10.5943V7.72086H73.1465V6.46584H71.8461V4.91553Z" fill="#0F4A21" data-astro-cid-65apewjt=""></path> <path fill-rule="evenodd" clip-rule="evenodd" d="M80.0684 10.8953H78.5295C78.3534 11.3212 77.9048 11.5597 77.2517 11.5597C76.3886 11.5597 75.8434 10.9634 75.8207 10.0094V9.92418H80.1195V9.43013C80.1195 7.4539 79.0292 6.27271 77.1836 6.27271C75.3209 6.27271 74.1738 7.5334 74.1738 9.56642C74.1738 11.5881 75.2982 12.792 77.2063 12.792C78.7396 12.792 79.8242 12.0594 80.0684 10.8953ZM75.8264 8.89632C75.8832 8.05585 76.4226 7.50501 77.1893 7.50501C77.9616 7.50501 78.4613 8.03882 78.4954 8.89632H75.8264Z" fill="#0F4A21" data-astro-cid-65apewjt=""></path> <path fill-rule="evenodd" clip-rule="evenodd" d="M66.7736 10.8953H68.3126C68.0684 12.0594 66.9837 12.792 65.4505 12.792C63.5424 12.792 62.418 11.5881 62.418 9.56642C62.418 7.5334 63.5651 6.27271 65.4277 6.27271C67.2734 6.27271 68.3637 7.4539 68.3637 9.43013V9.92418H64.0648V10.0094C64.0875 10.9634 64.6327 11.5597 65.4959 11.5597C66.149 11.5597 66.5976 11.3212 66.7736 10.8953ZM65.4334 7.50501C64.6668 7.50501 64.1273 8.05585 64.0705 8.89632H66.7395C66.7055 8.03882 66.2057 7.50501 65.4334 7.50501Z" fill="#0F4A21" data-astro-cid-65apewjt=""></path> <path fill-rule="evenodd" clip-rule="evenodd" d="M55.3947 6.30688C56.9791 6.30688 57.9502 7.51647 57.9502 9.53245C57.9502 11.5428 56.9905 12.758 55.4231 12.758C54.5259 12.758 53.8388 12.3662 53.5321 11.7074H53.4299V14.7342H51.7773V6.4091H53.3788V7.43697H53.481C53.8217 6.7328 54.5316 6.30688 55.3947 6.30688ZM54.8325 11.4235C55.7241 11.4235 56.2522 10.7136 56.2522 9.53245C56.2522 8.35694 55.7184 7.64708 54.8382 7.64708C53.958 7.64708 53.4128 8.36829 53.4128 9.53813C53.4128 10.708 53.958 11.4235 54.8325 11.4235Z" fill="#0F4A21" data-astro-cid-65apewjt=""></path> <path d="M40.9883 6.409V12.6614H42.6408V8.89064C42.6408 8.17511 43.1008 7.65266 43.7482 7.65266C44.3956 7.65266 44.7817 8.03882 44.7817 8.70892V12.6614H46.3718V8.81681C46.3718 8.14103 46.8034 7.65266 47.4735 7.65266C48.172 7.65266 48.5184 8.02746 48.5184 8.78274V12.6614H50.1709V8.36819C50.1709 7.0791 49.3929 6.27271 48.1436 6.27271C47.269 6.27271 46.5478 6.73269 46.2582 7.4255H46.156C45.9061 6.70997 45.3042 6.27271 44.424 6.27271C43.6005 6.27271 42.9475 6.70997 42.6919 7.4255H42.5897V6.409H40.9883Z" fill="#0F4A21" data-astro-cid-65apewjt=""></path> <path fill-rule="evenodd" clip-rule="evenodd" d="M36.5523 12.792C34.6272 12.792 33.4688 11.571 33.4688 9.53234C33.4688 7.51069 34.6443 6.27271 36.5523 6.27271C38.4604 6.27271 39.6359 7.50501 39.6359 9.53234C39.6359 11.5767 38.4775 12.792 36.5523 12.792ZM36.5523 11.4859C37.4326 11.4859 37.938 10.7703 37.938 9.53234C37.938 8.30572 37.4269 7.58451 36.5523 7.58451C35.6721 7.58451 35.1667 8.30572 35.1667 9.53234C35.1667 10.7703 35.6665 11.4859 36.5523 11.4859Z" fill="#0F4A21" data-astro-cid-65apewjt=""></path> <path d="M24.957 8.56138C24.957 11.2247 26.4278 12.8716 28.8016 12.8716C30.7778 12.8716 32.2202 11.6734 32.3622 9.92429H30.6926C30.5279 10.8272 29.7897 11.4065 28.8073 11.4065C27.5125 11.4065 26.7118 10.3161 26.7118 8.56138C26.7118 6.80662 27.5125 5.71629 28.8016 5.71629C29.7783 5.71629 30.5223 6.34096 30.687 7.28932H32.3565C32.2316 5.52889 30.7437 4.25684 28.8016 4.25684C26.4222 4.25684 24.957 5.89801 24.957 8.56138Z" fill="#0F4A21" data-astro-cid-65apewjt=""></path> </g> </g><g id="deploy-log-badge-complete" data-astro-cid-65apewjt=""> <path class="icon-check" fill-rule="evenodd" clip-rule="evenodd" d="M13.084 8.66138C13.084 12.2744 10.155 15.2034 6.54199 15.2034C2.92895 15.2034 0 12.2744 0 8.66138C0 5.04833 2.92895 2.11938 6.54199 2.11938C10.155 2.11938 13.084 5.04833 13.084 8.66138ZM4.96517 11.2672C5.28802 11.5901 5.81092 11.5919 6.13597 11.2712L6.82984 10.5868L10.0936 7.32299C10.3725 7.04407 10.373 6.59124 10.0945 6.31282L9.82482 6.04311C9.54641 5.76469 9.09358 5.7651 8.81466 6.04402L5.55958 9.2991L4.28061 8.02012C4.0022 7.74171 3.54936 7.74212 3.27045 8.02103L3.00025 8.29123C2.72133 8.57015 2.72092 9.02298 2.99934 9.3014L4.96517 11.2672Z" fill="#31A855" data-astro-cid-65apewjt=""></path> <g class="icon-badge" data-astro-cid-65apewjt=""> <rect x="20.6641" width="63.6458" height="17.3229" rx="5" fill="#E7FCE9" data-astro-cid-65apewjt=""></rect> <path d="M59.3516 4.01831V12.6615H61.0041V4.01831H59.3516Z" fill="#0F4A21" data-astro-cid-65apewjt=""></path> <path d="M71.8461 4.91553H70.1936V6.46584H69.2168V7.72086H70.1936V10.9748C70.1936 12.1901 70.7955 12.6841 72.3174 12.6841C72.6354 12.6841 72.9421 12.6501 73.1465 12.6103V11.3894C72.9875 11.4064 72.874 11.4178 72.6582 11.4178C72.096 11.4178 71.8461 11.1565 71.8461 10.5943V7.72086H73.1465V6.46584H71.8461V4.91553Z" fill="#0F4A21" data-astro-cid-65apewjt=""></path> <path fill-rule="evenodd" clip-rule="evenodd" d="M80.0684 10.8953H78.5295C78.3534 11.3212 77.9048 11.5597 77.2517 11.5597C76.3886 11.5597 75.8434 10.9634 75.8207 10.0094V9.92418H80.1195V9.43013C80.1195 7.4539 79.0292 6.27271 77.1836 6.27271C75.3209 6.27271 74.1738 7.5334 74.1738 9.56642C74.1738 11.5881 75.2982 12.792 77.2063 12.792C78.7396 12.792 79.8242 12.0594 80.0684 10.8953ZM75.8264 8.89632C75.8832 8.05585 76.4226 7.50501 77.1893 7.50501C77.9616 7.50501 78.4613 8.03882 78.4954 8.89632H75.8264Z" fill="#0F4A21" data-astro-cid-65apewjt=""></path> <path fill-rule="evenodd" clip-rule="evenodd" d="M66.7736 10.8953H68.3126C68.0684 12.0594 66.9837 12.792 65.4505 12.792C63.5424 12.792 62.418 11.5881 62.418 9.56642C62.418 7.5334 63.5651 6.27271 65.4277 6.27271C67.2734 6.27271 68.3637 7.4539 68.3637 9.43013V9.92418H64.0648V10.0094C64.0875 10.9634 64.6327 11.5597 65.4959 11.5597C66.149 11.5597 66.5976 11.3212 66.7736 10.8953ZM65.4334 7.50501C64.6668 7.50501 64.1273 8.05585 64.0705 8.89632H66.7395C66.7055 8.03882 66.2057 7.50501 65.4334 7.50501Z" fill="#0F4A21" data-astro-cid-65apewjt=""></path> <path fill-rule="evenodd" clip-rule="evenodd" d="M55.3947 6.30688C56.9791 6.30688 57.9502 7.51647 57.9502 9.53245C57.9502 11.5428 56.9905 12.758 55.4231 12.758C54.5259 12.758 53.8388 12.3662 53.5321 11.7074H53.4299V14.7342H51.7773V6.4091H53.3788V7.43697H53.481C53.8217 6.7328 54.5316 6.30688 55.3947 6.30688ZM54.8325 11.4235C55.7241 11.4235 56.2522 10.7136 56.2522 9.53245C56.2522 8.35694 55.7184 7.64708 54.8382 7.64708C53.958 7.64708 53.4128 8.36829 53.4128 9.53813C53.4128 10.708 53.958 11.4235 54.8325 11.4235Z" fill="#0F4A21" data-astro-cid-65apewjt=""></path> <path d="M40.9883 6.409V12.6614H42.6408V8.89064C42.6408 8.17511 43.1008 7.65266 43.7482 7.65266C44.3956 7.65266 44.7817 8.03882 44.7817 8.70892V12.6614H46.3718V8.81681C46.3718 8.14103 46.8034 7.65266 47.4735 7.65266C48.172 7.65266 48.5184 8.02746 48.5184 8.78274V12.6614H50.1709V8.36819C50.1709 7.0791 49.3929 6.27271 48.1436 6.27271C47.269 6.27271 46.5478 6.73269 46.2582 7.4255H46.156C45.9061 6.70997 45.3042 6.27271 44.424 6.27271C43.6005 6.27271 42.9475 6.70997 42.6919 7.4255H42.5897V6.409H40.9883Z" fill="#0F4A21" data-astro-cid-65apewjt=""></path> <path fill-rule="evenodd" clip-rule="evenodd" d="M36.5523 12.792C34.6272 12.792 33.4688 11.571 33.4688 9.53234C33.4688 7.51069 34.6443 6.27271 36.5523 6.27271C38.4604 6.27271 39.6359 7.50501 39.6359 9.53234C39.6359 11.5767 38.4775 12.792 36.5523 12.792ZM36.5523 11.4859C37.4326 11.4859 37.938 10.7703 37.938 9.53234C37.938 8.30572 37.4269 7.58451 36.5523 7.58451C35.6721 7.58451 35.1667 8.30572 35.1667 9.53234C35.1667 10.7703 35.6665 11.4859 36.5523 11.4859Z" fill="#0F4A21" data-astro-cid-65apewjt=""></path> <path d="M24.957 8.56138C24.957 11.2247 26.4278 12.8716 28.8016 12.8716C30.7778 12.8716 32.2202 11.6734 32.3622 9.92429H30.6926C30.5279 10.8272 29.7897 11.4065 28.8073 11.4065C27.5125 11.4065 26.7118 10.3161 26.7118 8.56138C26.7118 6.80662 27.5125 5.71629 28.8016 5.71629C29.7783 5.71629 30.5223 6.34096 30.687 7.28932H32.3565C32.2316 5.52889 30.7437 4.25684 28.8016 4.25684C26.4222 4.25684 24.957 5.89801 24.957 8.56138Z" fill="#0F4A21" data-astro-cid-65apewjt=""></path> </g> </g><g id="deploy-log-badge-progress" data-astro-cid-65apewjt=""> <g class="icon-badge" data-astro-cid-65apewjt=""> <rect x="19.4238" width="67.0417" height="16.0208" rx="4.53125" fill="#FDF5D8" data-astro-cid-65apewjt=""></rect> <path d="M23.6426 11.5104H25.2017V4.06079H23.6426V11.5104Z" fill="#603408" data-astro-cid-65apewjt=""></path> <path fill-rule="evenodd" clip-rule="evenodd" d="M39.4809 4.06079H36.373V11.5104H37.9321V9.1614H39.4035C40.9729 9.1614 42.0622 8.13921 42.0622 6.62142C42.0622 5.08298 41.0142 4.06079 39.4809 4.06079ZM37.9321 7.93787V5.2998H39.0679C39.9662 5.2998 40.4773 5.75927 40.4773 6.62658C40.4773 7.47324 39.9559 7.93787 39.0627 7.93787H37.9321Z" fill="#603408" data-astro-cid-65apewjt=""></path> <path fill-rule="evenodd" clip-rule="evenodd" d="M47.5391 8.66594C47.5391 10.5193 48.5922 11.6293 50.3423 11.6293C52.0924 11.6293 53.1456 10.5245 53.1456 8.66594C53.1456 6.82291 52.077 5.70264 50.3423 5.70264C48.6077 5.70264 47.5391 6.82807 47.5391 8.66594ZM51.602 8.66594C51.602 9.79138 51.1425 10.4419 50.3423 10.4419C49.537 10.4419 49.0827 9.79138 49.0827 8.66594C49.0827 7.55083 49.5421 6.89519 50.3423 6.89519C51.1374 6.89519 51.602 7.55083 51.602 8.66594Z" fill="#603408" data-astro-cid-65apewjt=""></path> <path fill-rule="evenodd" clip-rule="evenodd" d="M69.3503 9.90496H70.7494C70.5274 10.9633 69.5413 11.6293 68.1474 11.6293C66.4128 11.6293 65.3906 10.5348 65.3906 8.69692C65.3906 6.84872 66.4335 5.70264 68.1268 5.70264C69.8046 5.70264 70.7958 6.77645 70.7958 8.57302V9.02216H66.8878V9.0996C66.9084 9.96691 67.404 10.509 68.1887 10.509C68.7824 10.509 69.1903 10.2921 69.3503 9.90496ZM68.1319 6.82291C67.435 6.82291 66.9446 7.32368 66.8929 8.08774H69.3193C69.2884 7.30819 68.834 6.82291 68.1319 6.82291Z" fill="#603408" data-astro-cid-65apewjt=""></path> <path d="M74.2707 5.70264C72.851 5.70264 71.9011 6.42023 71.9011 7.48372C71.9011 8.35619 72.438 8.87761 73.5428 9.12025L74.5753 9.35256C75.0761 9.46614 75.2929 9.64167 75.2929 9.93077C75.2929 10.3076 74.8902 10.5658 74.3069 10.5658C73.708 10.5658 73.3415 10.3335 73.2279 9.9411H71.7617C71.865 11.0149 72.7736 11.6293 74.2759 11.6293C75.7679 11.6293 76.7849 10.8962 76.7849 9.77073C76.7849 8.92407 76.2893 8.45944 75.1845 8.2168L74.1158 7.98449C73.5893 7.86575 73.3466 7.68506 73.3466 7.39596C73.3466 7.02425 73.7441 6.77129 74.281 6.77129C74.8386 6.77129 75.1845 7.0036 75.2619 7.38047H76.6507C76.5681 6.30666 75.7162 5.70264 74.2707 5.70264Z" fill="#603408" data-astro-cid-65apewjt=""></path> <path d="M80.1555 5.70264C78.7358 5.70264 77.7859 6.42023 77.7859 7.48372C77.7859 8.35619 78.3228 8.87761 79.4276 9.12025L80.4601 9.35256C80.9608 9.46614 81.1777 9.64167 81.1777 9.93077C81.1777 10.3076 80.775 10.5658 80.1916 10.5658C79.5928 10.5658 79.2262 10.3335 79.1127 9.9411H77.6465C77.7497 11.0149 78.6583 11.6293 80.1607 11.6293C81.6526 11.6293 82.6697 10.8962 82.6697 9.77073C82.6697 8.92407 82.174 8.45944 81.0693 8.2168L80.0006 7.98449C79.474 7.86575 79.2314 7.68506 79.2314 7.39596C79.2314 7.02425 79.6289 6.77129 80.1658 6.77129C80.7234 6.77129 81.0693 7.0036 81.1467 7.38047H82.5354C82.4528 6.30666 81.601 5.70264 80.1555 5.70264Z" fill="#603408" data-astro-cid-65apewjt=""></path> <path d="M61.1992 5.82632V11.5103H62.7015V8.33016C62.7015 7.52997 63.2642 7.03953 64.0851 7.03953C64.3277 7.03953 64.6788 7.08083 64.7975 7.12213V5.80051C64.6685 5.75921 64.4155 5.7334 64.209 5.7334C63.4862 5.7334 62.8977 6.16189 62.748 6.72977H62.6551V5.82632H61.1992Z" fill="#603408" data-astro-cid-65apewjt=""></path> <path fill-rule="evenodd" clip-rule="evenodd" d="M56.8833 13.6631C55.3707 13.6631 54.3692 13.0074 54.2763 12.0111H55.7631C55.8405 12.3724 56.2638 12.5996 56.9143 12.5996C57.7197 12.5996 58.1895 12.2176 58.1895 11.5619V10.5036H58.0965C57.7816 11.1025 57.1828 11.4277 56.3826 11.4277C54.9629 11.4277 54.0801 10.3229 54.0801 8.61927C54.0801 6.85884 54.968 5.7334 56.4136 5.7334C57.1828 5.7334 57.8384 6.11543 58.143 6.73493H58.2359V5.82632H59.6918V11.5C59.6918 12.8268 58.6025 13.6631 56.8833 13.6631ZM56.904 10.2764C57.7197 10.2764 58.205 9.63629 58.205 8.61411C58.205 7.59192 57.7145 6.95176 56.904 6.95176C56.0935 6.95176 55.6237 7.59192 55.6237 8.61411C55.6237 9.63629 56.0883 10.2764 56.904 10.2764Z" fill="#603408" data-astro-cid-65apewjt=""></path> <path d="M43.3477 11.5103V5.82632H44.8035V6.72977H44.8964C45.0461 6.16189 45.6347 5.7334 46.3574 5.7334C46.5639 5.7334 46.8169 5.75921 46.946 5.80051V7.12213C46.8272 7.08083 46.4762 7.03953 46.2335 7.03953C45.4127 7.03953 44.85 7.52997 44.85 8.33016V11.5103H43.3477Z" fill="#603408" data-astro-cid-65apewjt=""></path> <path d="M26.8594 11.5105V5.82654H28.3152V6.74031H28.4081C28.6714 6.10015 29.2496 5.70264 30.0911 5.70264C31.356 5.70264 32.0374 6.47702 32.0374 7.83477V11.5105H30.5351V8.1755C30.5351 7.3753 30.1995 6.95714 29.4871 6.95714C28.7902 6.95714 28.3617 7.45274 28.3617 8.22196V11.5105H26.8594Z" fill="#603408" data-astro-cid-65apewjt=""></path> </g> </g><g id="deploy-log-badge-complete" data-astro-cid-65apewjt=""> <path class="icon-check" fill-rule="evenodd" clip-rule="evenodd" d="M13.084 8.66138C13.084 12.2744 10.155 15.2034 6.54199 15.2034C2.92895 15.2034 0 12.2744 0 8.66138C0 5.04833 2.92895 2.11938 6.54199 2.11938C10.155 2.11938 13.084 5.04833 13.084 8.66138ZM4.96517 11.2672C5.28802 11.5901 5.81092 11.5919 6.13597 11.2712L6.82984 10.5868L10.0936 7.32299C10.3725 7.04407 10.373 6.59124 10.0945 6.31282L9.82482 6.04311C9.54641 5.76469 9.09358 5.7651 8.81466 6.04402L5.55958 9.2991L4.28061 8.02012C4.0022 7.74171 3.54936 7.74212 3.27045 8.02103L3.00025 8.29123C2.72133 8.57015 2.72092 9.02298 2.99934 9.3014L4.96517 11.2672Z" fill="#31A855" data-astro-cid-65apewjt=""></path> <g class="icon-badge" data-astro-cid-65apewjt=""> <rect x="20.6641" width="63.6458" height="17.3229" rx="5" fill="#E7FCE9" data-astro-cid-65apewjt=""></rect> <path d="M59.3516 4.01831V12.6615H61.0041V4.01831H59.3516Z" fill="#0F4A21" data-astro-cid-65apewjt=""></path> <path d="M71.8461 4.91553H70.1936V6.46584H69.2168V7.72086H70.1936V10.9748C70.1936 12.1901 70.7955 12.6841 72.3174 12.6841C72.6354 12.6841 72.9421 12.6501 73.1465 12.6103V11.3894C72.9875 11.4064 72.874 11.4178 72.6582 11.4178C72.096 11.4178 71.8461 11.1565 71.8461 10.5943V7.72086H73.1465V6.46584H71.8461V4.91553Z" fill="#0F4A21" data-astro-cid-65apewjt=""></path> <path fill-rule="evenodd" clip-rule="evenodd" d="M80.0684 10.8953H78.5295C78.3534 11.3212 77.9048 11.5597 77.2517 11.5597C76.3886 11.5597 75.8434 10.9634 75.8207 10.0094V9.92418H80.1195V9.43013C80.1195 7.4539 79.0292 6.27271 77.1836 6.27271C75.3209 6.27271 74.1738 7.5334 74.1738 9.56642C74.1738 11.5881 75.2982 12.792 77.2063 12.792C78.7396 12.792 79.8242 12.0594 80.0684 10.8953ZM75.8264 8.89632C75.8832 8.05585 76.4226 7.50501 77.1893 7.50501C77.9616 7.50501 78.4613 8.03882 78.4954 8.89632H75.8264Z" fill="#0F4A21" data-astro-cid-65apewjt=""></path> <path fill-rule="evenodd" clip-rule="evenodd" d="M66.7736 10.8953H68.3126C68.0684 12.0594 66.9837 12.792 65.4505 12.792C63.5424 12.792 62.418 11.5881 62.418 9.56642C62.418 7.5334 63.5651 6.27271 65.4277 6.27271C67.2734 6.27271 68.3637 7.4539 68.3637 9.43013V9.92418H64.0648V10.0094C64.0875 10.9634 64.6327 11.5597 65.4959 11.5597C66.149 11.5597 66.5976 11.3212 66.7736 10.8953ZM65.4334 7.50501C64.6668 7.50501 64.1273 8.05585 64.0705 8.89632H66.7395C66.7055 8.03882 66.2057 7.50501 65.4334 7.50501Z" fill="#0F4A21" data-astro-cid-65apewjt=""></path> <path fill-rule="evenodd" clip-rule="evenodd" d="M55.3947 6.30688C56.9791 6.30688 57.9502 7.51647 57.9502 9.53245C57.9502 11.5428 56.9905 12.758 55.4231 12.758C54.5259 12.758 53.8388 12.3662 53.5321 11.7074H53.4299V14.7342H51.7773V6.4091H53.3788V7.43697H53.481C53.8217 6.7328 54.5316 6.30688 55.3947 6.30688ZM54.8325 11.4235C55.7241 11.4235 56.2522 10.7136 56.2522 9.53245C56.2522 8.35694 55.7184 7.64708 54.8382 7.64708C53.958 7.64708 53.4128 8.36829 53.4128 9.53813C53.4128 10.708 53.958 11.4235 54.8325 11.4235Z" fill="#0F4A21" data-astro-cid-65apewjt=""></path> <path d="M40.9883 6.409V12.6614H42.6408V8.89064C42.6408 8.17511 43.1008 7.65266 43.7482 7.65266C44.3956 7.65266 44.7817 8.03882 44.7817 8.70892V12.6614H46.3718V8.81681C46.3718 8.14103 46.8034 7.65266 47.4735 7.65266C48.172 7.65266 48.5184 8.02746 48.5184 8.78274V12.6614H50.1709V8.36819C50.1709 7.0791 49.3929 6.27271 48.1436 6.27271C47.269 6.27271 46.5478 6.73269 46.2582 7.4255H46.156C45.9061 6.70997 45.3042 6.27271 44.424 6.27271C43.6005 6.27271 42.9475 6.70997 42.6919 7.4255H42.5897V6.409H40.9883Z" fill="#0F4A21" data-astro-cid-65apewjt=""></path> <path fill-rule="evenodd" clip-rule="evenodd" d="M36.5523 12.792C34.6272 12.792 33.4688 11.571 33.4688 9.53234C33.4688 7.51069 34.6443 6.27271 36.5523 6.27271C38.4604 6.27271 39.6359 7.50501 39.6359 9.53234C39.6359 11.5767 38.4775 12.792 36.5523 12.792ZM36.5523 11.4859C37.4326 11.4859 37.938 10.7703 37.938 9.53234C37.938 8.30572 37.4269 7.58451 36.5523 7.58451C35.6721 7.58451 35.1667 8.30572 35.1667 9.53234C35.1667 10.7703 35.6665 11.4859 36.5523 11.4859Z" fill="#0F4A21" data-astro-cid-65apewjt=""></path> <path d="M24.957 8.56138C24.957 11.2247 26.4278 12.8716 28.8016 12.8716C30.7778 12.8716 32.2202 11.6734 32.3622 9.92429H30.6926C30.5279 10.8272 29.7897 11.4065 28.8073 11.4065C27.5125 11.4065 26.7118 10.3161 26.7118 8.56138C26.7118 6.80662 27.5125 5.71629 28.8016 5.71629C29.7783 5.71629 30.5223 6.34096 30.687 7.28932H32.3565C32.2316 5.52889 30.7437 4.25684 28.8016 4.25684C26.4222 4.25684 24.957 5.89801 24.957 8.56138Z" fill="#0F4A21" data-astro-cid-65apewjt=""></path> </g> </g><g id="deploy-log-sparkle" class="icon-sparkle" data-astro-cid-65apewjt=""> <path d="M3.84038 7C6.67952 7.25842 8.92019 10.2937 8.92019 14C8.92019 13.8861 8.9223 13.7729 8.92651 13.6603C9.05846 10.1097 11.2481 7.25041 14 7C11.1609 6.74158 8.92019 3.70632 8.92019 0C8.92019 0.100194 8.91851 0.199959 8.91527 0.299009C8.8016 3.77721 6.71366 6.60094 4.05102 6.97527C4.01701 6.98027 3.98301 6.98456 3.94886 6.98857C3.91275 6.993 3.87664 6.99671 3.84038 7Z" fill="url(#icon-sparkle-gradient-1)" data-astro-cid-65apewjt=""></path> <path d="M7.9094e-05 9.55697C1.6604 9.70809 2.97074 11.4831 2.97074 13.6506C2.97074 13.5839 2.97198 13.5177 2.97444 13.4519C3.0516 11.3755 4.33212 9.70341 5.94141 9.55697C4.28109 9.40584 2.97074 7.63083 2.97074 5.46338C2.97074 5.52197 2.96976 5.58032 2.96787 5.63824C2.90139 7.67229 1.68037 9.3236 0.123258 9.54251C0.103372 9.54543 0.083485 9.54794 0.0635168 9.55028C0.042399 9.55287 0.0212797 9.55504 7.9094e-05 9.55697Z" fill="url(#icon-sparkle-gradient-2)" data-astro-cid-65apewjt=""></path> <path d="M2.96119 3.06502C4.07511 3.16641 4.95423 4.35728 4.95423 5.81143C4.95423 5.76674 4.95505 5.72232 4.95671 5.67813C5.00848 4.2851 5.86758 3.16327 6.94727 3.06502C5.83335 2.96363 4.95423 1.77276 4.95423 0.318604C4.95423 0.357914 4.95357 0.397058 4.9523 0.43592C4.9077 1.80057 4.08851 2.90845 3.04383 3.05532C3.03049 3.05728 3.01715 3.05896 3.00375 3.06053C2.98958 3.06227 2.97542 3.06373 2.96119 3.06502Z" fill="url(#icon-sparkle-gradient-3)" data-astro-cid-65apewjt=""></path> <linearGradient id="icon-sparkle-gradient" data-astro-cid-65apewjt=""> <stop stop-color="#FFC100" data-astro-cid-65apewjt=""></stop> <stop offset="0.4919" stop-color="#FDBF00" data-astro-cid-65apewjt=""></stop> <stop offset="0.6691" stop-color="#F6BA00" data-astro-cid-65apewjt=""></stop> <stop offset="0.7954" stop-color="#EAB100" data-astro-cid-65apewjt=""></stop> <stop offset="0.8975" stop-color="#D9A400" data-astro-cid-65apewjt=""></stop> <stop offset="0.9839" stop-color="#C39400" data-astro-cid-65apewjt=""></stop> <stop offset="1" stop-color="#BF9100" data-astro-cid-65apewjt=""></stop> </linearGradient> <linearGradient id="icon-sparkle-gradient-1" href="#icon-sparkle-gradient" x1="5.4793" y1="10.5" x2="12.4783" y2="3.61921" gradientUnits="userSpaceOnUse" data-astro-cid-65apewjt=""></linearGradient> <linearGradient id="icon-sparkle-gradient-2" href="#icon-sparkle-gradient" x1="0.958512" y1="11.6038" x2="5.05151" y2="7.57988" gradientUnits="userSpaceOnUse" data-astro-cid-65apewjt=""></linearGradient> <linearGradient id="icon-sparkle-gradient-3" href="#icon-sparkle-gradient" x1="3.60421" y1="4.43822" x2="6.35023" y2="1.73858" gradientUnits="userSpaceOnUse" data-astro-cid-65apewjt=""></linearGradient> </g></defs> <g data-animate="deploy-log-badges" data-astro-cid-65apewjt="" fill="none"> <use href="#deploy-log-badge-complete" x="360" y="84" data-astro-cid-65apewjt=""></use> <use href="#deploy-log-badge-complete" x="360" y="132" data-astro-cid-65apewjt=""></use> <g class="progress-badge" transform="translate(360, 180)" data-astro-cid-65apewjt="" fill="none"> <path class="icon-cog" fill-rule="evenodd" clip-rule="evenodd" d="M6.49007 1.31982C6.07298 1.31982 5.73486 1.65794 5.73486 2.07503V3.32704C5.12458 3.45093 4.55652 3.6911 4.05483 4.02344L3.169 3.1376C2.87407 2.84268 2.3959 2.84268 2.10097 3.1376L1.81728 3.4213C1.52235 3.71622 1.52235 4.1944 1.81728 4.48932L2.70321 5.37526C2.37109 5.8768 2.13105 6.44464 2.00722 7.05469H0.755208C0.338118 7.05469 0 7.39281 0 7.8099V8.2111C0 8.62819 0.338118 8.96631 0.755208 8.96631H2.00722C2.13109 9.57655 2.37124 10.1446 2.70354 10.6462L1.81815 11.5316C1.52322 11.8265 1.52322 12.3047 1.81815 12.5996L2.10184 12.8833C2.39677 13.1783 2.87494 13.1783 3.16987 12.8833L4.05532 11.9979C4.55689 12.3301 5.12478 12.5701 5.73486 12.694V13.946C5.73486 14.3631 6.07298 14.7012 6.49007 14.7012H6.89128C7.30837 14.7012 7.64648 14.3631 7.64648 13.946V12.694C8.25677 12.5701 8.82483 12.3299 9.32652 11.9976L10.2124 12.8834C10.5073 13.1783 10.9854 13.1783 11.2804 12.8834L11.5641 12.5997C11.859 12.3048 11.859 11.8266 11.5641 11.5317L10.6781 10.6457C11.0103 10.1442 11.2503 9.57635 11.3741 8.96631H12.6261C13.0432 8.96631 13.3813 8.62819 13.3813 8.2111V7.8099C13.3813 7.39281 13.0432 7.05469 12.6261 7.05469H11.3741C11.2503 6.44445 11.0101 5.87643 10.6778 5.37476L11.5632 4.48937C11.8581 4.19445 11.8581 3.71628 11.5632 3.42135L11.2795 3.13765C10.9846 2.84273 10.5064 2.84273 10.2115 3.13765L9.32603 4.02311C8.82446 3.69094 8.25657 3.45088 7.64648 3.32704V2.07503C7.64648 1.65794 7.30837 1.31982 6.89128 1.31982H6.49007ZM8.6023 8.01058C8.6023 9.06634 7.74643 9.9222 6.69067 9.9222C5.63492 9.9222 4.77905 9.06634 4.77905 8.01058C4.77905 6.95482 5.63492 6.09896 6.69067 6.09896C7.74643 6.09896 8.6023 6.95482 8.6023 8.01058Z" fill="#FBB13D" data-astro-cid-65apewjt=""></path> <use href="#deploy-log-badge-progress" data-astro-cid-65apewjt=""></use> </g> <use href="#deploy-log-badge-complete" x="360" y="180" data-astro-cid-65apewjt=""></use> </g> <use href="#deploy-log-sparkle" x="416" y="373" data-astro-cid-65apewjt=""></use> <rect data-animate="deploy-log-code-cover" x="245" y="236" width="560" height="160" fill="#181A1C" data-astro-cid-65apewjt=""></rect> <g class="icon-loader" id="deploy-log-loader" transform="translate(248,246)" data-astro-cid-65apewjt="" fill="none"> <path d="M5.8125 11.7373L1 0H2.1416L6.94727 11.7373H5.8125Z" fill="#FFFFFF" data-astro-cid-65apewjt=""></path> <path d="M7.23242 7.08008H0V6H7.23242V7.08008Z" fill="#FFFFFF" data-astro-cid-65apewjt=""></path> <path d="M2.13477 11.7373H1L5.80566 0H6.94727L2.13477 11.7373Z" fill="#FFFFFF" data-astro-cid-65apewjt=""></path> <path d="M4.06641 14.1025H3V0H4.06641V14.1025Z" fill="#FFFFFF" data-astro-cid-65apewjt=""></path> </g> </svg>