<svg xmlns:xlink="http://www.w3.org/1999/xlink" data-icon="question" viewBox="0 0 64 64" fill="none" xmlns="http://www.w3.org/2000/svg" width="64"  height="64" ><path d="M8 20.0002C8 14.4752 12.475 10.0002 18 10.0002H22C27.525 10.0002 32 14.4752 32 20.0002V20.5752C32 23.5877 30.5 26.4002 27.9875 28.0627L21.45 32.4252C18.675 34.2752 17 37.4002 17 40.7502V41.0002C17 42.6627 18.3375 44.0002 20 44.0002C21.6625 44.0002 23 42.6627 23 41.0002V40.7502C23 39.4127 23.6625 38.1627 24.775 37.4252L31.3125 33.0627C35.4875 30.2752 37.9875 25.6002 37.9875 20.5877V20.0127C37.9875 11.1752 30.825 4.01271 21.9875 4.01271H17.9875C9.1625 4.00021 2 11.1627 2 20.0002C2 21.6627 3.3375 23.0002 5 23.0002C6.6625 23.0002 8 21.6627 8 20.0002ZM20 60.0002C21.0609 60.0002 22.0783 59.5788 22.8284 58.8286C23.5786 58.0785 24 57.0611 24 56.0002C24 54.9393 23.5786 53.9219 22.8284 53.1718C22.0783 52.4216 21.0609 52.0002 20 52.0002C18.9391 52.0002 17.9217 52.4216 17.1716 53.1718C16.4214 53.9219 16 54.9393 16 56.0002C16 57.0611 16.4214 58.0785 17.1716 58.8286C17.9217 59.5788 18.9391 60.0002 20 60.0002Z" fill="#545A61"></path></svg>