<svg xmlns:xlink="http://www.w3.org/1999/xlink" data-icon="youtube" viewBox="0 0 64 64" fill="none" xmlns="http://www.w3.org/2000/svg" width="64"  height="64" ><path d="M61.0785 13.8158C60.3785 11.1773 58.3229 9.10664 55.7118 8.40527C50.9785 7.125 32.0007 7.125 32.0007 7.125C32.0007 7.125 13.0229 7.125 8.28958 8.40527C5.67847 9.10664 3.62292 11.1773 2.92292 13.8158C1.65625 18.5918 1.65625 28.5445 1.65625 28.5445C1.65625 28.5445 1.65625 38.4973 2.92292 43.2732C3.62292 45.9117 5.67847 47.8934 8.28958 48.5947C13.0229 49.875 32.0007 49.875 32.0007 49.875C32.0007 49.875 50.9785 49.875 55.7118 48.5947C58.3229 47.8934 60.3785 45.9006 61.0785 43.2732C62.3451 38.4973 62.3451 28.5445 62.3451 28.5445C62.3451 28.5445 62.3451 18.5918 61.0785 13.8158ZM25.8007 37.5844V19.5047L41.6563 28.5445L25.8007 37.5844Z" fill="#545A61"></path></svg>