<svg xmlns:xlink="http://www.w3.org/1999/xlink" xmlns="http://www.w3.org/2000/svg" width="870" height="440" fill="none" viewBox="0 0 870 440">
  <path fill="#fff" d="M0 0h870v440H0z"/>
  <path fill="url(#a)" d="M9 18a9 9 0 0 1 9-9h174a9 9 0 0 1 9 9v401a9 9 0 0 1-9 9H18a9 9 0 0 1-9-9V18Z"/>
  <path fill="#02807D" d="M9.675 144h1.65l.675-.675v-10.65l-.675-.675h-1.65l-.675.675v10.65l.675.675ZM30.625 132.75l-1 1 .125.125h6.5l.125-.125-1-1h-4.75ZM28.875 135.625l1-1h6.25l1 1-.125.125h-8l-.125-.125ZM28.125 137.25l.75-.75h8.25l.75.75v5.25l-.75.75h-8.25l-.75-.75v-5.25ZM66.344 138.001c0-1.056.943-1.769 2.353-1.769 1.436 0 2.282.6 2.364 1.666h-1.38c-.076-.374-.42-.605-.974-.605-.533 0-.927.252-.927.621 0 .287.24.466.763.584l1.062.231c1.097.241 1.59.702 1.59 1.543 0 1.118-1.01 1.846-2.493 1.846-1.492 0-2.394-.61-2.496-1.677h1.456c.112.39.476.621 1.071.621.58 0 .98-.257.98-.631 0-.287-.216-.461-.713-.574l-1.026-.231c-1.097-.241-1.63-.759-1.63-1.625Z"/>
  <path fill="#02807D" fill-rule="evenodd" d="M65.2 140.406h-1.389c-.159.384-.564.599-1.153.599-.78 0-1.272-.538-1.292-1.399v-.077h3.88v-.446c0-1.784-.983-2.851-2.65-2.851-1.681 0-2.717 1.138-2.717 2.974 0 1.825 1.015 2.912 2.738 2.912 1.384 0 2.363-.661 2.584-1.712Zm-3.83-1.805c.052-.759.54-1.256 1.231-1.256.698 0 1.149.482 1.18 1.256h-2.41Z" clip-rule="evenodd"/>
  <path fill="#02807D" d="M56.285 135.007h1.492v1.399h1.174v1.134h-1.174v2.594c0 .507.225.743.733.743.195 0 .297-.01.44-.025v1.102a4.15 4.15 0 0 1-.748.067c-1.374 0-1.917-.447-1.917-1.544v-2.937h-.882v-1.134h.882v-1.399ZM52.758 134.658a.84.84 0 0 0 .845.831c.462 0 .841-.369.841-.831a.837.837 0 0 0-.84-.835.841.841 0 0 0-.846.835ZM52.855 136.355V142h1.492v-5.645h-1.492ZM45.565 139.954h1.497c.071.616.676 1.01 1.548 1.01.805 0 1.374-.405 1.374-.979 0-.487-.37-.769-1.277-.969l-.964-.21c-1.348-.287-2.01-.979-2.01-2.102 0-1.379 1.123-2.292 2.83-2.292 1.631 0 2.785.908 2.83 2.215h-1.455c-.072-.605-.616-1-1.364-1-.774 0-1.287.374-1.287.954 0 .466.354.738 1.22.928l.892.189c1.487.318 2.128.959 2.128 2.103 0 1.476-1.143 2.389-3 2.389-1.763 0-2.906-.867-2.962-2.236Z"/>
  <path fill="#545A61" fill-rule="evenodd" d="M27 70.108a4.108 4.108 0 1 1 8.216 0 4.108 4.108 0 0 1-8.216 0Zm4.108-2.983a2.983 2.983 0 1 0 0 5.966 2.983 2.983 0 0 0 0-5.966Z" clip-rule="evenodd"/>
  <path fill="#545A61" d="M33.964 74.512v-.258l1.288-1.289h.258l1.945 1.945v1.362l-.182.185h-1.365l-1.944-1.945Z"/>
  <path fill="#545A61" fill-rule="evenodd" d="m35.392 171.86-.96-.809-1.278-.116-1.47-1.48-.323-2.379-1.174-1.056v-1.082h2.009l2.58 1.074 1.626 1.659.13 1.185.977.886.138-.139h.493l.298.298v.493l-2.416 2.418h-.526l-.265-.265v-.526l.16-.161Zm1.368-1.37-1.26-1.121c-.017-.127-.172-1.217-.172-1.207l-1.343-1.358-2.513-1.011.861.9.443 2.339.783.784 1.225.16 1.337 1.155.64-.641Z" clip-rule="evenodd"/>
  <path fill="#545A61" d="M32.438 171.476v.258l-3.329 3.328h-1.365l-.181-.184v-1.362l3.328-3.328h.258l1.288 1.288ZM58.34 166.673c0 .42.343.753.759.753.42 0 .764-.333.764-.753a.76.76 0 0 0-.764-.754.76.76 0 0 0-.76.754ZM58.468 168.365v5.603h1.266v-5.603h-1.266ZM61.365 173.968v-7.772h1.272v7.772h-1.272Z"/>
  <path fill="#545A61" fill-rule="evenodd" d="M63.969 171.164c0 1.779.887 2.897 2.307 2.897.78 0 1.425-.364 1.743-.98h.087v.887h1.23v-7.772h-1.27v3.061h-.088c-.297-.616-.933-.985-1.702-.985-1.415 0-2.307 1.118-2.307 2.892Zm1.302.005c0-1.143.533-1.836 1.4-1.836.871 0 1.41.703 1.41 1.836 0 1.138-.534 1.835-1.41 1.835-.872 0-1.4-.687-1.4-1.835Z" clip-rule="evenodd"/>
  <path fill="#545A61" d="M73.06 168.257c-1.324 0-2.246.702-2.246 1.707 0 .841.507 1.333 1.584 1.579l.994.231c.534.123.775.328.775.646 0 .425-.447.718-1.087.718-.636 0-1.03-.257-1.154-.672H70.67c.097 1.01.98 1.615 2.379 1.615 1.4 0 2.389-.713 2.389-1.784 0-.826-.497-1.282-1.569-1.528l-.99-.22c-.563-.134-.83-.334-.83-.652 0-.415.436-.697 1.015-.697.595 0 .97.257 1.062.651h1.194c-.092-1.01-.928-1.594-2.26-1.594ZM56.895 168.365v5.603H55.67v-.892h-.087c-.272.641-.82 1.005-1.677 1.005-1.225 0-1.943-.764-1.943-2.076v-3.64h1.271v3.332c0 .872.354 1.292 1.113 1.292.825 0 1.276-.513 1.276-1.359v-3.265h1.272Z"/>
  <path fill="#545A61" fill-rule="evenodd" d="M45 173.968h3.163c1.58 0 2.543-.8 2.543-2.102 0-.964-.687-1.681-1.681-1.774V170c.743-.118 1.317-.805 1.317-1.584 0-1.138-.846-1.846-2.25-1.846H45v7.398Zm1.323-4.281v-2.086h1.446c.8 0 1.266.384 1.266 1.045 0 .677-.497 1.041-1.436 1.041h-1.276Zm1.538 3.251h-1.538v-2.313h1.487c1.01 0 1.543.395 1.543 1.149 0 .759-.518 1.164-1.492 1.164Z" clip-rule="evenodd"/>
  <path fill="#545A61" d="M30 198.723v-1.696l.267-.277h1.716l.267.277v1.696l-.267.277h-1.716l-.267-.277ZM30.267 207.25h1.716l.267-.277v-1.696l-.267-.277h-1.716l-.267.277v1.696l.267.277ZM27.311 203.312h2.003l.311-.322v-1.98l-.311-.322h-2.003l-.311.322v1.98l.311.322ZM36.311 206.875h2.003l.311-.323v-1.979l-.311-.323h-2.003l-.311.323v1.979l.311.323Z"/>
  <path fill="#545A61" fill-rule="evenodd" d="m30.912 201.812 2.275-2.275h.377l2.274 2.275v.377l-2.275 2.274h-.377l-2.274-2.274v-.377Zm2.463 1.249 1.06-1.061-1.06-1.061-1.06 1.061 1.06 1.061Z" clip-rule="evenodd"/>
  <path fill="#545A61" d="M38.314 199.75h-2.003l-.311-.323v-1.979l.311-.323h2.003l.311.323v1.979l-.311.323ZM45 202.002c0 2.395 1.302 3.882 3.4 3.882 1.706 0 2.957-1.01 3.132-2.508H50.23c-.18.831-.893 1.359-1.83 1.359-1.262 0-2.047-1.051-2.047-2.738 0-1.681.785-2.732 2.041-2.732.933 0 1.646.579 1.83 1.471h1.303c-.154-1.533-1.451-2.62-3.133-2.62-2.097 0-3.394 1.482-3.394 3.886ZM84.836 198.721h1.267v1.41h1.2v.99h-1.2v2.789c0 .559.235.81.769.81.174 0 .271-.01.418-.025l.012-.001v.974a3.62 3.62 0 0 1-.666.057c-1.287 0-1.8-.431-1.8-1.513v-3.091h-.887v-.99h.887v-1.41ZM83.145 201.967h-1.21c-.118-.544-.538-.939-1.235-.939-.872 0-1.39.687-1.39 1.856 0 1.19.523 1.882 1.39 1.882.661 0 1.102-.313 1.235-.902h1.21c-.138 1.158-1.02 1.948-2.44 1.948-1.687 0-2.682-1.092-2.682-2.928 0-1.815.99-2.896 2.677-2.896 1.44 0 2.312.82 2.445 1.979Z"/>
  <path fill="#545A61" fill-rule="evenodd" d="M76.967 204.166h-1.204c-.185.42-.62.656-1.252.656-.835 0-1.373-.594-1.404-1.543v-.067h3.917v-.405c0-1.758-.96-2.819-2.559-2.819-1.625 0-2.635 1.133-2.635 2.932 0 1.795.995 2.892 2.646 2.892 1.322 0 2.26-.636 2.491-1.646Zm-3.855-1.8c.056-.84.59-1.389 1.348-1.389.764 0 1.267.538 1.292 1.389h-2.64Z" clip-rule="evenodd"/>
  <path fill="#545A61" d="M65.688 205.699v-5.604h1.225v.897H67c.267-.625.83-1.004 1.666-1.004 1.251 0 1.933.753 1.933 2.086v3.625h-1.271v-3.327c0-.872-.36-1.308-1.133-1.308-.76 0-1.236.528-1.236 1.369v3.266h-1.272ZM59.268 200.095v5.604h1.271v-3.266c0-.841.477-1.369 1.236-1.369.774 0 1.133.436 1.133 1.308v3.327h1.271v-3.625c0-1.333-.682-2.086-1.933-2.086-.835 0-1.4.379-1.666 1.004h-.087v-.897h-1.225Z"/>
  <path fill="#545A61" fill-rule="evenodd" d="M55.29 205.812c-1.681 0-2.696-1.097-2.696-2.917 0-1.805 1.03-2.907 2.697-2.907 1.67 0 2.696 1.097 2.696 2.907 0 1.82-1.02 2.917-2.697 2.917Zm0-1.041c.888 0 1.39-.687 1.39-1.871 0-1.185-.508-1.872-1.39-1.872-.886 0-1.394.687-1.394 1.872 0 1.184.508 1.871 1.395 1.871Z" clip-rule="evenodd"/>
  <path fill="#545A61" d="M31.75 230.625H30.5l-.125-.125v-1.971l.53-.529h.44l.53.529v1.971l-.125.125ZM35.5 230.625h-1.25l-.125-.125v-1.971l.53-.529h.44l.53.529v1.971l-.125.125Z"/>
  <path fill="#545A61" fill-rule="evenodd" d="m28.875 231.911.15-.161h7.95l.15.161v1.178l-.15.161h-.225v1.5l-1.64 1.286v.857l-.844.857h-.516v1.735l-.53.515h-.44l-.53-.515v-1.735h-.516l-.843-.857v-.857l-1.688-1.286v-1.5h-.178l-.15-.161v-1.178Zm1.453.964h5.297v1.327l-1.64 1.286v.944l-.19.193h-1.59l-.19-.193v-.954l-1.687-1.285v-1.318Z" clip-rule="evenodd"/>
  <path fill="#545A61" d="M79.555 230.673c0 .42.343.753.758.753.42 0 .764-.333.764-.753a.76.76 0 0 0-.763-.754.76.76 0 0 0-.76.754ZM79.683 232.365v5.603h1.266v-5.603h-1.266Z"/>
  <path fill="#545A61" fill-rule="evenodd" d="M84.949 238.081c-1.682 0-2.697-1.097-2.697-2.917 0-1.805 1.03-2.907 2.697-2.907 1.671 0 2.697 1.097 2.697 2.907 0 1.82-1.02 2.917-2.697 2.917Zm0-1.041c.887 0 1.39-.687 1.39-1.871s-.508-1.871-1.39-1.871c-.887 0-1.395.687-1.395 1.871s.508 1.871 1.395 1.871Z" clip-rule="evenodd"/>
  <path fill="#545A61" d="M88.928 232.365v5.603h1.271v-3.266c0-.84.477-1.369 1.236-1.369.774 0 1.133.436 1.133 1.308v3.327h1.271v-3.624c0-1.334-.681-2.087-1.933-2.087-.835 0-1.4.379-1.666 1.005h-.087v-.897h-1.225ZM97.463 232.257c-1.322 0-2.245.702-2.245 1.707 0 .841.507 1.333 1.584 1.579l.995.231c.533.123.774.328.774.646 0 .425-.446.718-1.087.718-.636 0-1.03-.257-1.154-.672h-1.256c.098 1.01.98 1.615 2.38 1.615 1.399 0 2.388-.713 2.388-1.784 0-.826-.497-1.282-1.569-1.528l-.99-.22c-.563-.134-.83-.334-.83-.652 0-.415.436-.697 1.016-.697.594 0 .969.257 1.06.651h1.195c-.092-1.01-.928-1.594-2.26-1.594ZM73.757 233.964c0-1.005.923-1.707 2.245-1.707 1.333 0 2.17.584 2.261 1.594H77.07c-.092-.394-.467-.651-1.061-.651-.58 0-1.016.282-1.016.697 0 .318.267.518.831.652l.99.22c1.071.246 1.568.702 1.568 1.528 0 1.071-.99 1.784-2.389 1.784-1.4 0-2.281-.605-2.379-1.615h1.256c.123.415.518.672 1.154.672.64 0 1.087-.293 1.087-.718 0-.318-.241-.523-.774-.646l-.995-.231c-1.077-.246-1.584-.738-1.584-1.579ZM67.467 232.365v5.603h1.271v-3.266c0-.84.477-1.369 1.236-1.369.774 0 1.133.436 1.133 1.308v3.327h1.271v-3.624c0-1.334-.681-2.087-1.932-2.087-.836 0-1.4.379-1.667 1.005h-.087v-.897h-1.225Z"/>
  <path fill="#545A61" fill-rule="evenodd" d="M64.928 236.435h1.205c-.23 1.01-1.169 1.646-2.491 1.646-1.651 0-2.646-1.097-2.646-2.892 0-1.799 1.01-2.932 2.635-2.932 1.6 0 2.559 1.061 2.559 2.82v.405h-3.917v.066c.03.949.569 1.544 1.404 1.544.631 0 1.067-.236 1.252-.657Zm-1.302-3.189c-.759 0-1.292.549-1.348 1.39h2.64c-.025-.851-.528-1.39-1.292-1.39Z" clip-rule="evenodd"/>
  <path fill="#545A61" d="M58.852 230.99h-1.266v1.41H56.7v.99h.887v3.091c0 1.082.513 1.513 1.8 1.513.246 0 .482-.021.666-.056v-.975l-.012.002c-.147.014-.244.024-.418.024-.534 0-.77-.251-.77-.81v-2.789h1.2v-.99h-1.2v-1.41ZM53.475 236.03h-.087l-1.143 1.949H50.87l1.815-2.779-1.83-2.825h1.476l1.113 1.943h.087l1.107-1.943h1.4l-1.81 2.768 1.83 2.836h-1.435l-1.149-1.949ZM49.789 237.968v-1.112h-3.466v-2.118h3.276v-1.051h-3.276v-2.004h3.466v-1.113H45v7.398h4.789Z"/>
  <path fill="#545A61" fill-rule="evenodd" d="M33 271.25a5.25 5.25 0 1 0 0-10.5 5.25 5.25 0 0 0 0 10.5Zm-2.483-4.688a8.024 8.024 0 0 0 1.051 3.308 4.132 4.132 0 0 1-2.655-3.308h1.604Zm0-1.124h-1.604a4.132 4.132 0 0 1 2.655-3.308 8.024 8.024 0 0 0-1.05 3.308Zm3.914 4.432a4.13 4.13 0 0 0 2.656-3.308h-1.605a8.025 8.025 0 0 1-1.05 3.308Zm0-7.74a4.13 4.13 0 0 1 2.656 3.308h-1.605a8.025 8.025 0 0 0-1.05-3.308Zm-2.783 4.432A6.896 6.896 0 0 0 33 269.996a6.896 6.896 0 0 0 1.352-3.434h-2.704ZM33 262.004a6.896 6.896 0 0 1 1.352 3.434h-2.704A6.896 6.896 0 0 1 33 262.004Z" clip-rule="evenodd"/>
  <path fill="#545A61" d="M74.49 262.673c0 .42.344.753.759.753.42 0 .764-.333.764-.753a.76.76 0 0 0-.764-.754.76.76 0 0 0-.759.754ZM74.618 264.365v5.603h1.267v-5.603h-1.267ZM77.465 269.968v-5.603h1.225v.897h.087c.267-.626.83-1.005 1.667-1.005 1.25 0 1.932.753 1.932 2.087v3.624h-1.271v-3.327c0-.872-.359-1.308-1.133-1.308-.759 0-1.236.529-1.236 1.369v3.266h-1.271ZM83.755 265.964c0-1.005.923-1.707 2.246-1.707 1.332 0 2.168.584 2.26 1.594h-1.194c-.092-.394-.467-.651-1.061-.651-.58 0-1.016.282-1.016.697 0 .318.267.518.831.652l.99.22c1.071.246 1.568.702 1.568 1.528 0 1.071-.99 1.784-2.389 1.784-1.4 0-2.281-.605-2.379-1.615h1.256c.123.415.518.672 1.154.672.64 0 1.087-.293 1.087-.718 0-.318-.241-.523-.774-.646l-.995-.231c-1.076-.246-1.584-.738-1.584-1.579Z"/>
  <path fill="#545A61" fill-rule="evenodd" d="M70.096 270.061c-1.082 0-1.856-.657-1.856-1.682 0-1.005.764-1.595 2.128-1.671l1.446-.088v-.482c0-.558-.37-.871-1.056-.871-.585 0-.985.21-1.103.595h-1.2c.103-.98 1.031-1.605 2.364-1.605 1.44 0 2.25.697 2.25 1.881v3.83h-1.225v-.769h-.087c-.312.544-.928.862-1.66.862Zm.374-.98c.77 0 1.344-.502 1.344-1.169v-.456l-1.267.087c-.712.046-1.046.308-1.046.774 0 .482.405.764.97.764Z" clip-rule="evenodd"/>
  <path fill="#545A61" d="M59.037 264.365v5.603h1.272v-3.409c0-.697.466-1.226 1.097-1.226.625 0 1.015.38 1.015 1v3.635h1.236v-3.501c0-.641.435-1.134 1.097-1.134.681 0 1.025.365 1.025 1.093v3.542h1.266v-3.855c0-1.164-.676-1.856-1.8-1.856-.778 0-1.424.4-1.701 1.01h-.087c-.236-.621-.775-1.01-1.549-1.01-.743 0-1.317.379-1.558 1.01h-.087v-.902h-1.226Z"/>
  <path fill="#545A61" fill-rule="evenodd" d="M55.06 270.081c-1.682 0-2.697-1.097-2.697-2.917 0-1.805 1.03-2.907 2.697-2.907 1.671 0 2.697 1.097 2.697 2.907 0 1.82-1.02 2.917-2.697 2.917Zm0-1.041c.887 0 1.39-.687 1.39-1.871s-.508-1.871-1.39-1.871c-.887 0-1.395.687-1.395 1.871s.508 1.871 1.395 1.871ZM47.774 262.57H45v7.398h2.774c2.215 0 3.48-1.358 3.48-3.732 0-2.323-1.28-3.666-3.48-3.666Zm-1.451 6.286v-5.173h1.276c1.451 0 2.308.943 2.308 2.573 0 1.667-.836 2.6-2.308 2.6h-1.276ZM31.125 297.25a1.875 1.875 0 1 0 0-3.75 1.875 1.875 0 0 0 0 3.75Zm0-1.125a.75.75 0 1 0 0-1.5.75.75 0 0 0 0 1.5ZM31.125 298.375c.558 0 1.084-.135 1.548-.375h1.452l.75.75v3l-.75.75h-6l-.75-.75v-3l.75-.75h1.452c.464.24.99.375 1.548.375Zm1.8.75h.734l.091.091v2.068l-.091.091h-5.068l-.091-.091v-2.068l.091-.091h.733a4.496 4.496 0 0 0 3.602 0Z" clip-rule="evenodd"/>
  <path fill="#545A61" d="M37.5 300.885v-1.294l-.091-.091h-1.256l-.15-.141v-.844l.15-.14h1.722l.75.75v2.25l-.598.635h-.679l-.001.001h-1.194l-.15-.141v-.843l.15-.141 1.347-.001Z"/>
  <path fill="#545A61" fill-rule="evenodd" d="M35.7 297.4a1.575 1.575 0 1 0 0-3.15 1.575 1.575 0 0 0 0 3.15Zm.45-1.575a.45.45 0 1 1-.901-.001.45.45 0 0 1 .901.001ZM73.158 301.922c-.785 0-1.436-.364-1.754-.979h-.087v.887h-1.225v-7.773h1.271v3.061h.087c.293-.61.939-.984 1.708-.984 1.42 0 2.302 1.107 2.302 2.897 0 1.779-.887 2.891-2.302 2.891Zm-.4-4.727c-.867 0-1.415.702-1.415 1.836 0 1.133.543 1.835 1.415 1.835.871 0 1.394-.692 1.394-1.835 0-1.144-.528-1.836-1.394-1.836ZM81.596 300.297h-1.205c-.184.42-.62.656-1.25.656-.836 0-1.375-.595-1.405-1.543v-.067h3.917v-.405c0-1.758-.96-2.82-2.559-2.82-1.625 0-2.635 1.133-2.635 2.933 0 1.794.995 2.892 2.645 2.892 1.323 0 2.261-.636 2.492-1.646Zm-3.855-1.8c.056-.841.59-1.389 1.348-1.389.764 0 1.267.538 1.292 1.389h-2.64Z" clip-rule="evenodd"/>
  <path fill="#545A61" d="M87.046 297.826c0-1.005.923-1.708 2.245-1.708 1.334 0 2.17.585 2.261 1.595h-1.194c-.092-.395-.467-.651-1.061-.651-.58 0-1.016.282-1.016.697 0 .318.267.518.831.651l.99.221c1.071.246 1.568.702 1.568 1.527 0 1.072-.99 1.785-2.389 1.785-1.4 0-2.281-.605-2.379-1.615h1.256c.123.415.518.671 1.154.671.64 0 1.087-.292 1.087-.718 0-.317-.241-.522-.774-.646l-.995-.23c-1.076-.246-1.584-.738-1.584-1.579ZM82.93 301.83v-5.604h1.225v.872h.087c.154-.554.759-.964 1.482-.964.184 0 .41.02.528.051v1.159c-.097-.036-.436-.072-.651-.072-.826 0-1.4.513-1.4 1.302v3.256H82.93ZM60.523 296.226v5.604h1.272v-3.41c0-.697.466-1.225 1.097-1.225.626 0 1.015.379 1.015 1v3.635h1.236v-3.502c0-.641.436-1.133 1.097-1.133.682 0 1.025.364 1.025 1.092v3.543h1.267v-3.856c0-1.163-.677-1.856-1.8-1.856-.78 0-1.425.4-1.702 1.01h-.087c-.236-.62-.774-1.01-1.548-1.01-.744 0-1.318.38-1.56 1.01h-.086v-.902h-1.226Z"/>
  <path fill="#545A61" fill-rule="evenodd" d="M57.987 300.297h1.205c-.23 1.01-1.17 1.646-2.492 1.646-1.65 0-2.645-1.098-2.645-2.892 0-1.8 1.01-2.933 2.635-2.933 1.6 0 2.558 1.062 2.558 2.82v.405h-3.917v.067c.031.948.57 1.543 1.405 1.543.63 0 1.067-.236 1.251-.656Zm-1.302-3.189c-.759 0-1.292.548-1.349 1.389h2.64c-.025-.851-.527-1.389-1.291-1.389Z" clip-rule="evenodd"/>
  <path fill="#545A61" d="M51.409 301.83h1.23v-7.398h-1.548l-2.225 5.491h-.093l-2.225-5.491H45v7.398h1.23v-5.245h.072l2.046 5.014h.943l2.046-5.014h.072v5.245ZM31.245 333.33l-.15-.142h-2.362l-.42-.42v-7.036l.42-.42h6.292l.42.42v2.258l.142.135h.833l.142-.135v-2.722l-1.08-1.08h-7.215l-1.08 1.08v7.964l1.08 1.08h2.828l.15-.142v-.84Z"/>
  <path fill="#545A61" d="M29.625 327.982v-.839l.15-.143h4.2l.15.143v.839l-.15.143h-4.2l-.15-.143ZM29.625 329.393l.15-.143h1.95l.15.143v.839l-.15.143h-1.95l-.15-.143v-.839ZM35.392 330.938h.615l.143.149V333l-.15.143h-1.875l-.15-.143v-.615l.15-.143h1.125v-1.155l.142-.149Z"/>
  <path fill="#545A61" fill-rule="evenodd" d="M35.625 336A3.37 3.37 0 0 0 39 332.625a3.37 3.37 0 0 0-3.375-3.375 3.37 3.37 0 0 0-3.375 3.375A3.37 3.37 0 0 0 35.625 336Zm0-5.625a2.247 2.247 0 0 1 2.25 2.25 2.247 2.247 0 0 1-2.25 2.25 2.247 2.247 0 0 1-2.25-2.25 2.247 2.247 0 0 1 2.25-2.25Z" clip-rule="evenodd"/>
  <path fill="#545A61" d="M66.374 326.416a.756.756 0 0 1-.759-.753.76.76 0 0 1 .759-.754.76.76 0 0 1 .764.754c0 .42-.344.753-.764.753ZM65.743 332.958v-5.604h1.267v5.604h-1.267ZM75.582 332.958v-7.772h1.272v7.772h-1.272Z"/>
  <path fill="#545A61" fill-rule="evenodd" d="M78.188 330.154c0 1.82 1.015 2.917 2.696 2.917 1.677 0 2.697-1.097 2.697-2.917 0-1.81-1.025-2.907-2.697-2.907-1.666 0-2.697 1.102-2.697 2.907Zm4.086.005c0 1.184-.503 1.871-1.39 1.871-.887 0-1.394-.687-1.394-1.871s.507-1.871 1.394-1.871c.882 0 1.39.687 1.39 1.871ZM84.784 333.497c.103.963 1.046 1.594 2.487 1.594 1.635 0 2.671-.815 2.671-2.102v-5.635h-1.225v.898h-.087c-.308-.61-.974-.99-1.738-.99-1.43 0-2.318 1.118-2.318 2.835 0 1.682.882 2.779 2.297 2.779.78 0 1.39-.328 1.713-.933h.087v1.067c0 .712-.508 1.133-1.38 1.133-.697 0-1.148-.252-1.23-.646h-1.277Zm3.907-3.4c0 1.082-.533 1.769-1.42 1.769-.887 0-1.39-.687-1.39-1.774 0-1.082.503-1.769 1.39-1.769.882 0 1.42.687 1.42 1.774Z" clip-rule="evenodd"/>
  <path fill="#545A61" d="M70.26 325.98h-1.266v1.41h-.887v.99h.887v3.091c0 1.082.513 1.513 1.8 1.513.246 0 .482-.021.666-.057v-.974l-.012.002c-.147.014-.244.024-.418.024-.533 0-.77-.251-.77-.81v-2.789h1.2v-.99h-1.2v-1.41Z"/>
  <path fill="#545A61" fill-rule="evenodd" d="M58.756 330.154c0 1.779.887 2.897 2.307 2.897.78 0 1.425-.364 1.743-.98h.087v.887h1.23v-7.772h-1.27v3.061h-.088c-.297-.616-.933-.985-1.702-.985-1.415 0-2.307 1.118-2.307 2.892Zm1.302.005c0-1.143.533-1.836 1.4-1.836.871 0 1.41.703 1.41 1.836 0 1.138-.534 1.835-1.41 1.835-.872 0-1.4-.687-1.4-1.835Z" clip-rule="evenodd"/>
  <path fill="#545A61" d="M57.473 327.354v5.604h-1.225v-.892h-.087c-.272.641-.82 1.005-1.677 1.005-1.225 0-1.943-.764-1.943-2.076v-3.641h1.272v3.333c0 .872.353 1.292 1.112 1.292.826 0 1.277-.513 1.277-1.359v-3.266h1.271Z"/>
  <path fill="#545A61" fill-rule="evenodd" d="m49.696 331.046.626 1.912h1.42l-2.63-7.398h-1.487L45 332.958h1.338l.636-1.912h2.722Zm-2.414-1.02 1.015-3.077h.087l1.005 3.077H47.28ZM32.383 364.398l-1.78-1.78v-1.236l1.78-1.78h1.235l1.78 1.78v1.236l-1.78 1.78h-1.235Zm.77-3.671 1.12 1.121v.304l-1.12 1.121h-.304l-1.121-1.121v-.304l1.12-1.121h.304Z" clip-rule="evenodd"/>
  <path fill="#545A61" fill-rule="evenodd" d="M31.903 356.188h2.195l.911 1.821.444.256 2.032-.122 1.098 1.901-1.122 1.7v.512l1.122 1.7-1.098 1.901-2.032-.122-.444.256-.91 1.821h-2.196l-.91-1.822-.444-.255-2.033.122-1.098-1.901 1.123-1.701v-.51l-1.123-1.701 1.098-1.901 2.034.122.442-.255.911-1.822Zm.695 1.124-.75 1.503-1.028.593-1.678-.1-.402.697.926 1.403v1.184l-.926 1.403.402.697 1.677-.1 1.028.593.751 1.503h.805l.751-1.502 1.029-.594 1.676.1.402-.697-.925-1.401v-1.188l.925-1.401-.402-.697-1.677.1-1.028-.593-.75-1.503h-.806Z" clip-rule="evenodd"/>
  <path fill="#545A61" d="M95.875 357.663c0 .42.344.753.759.753.42 0 .764-.333.764-.753a.76.76 0 0 0-.764-.754.76.76 0 0 0-.759.754ZM96.003 359.354v5.604h1.266v-5.604h-1.266ZM98.848 364.958v-5.604h1.225v.898h.087c.267-.626.831-1.005 1.666-1.005 1.251 0 1.933.753 1.933 2.086v3.625h-1.271v-3.327c0-.872-.359-1.308-1.133-1.308-.759 0-1.236.529-1.236 1.369v3.266h-1.271ZM114.03 359.247c-1.323 0-2.246.702-2.246 1.707 0 .841.508 1.333 1.584 1.579l.995.231c.533.123.774.328.774.646 0 .425-.446.718-1.087.718-.635 0-1.03-.257-1.153-.672h-1.256c.097 1.01.979 1.615 2.379 1.615 1.399 0 2.389-.713 2.389-1.784 0-.826-.498-1.282-1.569-1.528l-.99-.22c-.564-.134-.83-.334-.83-.652 0-.415.436-.697 1.015-.697.595 0 .969.257 1.061.651h1.195c-.093-1.01-.928-1.594-2.261-1.594Z"/>
  <path fill="#545A61" fill-rule="evenodd" d="M105.191 365.497c.102.963 1.046 1.594 2.486 1.594 1.636 0 2.671-.815 2.671-2.102v-5.635h-1.225v.898h-.087c-.308-.61-.974-.99-1.738-.99-1.431 0-2.318 1.118-2.318 2.835 0 1.682.882 2.779 2.297 2.779.78 0 1.39-.328 1.713-.933h.087v1.067c0 .712-.508 1.133-1.379 1.133-.698 0-1.149-.252-1.231-.646h-1.276Zm3.906-3.4c0 1.082-.533 1.769-1.42 1.769-.887 0-1.389-.687-1.389-1.774 0-1.082.502-1.769 1.389-1.769.882 0 1.42.687 1.42 1.774Z" clip-rule="evenodd"/>
  <path fill="#545A61" d="M92.25 357.98h1.267v1.41h1.2v.99h-1.2v2.789c0 .559.235.81.769.81.174 0 .271-.01.418-.024l.012-.002v.974a3.62 3.62 0 0 1-.666.057c-1.287 0-1.8-.431-1.8-1.513v-3.091h-.887v-.99h.887v-1.41ZM89.343 357.98h-1.267v1.41h-.886v.99h.886v3.091c0 1.082.513 1.513 1.8 1.513.246 0 .482-.021.666-.057v-.974l-.012.002c-.147.014-.244.024-.418.024-.533 0-.77-.251-.77-.81v-2.789h1.2v-.99h-1.2v-1.41Z"/>
  <path fill="#545A61" fill-rule="evenodd" d="M85.133 363.425h1.205c-.23 1.01-1.169 1.646-2.491 1.646-1.651 0-2.646-1.097-2.646-2.892 0-1.799 1.01-2.932 2.635-2.932 1.6 0 2.559 1.061 2.559 2.82v.405h-3.917v.066c.03.949.569 1.544 1.405 1.544.63 0 1.066-.236 1.25-.657Zm-1.302-3.189c-.758 0-1.292.549-1.348 1.39h2.64c-.025-.851-.528-1.39-1.292-1.39Z" clip-rule="evenodd"/>
  <path fill="#545A61" d="M77.813 359.247c-1.323 0-2.246.702-2.246 1.707 0 .841.508 1.333 1.585 1.579l.994.231c.533.123.774.328.774.646 0 .425-.446.718-1.087.718-.635 0-1.03-.257-1.153-.672h-1.256c.097 1.01.98 1.615 2.379 1.615 1.4 0 2.389-.713 2.389-1.784 0-.826-.497-1.282-1.569-1.528l-.99-.22c-.563-.134-.83-.334-.83-.652 0-.415.436-.697 1.015-.697.595 0 .97.257 1.061.651h1.195c-.092-1.01-.928-1.594-2.261-1.594ZM63.38 364.958v-5.604h1.226v.903h.087c.241-.631.816-1.01 1.559-1.01.774 0 1.313.389 1.548 1.01h.088c.276-.61.922-1.01 1.702-1.01 1.122 0 1.8.692 1.8 1.856v3.855h-1.267v-3.542c0-.728-.344-1.093-1.026-1.093-.661 0-1.097.493-1.097 1.134v3.501h-1.235v-3.635c0-.62-.39-1-1.016-1-.63 0-1.097.529-1.097 1.226v3.409h-1.271Z"/>
  <path fill="#545A61" fill-rule="evenodd" d="M57.018 363.369c0 1.025.774 1.682 1.855 1.682.734 0 1.349-.318 1.662-.862h.087v.769h1.225v-3.83c0-1.184-.81-1.881-2.25-1.881-1.334 0-2.262.625-2.364 1.605h1.2c.117-.385.517-.595 1.102-.595.687 0 1.056.313 1.056.871v.482l-1.446.088c-1.364.076-2.127.666-2.127 1.671Zm3.573-.467c0 .667-.574 1.169-1.343 1.169-.564 0-.97-.282-.97-.764 0-.466.334-.728 1.047-.774l1.266-.087v.456ZM54.792 363.425h1.205c-.231 1.01-1.17 1.646-2.492 1.646-1.651 0-2.646-1.097-2.646-2.892 0-1.799 1.01-2.932 2.636-2.932 1.6 0 2.558 1.061 2.558 2.82v.405h-3.917v.066c.03.949.57 1.544 1.405 1.544.63 0 1.066-.236 1.25-.657Zm-1.303-3.189c-.758 0-1.291.549-1.348 1.39h2.64c-.025-.851-.528-1.39-1.291-1.39Z" clip-rule="evenodd"/>
  <path fill="#545A61" d="M47.276 364.958H48.6v-6.285h2.282v-1.113H45v1.113h2.276v6.285Z"/>
  <path fill="#545A61" fill-rule="evenodd" d="m35.475 388.75-6.918 6.918-.148.261-.659 2.636.682.682 2.636-.659.26-.148 6.919-6.918v-.795l-1.977-1.977h-.795Zm-6.406 9.178.393-1.575 4.612-4.611 1.181 1.181-4.612 4.611-1.574.394Zm6.982-5.801 1.002-1.003-1.18-1.181-1.003 1.003 1.18 1.181Z" clip-rule="evenodd"/>
  <path fill="#545A61" d="M38.1 399.25h-5.326l-.15-.141v-.843l.15-.141H38.1l.151.141v.843l-.15.141Z"/>
  <path fill="#545A61" fill-rule="evenodd" d="M163.54 398.061c-1.42 0-2.307-1.118-2.307-2.897 0-1.774.892-2.892 2.307-2.892.769 0 1.405.369 1.702.985h.088v-3.061h1.271v7.772h-1.23v-.887h-.088c-.317.616-.963.98-1.743.98Zm.395-4.728c-.866 0-1.4.693-1.4 1.836 0 1.148.528 1.835 1.4 1.835.877 0 1.41-.697 1.41-1.835 0-1.133-.538-1.836-1.41-1.836Z" clip-rule="evenodd"/>
  <path fill="#545A61" d="M157.285 392.365v5.603h1.272v-3.255c0-.79.574-1.303 1.4-1.303.215 0 .553.036.651.072v-1.159a2.577 2.577 0 0 0-.528-.051c-.723 0-1.328.41-1.482.964h-.087v-.871h-1.226Z"/>
  <path fill="#545A61" fill-rule="evenodd" d="M152.779 398.061c-1.082 0-1.856-.657-1.856-1.682 0-1.005.764-1.595 2.128-1.671l1.445-.088v-.482c0-.558-.369-.871-1.056-.871-.584 0-.984.21-1.102.595h-1.2c.103-.98 1.031-1.605 2.364-1.605 1.44 0 2.25.697 2.25 1.881v3.83h-1.225v-.769h-.087c-.313.544-.928.862-1.661.862Zm.374-.98c.769 0 1.343-.502 1.343-1.169v-.456l-1.266.087c-.713.046-1.046.308-1.046.774 0 .482.405.764.969.764ZM144.56 395.164c0 1.82 1.015 2.917 2.697 2.917 1.677 0 2.697-1.097 2.697-2.917 0-1.81-1.026-2.907-2.697-2.907-1.666 0-2.697 1.102-2.697 2.907Zm4.086.005c0 1.184-.502 1.871-1.389 1.871s-1.394-.687-1.394-1.871.507-1.871 1.394-1.871c.882 0 1.389.687 1.389 1.871ZM141.259 398.061c-.785 0-1.436-.364-1.754-.98h-.087v.887h-1.225v-7.772h1.271v3.061h.087c.293-.611.939-.985 1.708-.985 1.42 0 2.302 1.108 2.302 2.897 0 1.779-.887 2.892-2.302 2.892Zm-.4-4.728c-.867 0-1.415.703-1.415 1.836s.543 1.835 1.415 1.835c.871 0 1.394-.692 1.394-1.835s-.528-1.836-1.394-1.836Z" clip-rule="evenodd"/>
  <path fill="#545A61" d="M131.661 390.196v7.772h1.271v-3.255c0-.821.467-1.369 1.303-1.369.738 0 1.128.441 1.128 1.307v3.317h1.271v-3.614c0-1.333-.728-2.092-1.928-2.092-.835 0-1.435.379-1.702 1.01h-.092v-3.076h-1.251ZM125.698 393.964c0-1.005.923-1.707 2.246-1.707 1.333 0 2.169.584 2.261 1.594h-1.195c-.092-.394-.466-.651-1.061-.651-.579 0-1.015.282-1.015.697 0 .318.266.518.83.652l.99.22c1.071.246 1.569.702 1.569 1.528 0 1.071-.99 1.784-2.389 1.784-1.4 0-2.282-.605-2.379-1.615h1.256c.123.415.518.672 1.153.672.641 0 1.087-.293 1.087-.718 0-.318-.241-.523-.774-.646l-.995-.231c-1.076-.246-1.584-.738-1.584-1.579Z"/>
  <path fill="#545A61" fill-rule="evenodd" d="M119.464 396.379c0 1.025.774 1.682 1.856 1.682.733 0 1.348-.318 1.661-.862h.087v.769h1.225v-3.83c0-1.184-.81-1.881-2.25-1.881-1.333 0-2.261.625-2.364 1.605h1.2c.118-.385.518-.595 1.102-.595.687 0 1.056.313 1.056.871v.482l-1.445.088c-1.364.076-2.128.666-2.128 1.671Zm3.573-.467c0 .667-.574 1.169-1.343 1.169-.564 0-.969-.282-.969-.764 0-.466.333-.728 1.046-.774l1.266-.087v.456ZM115.111 398.061c-1.42 0-2.307-1.118-2.307-2.897 0-1.774.892-2.892 2.307-2.892.769 0 1.405.369 1.702.985h.087v-3.061h1.272v7.772h-1.231v-.887h-.087c-.318.616-.964.98-1.743.98Zm.395-4.728c-.867 0-1.4.693-1.4 1.836 0 1.148.528 1.835 1.4 1.835.877 0 1.41-.697 1.41-1.835 0-1.133-.539-1.836-1.41-1.836Z" clip-rule="evenodd"/>
  <path fill="#545A61" d="M105.913 392.365v5.603h1.272v-3.255c0-.79.574-1.303 1.399-1.303.216 0 .554.036.652.072v-1.159a2.577 2.577 0 0 0-.528-.051c-.723 0-1.328.41-1.482.964h-.087v-.871h-1.226Z"/>
  <path fill="#545A61" fill-rule="evenodd" d="M101.935 398.081c-1.682 0-2.697-1.097-2.697-2.917 0-1.805 1.031-2.907 2.697-2.907 1.671 0 2.697 1.097 2.697 2.907 0 1.82-1.021 2.917-2.697 2.917Zm0-1.041c.887 0 1.389-.687 1.389-1.871s-.507-1.871-1.389-1.871c-.887 0-1.395.687-1.395 1.871s.508 1.871 1.395 1.871Z" clip-rule="evenodd"/>
  <path fill="#545A61" d="M97.095 390.99h-1.266v1.41h-.887v.99h.887v3.091c0 1.082.512 1.513 1.8 1.513.245 0 .481-.021.666-.056v-.975l-.013.002c-.147.014-.243.024-.418.024-.533 0-.769-.251-.769-.81v-2.789h1.2v-.99h-1.2v-1.41ZM93.209 391.426a.756.756 0 0 1-.759-.753.76.76 0 0 1 .759-.754.76.76 0 0 1 .764.754c0 .42-.344.753-.764.753ZM92.578 397.968v-5.603h1.266v5.603h-1.266Z"/>
  <path fill="#545A61" fill-rule="evenodd" d="M85.59 395.164c0 1.779.887 2.897 2.307 2.897.78 0 1.425-.364 1.743-.98h.088v.887h1.23v-7.772h-1.272v3.061H89.6c-.297-.616-.933-.985-1.702-.985-1.415 0-2.307 1.118-2.307 2.892Zm1.302.005c0-1.143.534-1.836 1.4-1.836.872 0 1.41.703 1.41 1.836 0 1.138-.533 1.835-1.41 1.835-.872 0-1.4-.687-1.4-1.835ZM83.33 396.435h1.204c-.23 1.01-1.169 1.646-2.492 1.646-1.65 0-2.645-1.097-2.645-2.892 0-1.799 1.01-2.932 2.635-2.932 1.6 0 2.558 1.061 2.558 2.82v.405h-3.917v.066c.031.949.57 1.544 1.405 1.544.63 0 1.066-.236 1.251-.657Zm-1.303-3.189c-.759 0-1.292.549-1.349 1.39h2.64c-.025-.851-.527-1.39-1.291-1.39Z" clip-rule="evenodd"/>
  <path fill="#545A61" d="M73.993 390.196v7.772h1.271v-7.772h-1.271Z"/>
  <path fill="#545A61" fill-rule="evenodd" d="M69.435 398.061c-1.082 0-1.856-.657-1.856-1.682 0-1.005.764-1.595 2.128-1.671l1.446-.088v-.482c0-.558-.37-.871-1.057-.871-.584 0-.984.21-1.102.595h-1.2c.103-.98 1.031-1.605 2.364-1.605 1.44 0 2.25.697 2.25 1.881v3.83h-1.225v-.769h-.087c-.313.544-.928.862-1.66.862Zm.374-.98c.77 0 1.344-.502 1.344-1.169v-.456l-1.267.087c-.712.046-1.046.308-1.046.774 0 .482.405.764.97.764Z" clip-rule="evenodd"/>
  <path fill="#545A61" d="M66.333 397.968v-5.603h-1.271v3.265c0 .846-.451 1.359-1.277 1.359-.759 0-1.112-.42-1.112-1.292v-3.332H61.4v3.64c0 1.312.718 2.076 1.943 2.076.856 0 1.405-.364 1.677-1.005h.087v.892h1.225ZM55.541 393.964c0-1.005.923-1.707 2.246-1.707 1.333 0 2.168.584 2.26 1.594h-1.194c-.092-.394-.467-.651-1.061-.651-.58 0-1.015.282-1.015.697 0 .318.266.518.83.652l.99.22c1.071.246 1.569.702 1.569 1.528 0 1.071-.99 1.784-2.39 1.784-1.4 0-2.281-.605-2.379-1.615h1.257c.123.415.517.672 1.153.672.641 0 1.087-.293 1.087-.718 0-.318-.24-.523-.774-.646l-.995-.231c-1.076-.246-1.584-.738-1.584-1.579ZM52.696 390.673c0 .42.343.753.758.753.42 0 .764-.333.764-.753a.76.76 0 0 0-.764-.754.76.76 0 0 0-.758.754ZM52.824 392.365v5.603h1.266v-5.603h-1.266ZM49.107 397.968h-1.523L45 390.57h1.461l1.861 5.886h.087l1.846-5.886h1.41l-2.558 7.398ZM178.492 99.375l-1.494-1.37-1.493 1.37h-.996l-.134-.123v-.92L176.911 96h.188l2.526 2.329v.923l-.135.123h-.998ZM175.508 101.625l1.494 1.37 1.493-1.37h.996l.134.123v.92L177.089 105h-.188l-2.526-2.329v-.923l.135-.123h.998ZM92.83 99.922v4.578h1.266v-4.578H95.3v-.99h-1.22v-.518c0-.533.235-.8.835-.8.18 0 .334.016.436.031v-.917a4.13 4.13 0 0 0-.708-.052c-1.245 0-1.814.549-1.814 1.666v.59h-.918v.99h.918Z"/>
  <path fill="#545A61" fill-rule="evenodd" d="M87.913 104.592c-1.082 0-1.856-.656-1.856-1.681 0-1.005.764-1.595 2.128-1.672l1.445-.087v-.482c0-.559-.369-.871-1.056-.871-.584 0-.984.21-1.102.594h-1.2c.103-.979 1.03-1.604 2.364-1.604 1.44 0 2.25.697 2.25 1.881v3.83h-1.225v-.769h-.087c-.313.543-.928.861-1.661.861Zm.374-.979c.77 0 1.343-.502 1.343-1.169v-.456l-1.266.087c-.713.046-1.046.308-1.046.774 0 .482.405.764.97.764ZM83.832 102.967h1.205c-.231 1.01-1.17 1.646-2.492 1.646-1.651 0-2.646-1.097-2.646-2.892 0-1.8 1.01-2.932 2.636-2.932 1.6 0 2.558 1.06 2.558 2.819v.405h-3.917v.067c.03.949.57 1.543 1.405 1.543.63 0 1.066-.236 1.25-.656Zm-1.302-3.189c-.76 0-1.293.549-1.349 1.389h2.64c-.025-.851-.528-1.389-1.291-1.389Z" clip-rule="evenodd"/>
  <path fill="#545A61" d="M79.14 103.367v1.133h-4.716v-7.398h1.323v6.265h3.394ZM70.379 98.896 68.86 104.5h-1.338l-1.092-4.061h-.087l-1.087 4.061h-1.323l-1.517-5.604h1.281l.933 4.209h.088l1.076-4.209h1.215l1.087 4.209h.087l.928-4.209h1.267Z"/>
  <path fill="#545A61" fill-rule="evenodd" d="M60.402 102.967h1.204c-.23 1.01-1.169 1.646-2.491 1.646-1.651 0-2.646-1.097-2.646-2.892 0-1.8 1.01-2.932 2.636-2.932 1.6 0 2.558 1.06 2.558 2.819v.405h-3.917v.067c.03.949.569 1.543 1.405 1.543.63 0 1.066-.236 1.25-.656Zm-1.303-3.189c-.758 0-1.292.549-1.348 1.389h2.64c-.025-.851-.528-1.389-1.292-1.389Z" clip-rule="evenodd"/>
  <path fill="#545A61" d="M50.189 104.5h-1.277v-7.398h1.148l3.63 5.096h.088v-5.096h1.271v7.398h-1.143l-3.63-5.096h-.087v5.096ZM27 91a5 5 0 0 0-5 5v9a5 5 0 0 0 5 5h9a5 5 0 0 0 5-5v-9a5 5 0 0 0-5-5h-9Z"/>
  <path fill="#E6ECF2" d="M31.028 106.473a16.001 16.001 0 0 1-1.67-.108 18.464 18.464 0 0 1-1.513-.303 28.874 28.874 0 0 1-1.703-.489c-.757-.246-.862-.309-.817-.493.029-.116.225-.627.436-1.137.212-.509.468-1.355.57-1.878.102-.523.262-1.374.357-1.891.104-.57.312-1.23.531-1.679.23-.472.551-.918.887-1.233a5.78 5.78 0 0 1 1.23-.825c.655-.31.775-.332 1.848-.332 1.034 0 1.209.028 1.76.286.336.158.795.486 1.02.73.337.368.425.417.51.288.057-.086.22-.532.362-.991.143-.46.318-1.103.39-1.431.132-.596.132-.596.602-.385.258.116.596.332.752.48.282.27.282.27-.126.734-.225.255-.62.777-.879 1.159s-.499.772-.534.867c-.048.133.055.21.464.346.301.1.745.373 1.042.64.284.255.616.67.738.921.121.252.274.74.338 1.085.085.457.086.814.003 1.315a5.911 5.911 0 0 1-.367 1.239 4.655 4.655 0 0 1-.597.944c-.189.215-.471.458-.627.538-.283.147-.283.147-.232-.573.042-.58.012-.795-.153-1.117a2.01 2.01 0 0 0-.543-.627 2.335 2.335 0 0 0-.81-.3 2.278 2.278 0 0 0-.881.051c-.225.068-.58.273-.788.456-.209.183-.443.484-.52.67-.078.185-.141.552-.141.814 0 .266.09.652.201.872.136.265.35.468.653.617.247.122.544.25.659.286.18.056.186.077.045.157-.09.05-.466.141-.835.2-.369.06-1.117.104-1.662.097Z"/>
  <mask id="b" fill="#fff">
    <path d="M18 64.5a4.5 4.5 0 0 1 4.5-4.5h165a4.5 4.5 0 0 1 4.5 4.5v13.457a4.5 4.5 0 0 1-4.5 4.5h-165a4.5 4.5 0 0 1-4.5-4.5V64.5Z"/>
  </mask>
  <path fill="#181A1C" fill-opacity=".03" d="M18 64.5a4.5 4.5 0 0 1 4.5-4.5h165a4.5 4.5 0 0 1 4.5 4.5v13.457a4.5 4.5 0 0 1-4.5 4.5h-165a4.5 4.5 0 0 1-4.5-4.5V64.5Z"/>
  <path fill="#fff" fill-opacity=".95" d="M18 60h174H18Zm174 17.957a5.25 5.25 0 0 1-5.25 5.25H23.25a5.25 5.25 0 0 1-5.25-5.25c0 2.07 2.015 3.75 4.5 3.75h165c2.485 0 4.5-1.68 4.5-3.75Zm-174 4.5V60v22.457ZM192 60v22.457V60Z" mask="url(#b)"/>
  <path fill="#05BDBA" d="M29.759 45.192v-5.85l.155-.156h1.862l.155.155v5.85l-.155.156h-1.862l-.155-.155ZM29.759 26.659v-5.85l.155-.156h1.862l.155.155v5.85l-.155.156h-1.862l-.155-.155ZM24.842 40.857h-.256l-1.28-1.28v-.256l1.705-1.705 1.354.001.181.18v1.355l-1.704 1.705ZM23.307 26.743v-.255l1.279-1.28h.255l1.705 1.705v1.353l-.18.183h-1.354l-1.705-1.706ZM18.155 31.911h6.58l.156.156v1.863l-.155.156h-6.58L18 33.93v-1.863l.155-.156Z"/>
  <path fill="#014847" d="M34.333 36.876h-1.861l-.155-.155v-4.355c0-.776-.304-1.376-1.24-1.396a25 25 0 0 0-1.62.024l-.088.09.001 5.637-.155.155h-1.86l-.156-.155v-7.442l.155-.155h4.186a2.945 2.945 0 0 1 2.946 2.946v4.65l-.155.156h.002Z"/>
  <path fill="#05BDBA" d="M43.533 34.089h-6.58l-.155-.155V32.07l.155-.156h6.58l.156.156v1.864l-.156.155Z"/>
  <g filter="url(#c)">
    <rect width="635" height="400" x="215" y="20" fill="#fff" rx="5"/>
    <rect width="634.396" height="399.396" x="215.302" y="20.302" stroke="#E9EBED" stroke-width=".604" rx="4.698"/>
  </g>
  <g clip-path="url(#d)">
    <rect width="635" height="400" x="215" y="20" fill="#fff" rx="5"/>
    <g filter="url(#e)">
      <path fill="#181A1C" d="M215 213h636v207H215z"/>
    </g>
    <path fill="#181A1C" d="M292.845 52.332c-1.855 0-3.186-.949-3.363-2.266h1.748c.192.574.836.963 1.671.963 1.147 0 1.806-.644 1.806-1.6v-1.267h-.043c-.389.807-1.274 1.345-2.35 1.345-1.855 0-3.087-1.451-3.087-3.788 0-2.372 1.203-3.851 3.122-3.851 1.069 0 1.933.552 2.365 1.416h.028v-1.289h1.728v7.385c0 1.79-1.438 2.952-3.625 2.952Zm.007-4.227c1.126 0 1.855-.913 1.855-2.379 0-1.458-.729-2.407-1.855-2.407-1.112 0-1.82.935-1.82 2.407 0 1.487.708 2.38 1.82 2.38ZM284.773 49.649c-2.201 0-3.632-1.466-3.632-3.901 0-2.422 1.445-3.909 3.632-3.909 2.188 0 3.633 1.48 3.633 3.909 0 2.435-1.431 3.9-3.633 3.9Zm0-1.395c1.119 0 1.841-.906 1.841-2.506 0-1.593-.722-2.507-1.841-2.507-1.111 0-1.84.913-1.84 2.507 0 1.6.722 2.506 1.84 2.506ZM278.189 49.5V39.283h1.763V49.5h-1.763ZM268.503 52.29c-.106 0-.601-.008-.693-.029v-1.395c.092.022.403.029.509.029.73 0 1.105-.276 1.296-.97 0-.021.113-.397.106-.418l-2.669-7.512h1.926L270.741 48h.035l1.77-6.004h1.855l-2.719 7.802c-.637 1.862-1.465 2.493-3.179 2.493ZM263.094 49.649c-2.202 0-3.632-1.466-3.632-3.901 0-2.422 1.444-3.909 3.632-3.909s3.632 1.48 3.632 3.909c0 2.435-1.43 3.9-3.632 3.9Zm0-1.395c1.119 0 1.841-.906 1.841-2.506 0-1.593-.722-2.507-1.841-2.507-1.111 0-1.841.913-1.841 2.507 0 1.6.723 2.506 1.841 2.506ZM256.51 49.5V39.283h1.763V49.5h-1.763ZM252.212 41.868c1.905 0 3.115 1.48 3.115 3.88 0 2.393-1.203 3.872-3.087 3.872-1.09 0-1.939-.524-2.35-1.366h-.036v3.717h-1.762v-9.976h1.72v1.296h.035c.425-.871 1.275-1.423 2.365-1.423Zm-.538 6.308c1.14 0 1.848-.942 1.848-2.428 0-1.48-.708-2.429-1.848-2.429-1.097 0-1.827.97-1.834 2.429.007 1.472.737 2.428 1.834 2.428ZM245.231 47.256h1.65c-.227 1.416-1.544 2.393-3.321 2.393-2.251 0-3.611-1.48-3.611-3.873 0-2.372 1.374-3.937 3.541-3.937 2.131 0 3.462 1.48 3.462 3.76v.573h-5.247v.107c0 1.203.737 2.01 1.891 2.01.821 0 1.444-.41 1.635-1.033Zm-1.734-4.05c-.992 0-1.707.757-1.778 1.805h3.505c-.035-1.062-.715-1.805-1.727-1.805ZM230.398 39.283h3.732c3.051 0 4.857 1.848 4.857 5.084 0 3.236-1.799 5.133-4.857 5.133h-3.732V39.283Zm1.827 1.544v7.13h1.713c2.054 0 3.187-1.254 3.187-3.583 0-2.287-1.147-3.547-3.187-3.547h-1.713Z"/>
    <path fill="#E6ECF2" d="M249.084 88a5 5 0 0 0 0 10h72a5 5 0 0 0 0-10h-72ZM249.084 136.5a5 5 0 0 0 0 10h82a5 5 0 0 0 0-10h-82ZM244.084 189.5a5 5 0 0 1 5-5h61a5 5 0 0 1 0 10h-61a5 5 0 0 1-5-5ZM231.657 189.496l-2.017-2.079-1.265 1.303 3.282 3.384c.19.195.496.195.686 0l3.282-3.383-1.265-1.304-2.017 2.079a.475.475 0 0 1-.686 0Z"/>
    <path fill="#E6ECF2" fill-rule="evenodd" d="M215 69h635v-1H215v1Zm0 144h635v-1H215v1Zm635-96H215v-1h635v1Zm-635 48h635v-1H215v1Z" clip-rule="evenodd"/>
  </g>
  <rect width="634.396" height="399.396" x="215.302" y="20.302" stroke="#E9EBED" stroke-width=".604" rx="4.698"/>
  <path fill="#778089" d="M266.053 257h-6.877v-1.06h2.912v-7.437h-.109l-2.824 1.825v-1.285l2.94-1.907h1.182v8.804h2.776V257Zm-6.87 24.911c0-1.736 1.285-2.98 3.083-2.98 1.811 0 3.055 1.121 3.055 2.768 0 1.026-.465 1.846-2.037 3.562l-2.324 2.529v.116h4.519V289h-6.242v-.834l3.336-3.712c1.251-1.401 1.552-1.928 1.552-2.707 0-1.059-.745-1.757-1.894-1.757-1.134 0-1.886.759-1.886 1.921v.041h-1.162v-.041Zm1.941 34.516v-1.012h1.073c1.108 0 1.88-.725 1.88-1.757 0-1.005-.738-1.668-1.852-1.668-1.108 0-1.846.65-1.942 1.709h-1.155c.116-1.709 1.319-2.768 3.144-2.768 1.764 0 3.022 1.059 3.022 2.556 0 1.19-.622 2.037-1.682 2.297v.11c1.313.17 2.092 1.093 2.092 2.44 0 1.675-1.408 2.871-3.377 2.871-1.948 0-3.302-1.121-3.39-2.823h1.141c.11 1.053.984 1.736 2.215 1.736 1.353 0 2.194-.697 2.194-1.811 0-1.149-.868-1.88-2.235-1.88h-1.128ZM263.482 353v-2.085h-4.498v-.977l3.35-6.802h1.23l-3.301 6.644v.089h3.233v-2.816h1.094v2.802h1.504v1.06h-1.511V353h-1.101Zm-1.237 32.198c-1.839 0-3.138-1.135-3.24-2.83h1.162c.109 1.032.991 1.743 2.146 1.743 1.272 0 2.12-.895 2.12-2.235 0-1.354-.855-2.27-2.12-2.27-.881 0-1.613.404-2.002 1.101h-1.142l.499-5.571h5.394v1.087h-4.444l-.273 3.219h.109c.485-.588 1.19-.895 2.058-.895 1.825 0 3.096 1.36 3.096 3.302 0 1.996-1.36 3.349-3.363 3.349Z"/>
  <path stroke="#778089" stroke-width=".315" d="M285.282 247v138"/>
  <path fill="#fff" d="M316.981 257.041c-.676 0-1.237-.567-1.237-1.265 0-.69.561-1.257 1.237-1.257.677 0 1.238.567 1.238 1.257 0 .698-.561 1.265-1.238 1.265ZM336.84 257l-.855-2.83h-3.431l-.862 2.83h-1.223l3.178-9.864h1.286l3.178 9.864h-1.271Zm-2.584-8.415-1.388 4.553h2.803l-1.381-4.553h-.034Zm5.988 3.001c0-1.285 1.094-2.147 2.728-2.147 1.545 0 2.59.773 2.727 2.01h-1.121c-.137-.649-.759-1.046-1.627-1.046-.943 0-1.552.438-1.552 1.115 0 .567.383.888 1.313 1.093l1.046.24c1.442.328 2.098.957 2.098 2.03 0 1.367-1.141 2.256-2.898 2.256-1.682 0-2.796-.786-2.926-2.058h1.183c.171.684.827 1.08 1.784 1.08 1.012 0 1.654-.458 1.654-1.169 0-.588-.362-.902-1.305-1.114l-1.101-.253c-1.34-.308-2.003-.984-2.003-2.037Zm10.09-3.992h1.148v2.01h3.008v.991h-2.994v4.183c0 .807.567 1.244 1.613 1.244.417 0 1.162-.02 1.361-.041v.985c-.185.034-1.087.068-1.443.068-1.839 0-2.693-.697-2.693-2.242v-4.197h-1.976v-.991h1.976v-2.01Zm9.625 6.084v2.392h2.297v.93h-4.929v-.93h1.497v-5.557h-1.647v-.93h2.768v1.894h.151c.273-1.374 1.196-2.085 2.625-2.085.424 0 .827.061 1.073.164v1.305a3.925 3.925 0 0 0-1.224-.205c-1.64 0-2.611 1.135-2.611 3.022Zm8.948 3.459c-1.962 0-3.213-1.279-3.213-3.282v-1.121c0-2.003 1.251-3.281 3.213-3.281 1.962 0 3.213 1.278 3.213 3.281v1.121c0 2.003-1.251 3.282-3.213 3.282Zm0-6.658c-1.271 0-2.064.902-2.064 2.358v.909c0 1.463.793 2.358 2.064 2.358 1.272 0 2.065-.895 2.065-2.358v-.909c0-1.456-.793-2.358-2.065-2.358Zm13.959-.896h1.244l2.072 6.173h.089l2.057-6.173h1.237L386.858 257h-1.278l-2.714-7.417Zm11.922 7.615c-1.839 0-3.138-1.135-3.24-2.83h1.162c.109 1.032.991 1.743 2.146 1.743 1.272 0 2.12-.895 2.12-2.235 0-1.354-.855-2.27-2.12-2.27-.881 0-1.613.404-2.002 1.101h-1.142l.499-5.571h5.393v1.087h-4.443l-.273 3.219h.109c.485-.588 1.19-.895 2.058-.895 1.825 0 3.096 1.36 3.096 3.302 0 1.996-1.36 3.349-3.363 3.349Zm-77.807 31.843c-.676 0-1.237-.567-1.237-1.265 0-.69.561-1.257 1.237-1.257.677 0 1.238.567 1.238 1.257 0 .698-.561 1.265-1.238 1.265Zm13.932-2.666h1.176c.123 1.08.991 1.736 2.304 1.736 1.312 0 2.173-.683 2.173-1.743 0-.854-.574-1.367-1.907-1.695l-.847-.212c-1.833-.465-2.66-1.333-2.66-2.762 0-1.681 1.265-2.768 3.234-2.768 1.859 0 3.137 1.073 3.219 2.714h-1.175c-.123-1.019-.875-1.621-2.037-1.621-1.265 0-2.024.602-2.024 1.607 0 .854.547 1.347 1.832 1.668l.861.219c1.915.471 2.721 1.305 2.721 2.789 0 1.77-1.333 2.898-3.397 2.898-2.037 0-3.37-1.08-3.473-2.83Zm10.767-6.781h1.148v2.01h3.008v.991h-2.994v4.183c0 .807.567 1.244 1.613 1.244.417 0 1.162-.02 1.36-.041v.985c-.184.034-1.086.068-1.442.068-1.839 0-2.693-.697-2.693-2.242v-4.197h-1.976v-.991h1.976v-2.01Zm9.919 9.543c-1.962 0-3.213-1.279-3.213-3.282v-1.121c0-2.003 1.251-3.281 3.213-3.281 1.962 0 3.213 1.278 3.213 3.281v1.121c0 2.003-1.251 3.282-3.213 3.282Zm0-6.658c-1.272 0-2.065.902-2.065 2.358v.909c0 1.463.793 2.358 2.065 2.358 1.271 0 2.064-.895 2.064-2.358v-.909c0-1.456-.793-2.358-2.064-2.358Zm8.36 3.199v2.392h2.297v.93h-4.929v-.93h1.497v-5.557h-1.647v-.93h2.768v1.894h.151c.273-1.374 1.196-2.085 2.625-2.085.424 0 .827.061 1.073.164v1.305a3.925 3.925 0 0 0-1.224-.205c-1.64 0-2.611 1.135-2.611 3.022Zm6.87 5.961c-.171 0-.396-.007-.499-.021V290.6c.089.02.301.027.41.027.698 0 1.08-.315 1.388-1.176l.13-.403-2.728-7.465h1.265l2.078 6.207h.089l2.071-6.207h1.238l-2.796 7.69c-.65 1.826-1.272 2.366-2.646 2.366Zm11.197-2.516c-1.059 0-1.838-.437-2.221-1.258h-.13V289h-1.142v-10.329h1.183v4.06h.123c.328-.813 1.114-1.271 2.187-1.271 1.716 0 2.837 1.237 2.837 3.138v1.381c0 1.907-1.121 3.144-2.837 3.144Zm-.341-1.06c1.23 0 2.009-.881 2.009-2.249v-1.066c0-1.367-.779-2.242-2.009-2.242-1.217 0-1.997.875-1.997 2.242v1.066c0 1.374.78 2.249 1.997 2.249Zm11.771.937h-6.145v-.964h2.536v-8.401h-2.516v-.964h3.678v9.365h2.447V289Zm5.414.137c-1.962 0-3.213-1.279-3.213-3.282v-1.121c0-2.003 1.251-3.281 3.213-3.281 1.962 0 3.213 1.278 3.213 3.281v1.121c0 2.003-1.251 3.282-3.213 3.282Zm0-6.658c-1.271 0-2.064.902-2.064 2.358v.909c0 1.463.793 2.358 2.064 2.358 1.272 0 2.065-.895 2.065-2.358v-.909c0-1.456-.793-2.358-2.065-2.358Zm7.417 2.433 3.234-3.329h1.408l-2.878 2.939 3.083 4.478h-1.381l-2.529-3.685-1.026.985v2.7h-1.162v-10.329h1.162v6.241h.089ZM421.988 289v-2.085h-4.498v-.977l3.35-6.802h1.23l-3.301 6.644v.089h3.233v-2.816h1.094v2.802h1.504v1.06h-1.511V289h-1.101Zm7.533.219c-2.05 0-3.479-1.176-3.479-2.858 0-1.223.793-2.221 2.01-2.515v-.11c-.991-.273-1.614-1.121-1.614-2.194 0-1.538 1.286-2.625 3.083-2.625 1.798 0 3.077 1.087 3.077 2.625 0 1.073-.609 1.914-1.614 2.194v.11c1.197.253 2.01 1.271 2.01 2.515 0 1.682-1.422 2.858-3.473 2.858Zm0-5.893c1.142 0 1.894-.67 1.894-1.681 0-1.005-.752-1.675-1.894-1.675-1.141 0-1.9.67-1.9 1.675 0 1.011.759 1.681 1.9 1.681Zm0 4.847c1.34 0 2.263-.779 2.263-1.907 0-1.128-.923-1.908-2.263-1.908-1.339 0-2.262.78-2.262 1.908s.923 1.907 2.262 1.907Zm6.255.827 4.478-8.695v-.089h-5.353v-1.08h6.583v1.114l-4.422 8.75h-1.286Zm16.639 0v-7.417h1.114v1.306h.096c.396-.923 1.244-1.443 2.372-1.443 1.613 0 2.488.964 2.488 2.742V289h-1.162v-4.519c0-1.339-.547-1.968-1.702-1.968-1.224 0-2.044.854-2.044 2.119V289h-1.162Zm13.692-1.914h1.128c-.225 1.224-1.401 2.051-2.96 2.051-2.037 0-3.219-1.224-3.219-3.336v-1.114c0-1.956 1.251-3.241 3.137-3.241 1.928 0 3.063 1.279 3.063 3.425v.725h-5.052v.3c0 1.361.807 2.236 2.071 2.236.937 0 1.627-.397 1.832-1.046Zm-1.92-4.642c-1.238 0-1.983.848-1.983 2.27h3.903c0-1.415-.724-2.27-1.92-2.27Zm12.578-.861L475.172 289h-1.114l-1.258-5.783h-.082L471.46 289h-1.114l-1.593-7.417h1.135l1.005 5.947h.123l1.196-5.94h1.094l1.196 5.94h.123l1.005-5.947h1.135ZM487.032 289v-7.417h1.114v1.306h.096c.397-.923 1.244-1.443 2.372-1.443 1.614 0 2.489.964 2.489 2.742V289h-1.163v-4.519c0-1.339-.546-1.968-1.702-1.968-1.223 0-2.044.854-2.044 2.119V289h-1.162Zm11.69.137c-1.962 0-3.213-1.279-3.213-3.282v-1.121c0-2.003 1.251-3.281 3.213-3.281 1.962 0 3.213 1.278 3.213 3.281v1.121c0 2.003-1.251 3.282-3.213 3.282Zm0-6.658c-1.272 0-2.065.902-2.065 2.358v.909c0 1.463.793 2.358 2.065 2.358 1.271 0 2.064-.895 2.064-2.358v-.909c0-1.456-.793-2.358-2.064-2.358Zm8.189 6.644c-1.716 0-2.837-1.237-2.837-3.144v-1.381c0-1.901 1.121-3.138 2.837-3.138 1.073 0 1.866.458 2.188 1.271h.123v-4.06h1.182V289h-1.141v-1.135h-.13c-.383.821-1.162 1.258-2.222 1.258Zm.342-1.06c1.217 0 2.003-.875 2.003-2.249v-1.066c0-1.367-.786-2.242-2.003-2.242-1.224 0-2.01.875-2.01 2.242v1.066c0 1.368.786 2.249 2.01 2.249Zm10.78-.977h1.128c-.225 1.224-1.401 2.051-2.96 2.051-2.037 0-3.22-1.224-3.22-3.336v-1.114c0-1.956 1.251-3.241 3.138-3.241 1.928 0 3.063 1.279 3.063 3.425v.725h-5.052v.3c0 1.361.807 2.236 2.071 2.236.937 0 1.627-.397 1.832-1.046Zm-1.921-4.642c-1.237 0-1.982.848-1.982 2.27h3.903c0-1.415-.724-2.27-1.921-2.27Zm5.872 1.142c0-1.285 1.094-2.147 2.728-2.147 1.545 0 2.591.773 2.727 2.01h-1.121c-.136-.649-.758-1.046-1.627-1.046-.943 0-1.551.438-1.551 1.115 0 .567.382.888 1.312 1.093l1.046.24c1.442.328 2.099.957 2.099 2.03 0 1.367-1.142 2.256-2.899 2.256-1.681 0-2.796-.786-2.926-2.058h1.183c.171.684.827 1.08 1.784 1.08 1.012 0 1.655-.458 1.655-1.169 0-.588-.363-.902-1.306-1.114l-1.101-.253c-1.34-.308-2.003-.984-2.003-2.037ZM306.946 321h-1.21v-9.864h5.818v1.107h-4.608v3.384h4.211v1.073h-4.211v4.3Zm10.165-9.235a.94.94 0 0 1-.964-.957.94.94 0 0 1 .964-.951.94.94 0 0 1 .964.951.94.94 0 0 1-.964.957Zm3.111 9.235h-6.146v-.964h2.543v-5.489h-2.522v-.964h3.671v6.453h2.454V321Zm2.379 0v-7.417h1.114v1.306h.096c.396-.923 1.244-1.443 2.372-1.443 1.613 0 2.488.964 2.488 2.742V321h-1.162v-4.519c0-1.339-.547-1.968-1.702-1.968-1.224 0-2.044.854-2.044 2.119V321h-1.162Zm11.819-9.235a.94.94 0 0 1-.964-.957.94.94 0 0 1 .964-.951.94.94 0 0 1 .964.951.94.94 0 0 1-.964.957Zm3.11 9.235h-6.145v-.964h2.543v-5.489h-2.523v-.964h3.671v6.453h2.454V321Zm2.714-5.414c0-1.285 1.094-2.147 2.728-2.147 1.545 0 2.59.773 2.727 2.01h-1.121c-.137-.649-.759-1.046-1.627-1.046-.943 0-1.552.438-1.552 1.115 0 .567.383.888 1.313 1.093l1.046.24c1.442.328 2.098.957 2.098 2.03 0 1.367-1.141 2.256-2.898 2.256-1.682 0-2.796-.786-2.926-2.058h1.183c.171.684.827 1.08 1.784 1.08 1.012 0 1.654-.458 1.654-1.169 0-.588-.362-.902-1.305-1.114l-1.101-.253c-1.34-.308-2.003-.984-2.003-2.037Zm8.313 5.414v-10.329h1.121v4.225h.095c.39-.923 1.245-1.443 2.379-1.443 1.614 0 2.489.971 2.489 2.741V321h-1.162v-4.512c0-1.333-.547-1.968-1.709-1.968-1.224 0-2.051.854-2.051 2.119V321h-1.162Zm13.699-1.914h1.128c-.226 1.224-1.402 2.051-2.96 2.051-2.037 0-3.22-1.224-3.22-3.336v-1.114c0-1.956 1.251-3.241 3.138-3.241 1.928 0 3.062 1.279 3.062 3.425v.725h-5.051v.3c0 1.361.806 2.236 2.071 2.236.936 0 1.627-.397 1.832-1.046Zm-1.921-4.642c-1.237 0-1.982.848-1.982 2.27h3.903c0-1.415-.725-2.27-1.921-2.27Zm8.107 6.679c-1.715 0-2.837-1.237-2.837-3.144v-1.381c0-1.901 1.122-3.138 2.837-3.138 1.074 0 1.867.458 2.188 1.271h.123v-4.06h1.183V321h-1.142v-1.135h-.13c-.383.821-1.162 1.258-2.222 1.258Zm.342-1.06c1.217 0 2.003-.875 2.003-2.249v-1.066c0-1.367-.786-2.242-2.003-2.242-1.223 0-2.01.875-2.01 2.242v1.066c0 1.368.787 2.249 2.01 2.249Zm17.897-6.603c1.715 0 2.837 1.237 2.837 3.144v1.381c0 1.901-1.122 3.138-2.837 3.138-1.074 0-1.86-.458-2.181-1.271h-.13v3.65h-1.182v-9.919h1.148v1.135h.123c.39-.821 1.162-1.258 2.222-1.258Zm-.335 1.066c-1.224 0-2.003.875-2.003 2.243v1.066c0 1.374.779 2.249 2.003 2.249 1.223 0 2.003-.882 2.003-2.249v-1.066c0-1.368-.78-2.243-2.003-2.243Zm8.23 3.152v2.392h2.297v.93h-4.929v-.93h1.497v-5.557h-1.647v-.93h2.768v1.894h.151c.273-1.374 1.196-2.085 2.625-2.085.424 0 .827.061 1.073.164v1.305a3.924 3.924 0 0 0-1.223-.205c-1.641 0-2.612 1.135-2.612 3.022Zm8.948 3.459c-1.962 0-3.212-1.279-3.212-3.282v-1.121c0-2.003 1.25-3.281 3.212-3.281 1.962 0 3.213 1.278 3.213 3.281v1.121c0 2.003-1.251 3.282-3.213 3.282Zm0-6.658c-1.271 0-2.064.902-2.064 2.358v.909c0 1.463.793 2.358 2.064 2.358 1.272 0 2.065-.895 2.065-2.358v-.909c0-1.456-.793-2.358-2.065-2.358Zm11.745 1.415h-1.149c-.143-.869-.868-1.415-1.825-1.415-1.292 0-2.01.881-2.01 2.474v.67c0 1.593.718 2.468 2.01 2.468.957 0 1.682-.54 1.825-1.388h1.149c-.185 1.511-1.313 2.434-2.954 2.434-2.016 0-3.192-1.238-3.192-3.364v-.97c0-2.126 1.176-3.364 3.192-3.364 1.641 0 2.762.93 2.954 2.455Zm7.567 3.192h1.128c-.226 1.224-1.402 2.051-2.96 2.051-2.037 0-3.22-1.224-3.22-3.336v-1.114c0-1.956 1.251-3.241 3.138-3.241 1.928 0 3.062 1.279 3.062 3.425v.725h-5.051v.3c0 1.361.806 2.236 2.071 2.236.936 0 1.627-.397 1.832-1.046Zm-1.921-4.642c-1.237 0-1.982.848-1.982 2.27h3.903c0-1.415-.725-2.27-1.921-2.27Zm5.872 1.142c0-1.285 1.094-2.147 2.728-2.147 1.545 0 2.59.773 2.727 2.01h-1.121c-.137-.649-.759-1.046-1.627-1.046-.943 0-1.552.438-1.552 1.115 0 .567.383.888 1.313 1.093l1.046.24c1.442.328 2.098.957 2.098 2.03 0 1.367-1.141 2.256-2.898 2.256-1.682 0-2.796-.786-2.926-2.058h1.183c.171.684.827 1.08 1.784 1.08 1.012 0 1.654-.458 1.654-1.169 0-.588-.362-.902-1.305-1.114l-1.101-.253c-1.34-.308-2.003-.984-2.003-2.037Zm8.654 0c0-1.285 1.094-2.147 2.728-2.147 1.545 0 2.591.773 2.727 2.01h-1.121c-.136-.649-.758-1.046-1.627-1.046-.943 0-1.551.438-1.551 1.115 0 .567.382.888 1.312 1.093l1.046.24c1.442.328 2.099.957 2.099 2.03 0 1.367-1.142 2.256-2.899 2.256-1.681 0-2.796-.786-2.926-2.058h1.183c.171.684.827 1.08 1.784 1.08 1.012 0 1.655-.458 1.655-1.169 0-.588-.363-.902-1.306-1.114l-1.101-.253c-1.34-.308-2.003-.984-2.003-2.037Zm11.485-3.821a.94.94 0 0 1-.964-.957.94.94 0 0 1 .964-.951.94.94 0 0 1 .964.951.94.94 0 0 1-.964.957Zm3.11 9.235h-6.145v-.964h2.543v-5.489h-2.523v-.964h3.671v6.453h2.454V321Zm2.379 0v-7.417h1.114v1.306h.096c.396-.923 1.244-1.443 2.372-1.443 1.613 0 2.488.964 2.488 2.742V321h-1.162v-4.519c0-1.339-.547-1.968-1.702-1.968-1.224 0-2.044.854-2.044 2.119V321h-1.162Zm11.471 2.782c-1.716 0-2.865-.752-3.015-1.982h1.149c.15.615.895 1.018 1.886 1.018 1.299 0 2.017-.656 2.017-1.845v-1.156h-.123c-.328.78-1.149 1.251-2.229 1.251-1.716 0-2.843-1.237-2.843-3.137v-1.333c0-1.908 1.134-3.138 2.871-3.138 1.073 0 1.886.472 2.208 1.271h.13v-1.148h1.148V321c0 1.743-1.189 2.782-3.199 2.782Zm-1.99-6.015c0 1.36.793 2.249 2.024 2.249 1.224 0 2.01-.882 2.01-2.249v-1.019c0-1.367-.786-2.242-2.01-2.242-1.231 0-2.024.882-2.024 2.242v1.019Zm19.982 3.356c-1.06 0-1.839-.437-2.222-1.258h-.13V321h-1.141v-10.329h1.182v4.06h.123c.329-.813 1.115-1.271 2.188-1.271 1.716 0 2.837 1.237 2.837 3.138v1.381c0 1.907-1.121 3.144-2.837 3.144Zm-.342-1.06c1.231 0 2.01-.881 2.01-2.249v-1.066c0-1.367-.779-2.242-2.01-2.242-1.217 0-1.996.875-1.996 2.242v1.066c0 1.374.779 2.249 1.996 2.249Zm11.567-6.48V321h-1.115v-1.306h-.095c-.397.923-1.245 1.443-2.372 1.443-1.614 0-2.489-.964-2.489-2.741v-4.813h1.162v4.519c0 1.339.547 1.968 1.702 1.968 1.224 0 2.044-.854 2.044-2.119v-4.368h1.163Zm5.749-1.818a.94.94 0 0 1-.964-.957.94.94 0 0 1 .964-.951.94.94 0 0 1 .963.951.94.94 0 0 1-.963.957Zm3.11 9.235h-6.146v-.964h2.543v-5.489h-2.522v-.964h3.671v6.453h2.454V321Zm8.654 0h-6.145v-.964h2.536v-8.401h-2.516v-.964h3.678v9.365h2.447V321Zm4.949.123c-1.715 0-2.836-1.237-2.836-3.144v-1.381c0-1.901 1.121-3.138 2.836-3.138 1.074 0 1.867.458 2.188 1.271h.123v-4.06h1.183V321h-1.142v-1.135h-.13c-.383.821-1.162 1.258-2.222 1.258Zm.342-1.06c1.217 0 2.003-.875 2.003-2.249v-1.066c0-1.367-.786-2.242-2.003-2.242-1.223 0-2.01.875-2.01 2.242v1.066c0 1.368.787 2.249 2.01 2.249Zm17.138-2.385v2.392h2.297v.93h-4.929v-.93h1.497v-5.557h-1.647v-.93h2.768v1.894h.151c.273-1.374 1.196-2.085 2.625-2.085.423 0 .827.061 1.073.164v1.305a3.925 3.925 0 0 0-1.224-.205c-1.64 0-2.611 1.135-2.611 3.022Zm10.951 1.408h1.128c-.226 1.224-1.401 2.051-2.96 2.051-2.037 0-3.22-1.224-3.22-3.336v-1.114c0-1.956 1.251-3.241 3.138-3.241 1.928 0 3.063 1.279 3.063 3.425v.725h-5.052v.3c0 1.361.806 2.236 2.071 2.236.937 0 1.627-.397 1.832-1.046Zm-1.921-4.642c-1.237 0-1.982.848-1.982 2.27h3.903c0-1.415-.725-2.27-1.921-2.27Zm8.108-.984c1.059 0 1.832.437 2.221 1.258h.123v-1.135h1.149v9.919h-1.183v-3.65h-.13c-.321.813-1.107 1.271-2.18 1.271-1.716 0-2.837-1.237-2.837-3.138v-1.381c0-1.907 1.121-3.144 2.837-3.144Zm.335 1.066c-1.224 0-2.003.875-2.003 2.243v1.066c0 1.367.779 2.249 2.003 2.249 1.223 0 2.003-.875 2.003-2.249v-1.066c0-1.368-.78-2.243-2.003-2.243Zm11.819-.943V321h-1.114v-1.306h-.096c-.397.923-1.244 1.443-2.372 1.443-1.613 0-2.488-.964-2.488-2.741v-4.813h1.162v4.519c0 1.339.547 1.968 1.702 1.968 1.223 0 2.044-.854 2.044-2.119v-4.368h1.162Zm7.622 5.503h1.128c-.226 1.224-1.401 2.051-2.96 2.051-2.037 0-3.22-1.224-3.22-3.336v-1.114c0-1.956 1.251-3.241 3.138-3.241 1.928 0 3.062 1.279 3.062 3.425v.725h-5.051v.3c0 1.361.806 2.236 2.071 2.236.936 0 1.627-.397 1.832-1.046Zm-1.921-4.642c-1.237 0-1.982.848-1.982 2.27h3.903c0-1.415-.725-2.27-1.921-2.27Zm5.872 1.142c0-1.285 1.094-2.147 2.728-2.147 1.545 0 2.591.773 2.727 2.01h-1.121c-.137-.649-.759-1.046-1.627-1.046-.943 0-1.552.438-1.552 1.115 0 .567.383.888 1.313 1.093l1.046.24c1.442.328 2.098.957 2.098 2.03 0 1.367-1.141 2.256-2.898 2.256-1.682 0-2.796-.786-2.926-2.058h1.183c.171.684.827 1.08 1.784 1.08 1.012 0 1.654-.458 1.654-1.169 0-.588-.362-.902-1.305-1.114l-1.101-.253c-1.34-.308-2.003-.984-2.003-2.037Zm10.09-3.992h1.148v2.01h3.008v.991h-2.994v4.183c0 .807.567 1.244 1.613 1.244.417 0 1.163-.02 1.361-.041v.985c-.185.034-1.087.068-1.443.068-1.839 0-2.693-.697-2.693-2.242v-4.197h-1.976v-.991H584v-2.01Zm-278.906 31.542h2.761c2.796 0 4.205 1.647 4.205 4.915 0 3.295-1.409 4.949-4.205 4.949h-2.761v-9.864Zm1.21 1.107v7.65h1.442c2.092 0 3.083-1.224 3.083-3.835 0-2.584-.998-3.815-3.083-3.815h-1.442Zm12.68 6.843h1.128c-.225 1.224-1.401 2.051-2.96 2.051-2.037 0-3.219-1.224-3.219-3.336v-1.114c0-1.956 1.251-3.241 3.137-3.241 1.928 0 3.063 1.279 3.063 3.425v.725h-5.052v.3c0 1.361.807 2.236 2.071 2.236.937 0 1.627-.397 1.832-1.046Zm-1.921-4.642c-1.237 0-1.982.848-1.982 2.27h3.903c0-1.415-.724-2.27-1.921-2.27Zm9.038-.984c1.715 0 2.837 1.237 2.837 3.144v1.381c0 1.901-1.122 3.138-2.837 3.138-1.074 0-1.86-.458-2.181-1.271h-.13v3.65h-1.183v-9.919h1.149v1.135h.123c.39-.821 1.162-1.258 2.222-1.258Zm-.335 1.066c-1.224 0-2.003.875-2.003 2.243v1.066c0 1.374.779 2.249 2.003 2.249 1.223 0 2.003-.882 2.003-2.249v-1.066c0-1.368-.78-2.243-2.003-2.243ZM337.53 353h-6.145v-.964h2.536v-8.401h-2.516v-.964h3.678v9.365h2.447V353Zm5.414.137c-1.962 0-3.213-1.279-3.213-3.282v-1.121c0-2.003 1.251-3.281 3.213-3.281 1.962 0 3.213 1.278 3.213 3.281v1.121c0 2.003-1.251 3.282-3.213 3.282Zm0-6.658c-1.271 0-2.064.902-2.064 2.358v.909c0 1.463.793 2.358 2.064 2.358 1.272 0 2.065-.895 2.065-2.358v-.909c0-1.456-.793-2.358-2.065-2.358Zm6.577 9.16a4.91 4.91 0 0 1-.5-.021V354.6c.089.02.301.027.411.027.697 0 1.08-.315 1.387-1.176l.13-.403-2.727-7.465h1.264l2.078 6.207h.089l2.072-6.207h1.237l-2.796 7.69c-.649 1.826-1.271 2.366-2.645 2.366Zm10.862-11.874a.94.94 0 0 1-.964-.957.94.94 0 0 1 .964-.951.94.94 0 0 1 .964.951.94.94 0 0 1-.964.957Zm3.11 9.235h-6.145v-.964h2.543v-5.489h-2.523v-.964h3.671v6.453h2.454V353Zm2.379 0v-7.417h1.114v1.306h.096c.397-.923 1.244-1.443 2.372-1.443 1.613 0 2.488.964 2.488 2.742V353h-1.162v-4.519c0-1.339-.547-1.968-1.702-1.968-1.224 0-2.044.854-2.044 2.119V353h-1.162Zm11.471 2.782c-1.716 0-2.864-.752-3.015-1.982h1.149c.15.615.895 1.018 1.886 1.018 1.299 0 2.017-.656 2.017-1.845v-1.156h-.123c-.328.78-1.149 1.251-2.229 1.251-1.716 0-2.843-1.237-2.843-3.137v-1.333c0-1.908 1.134-3.138 2.871-3.138 1.073 0 1.886.472 2.208 1.271h.13v-1.148h1.148V353c0 1.743-1.189 2.782-3.199 2.782Zm-1.989-6.015c0 1.36.792 2.249 2.023 2.249 1.224 0 2.01-.882 2.01-2.249v-1.019c0-1.367-.786-2.242-2.01-2.242-1.231 0-2.023.882-2.023 2.242v1.019ZM391.835 353v-7.417h1.114v1.306h.096c.396-.923 1.244-1.443 2.372-1.443 1.613 0 2.488.964 2.488 2.742V353h-1.162v-4.519c0-1.339-.547-1.968-1.702-1.968-1.224 0-2.044.854-2.044 2.119V353h-1.162Zm13.692-1.914h1.128c-.225 1.224-1.401 2.051-2.96 2.051-2.037 0-3.219-1.224-3.219-3.336v-1.114c0-1.956 1.251-3.241 3.137-3.241 1.928 0 3.063 1.279 3.063 3.425v.725h-5.052v.3c0 1.361.807 2.236 2.071 2.236.937 0 1.627-.397 1.832-1.046Zm-1.921-4.642c-1.237 0-1.982.848-1.982 2.27h3.903c0-1.415-.724-2.27-1.921-2.27Zm12.579-.861L414.592 353h-1.114l-1.258-5.783h-.082L410.88 353h-1.114l-1.593-7.417h1.135l1.004 5.947h.124l1.196-5.94h1.094l1.196 5.94h.123l1.005-5.947h1.135Zm8.264 3.582h-7.232v-1.08h7.232v1.08Zm8.279 3.835h-6.146v-.964h2.536v-8.401h-2.515v-.964h3.677v9.365h2.448V353Zm7.417-1.914h1.127c-.225 1.224-1.401 2.051-2.96 2.051-2.037 0-3.219-1.224-3.219-3.336v-1.114c0-1.956 1.251-3.241 3.137-3.241 1.928 0 3.063 1.279 3.063 3.425v.725h-5.052v.3c0 1.361.807 2.236 2.071 2.236.937 0 1.627-.397 1.833-1.046Zm-1.921-4.642c-1.238 0-1.983.848-1.983 2.27h3.904c0-1.415-.725-2.27-1.921-2.27Zm7.82 6.686c-1.415 0-2.358-.889-2.358-2.235 0-1.313.943-2.092 2.631-2.181l2.037-.103v-.67c0-.929-.567-1.442-1.599-1.442-.855 0-1.456.362-1.648.998h-1.141c.137-1.189 1.285-2.003 2.803-2.003 1.743 0 2.741.889 2.741 2.434v5.079h-1.108v-1.114h-.116c-.355.793-1.162 1.237-2.242 1.237Zm.335-1.019c1.121 0 1.975-.745 1.975-1.736v-.875l-1.907.089c-1.039.048-1.586.492-1.586 1.265 0 .779.581 1.257 1.518 1.257Zm7.977.889v-6.405h-1.989v-.991h1.989v-.746c0-1.435.889-2.105 2.714-2.105.431 0 1.463.034 1.709.068v.95c-.321-.034-1.278-.061-1.695-.061-1.032 0-1.579.383-1.579 1.128v.766h3.274v.991h-3.26V353h-1.163Zm13.365-3.835h-7.233v-1.08h7.233v1.08Zm2.338-1.579c0-1.285 1.093-2.147 2.727-2.147 1.545 0 2.591.773 2.728 2.01h-1.121c-.137-.649-.759-1.046-1.627-1.046-.944 0-1.552.438-1.552 1.115 0 .567.383.888 1.312 1.093l1.046.24c1.443.328 2.099.957 2.099 2.03 0 1.367-1.142 2.256-2.899 2.256-1.681 0-2.795-.786-2.925-2.058h1.182c.171.684.827 1.08 1.784 1.08 1.012 0 1.655-.458 1.655-1.169 0-.588-.363-.902-1.306-1.114l-1.1-.253c-1.34-.308-2.003-.984-2.003-2.037Zm10.089-3.992h1.149v2.01h3.008v.991h-2.994v4.183c0 .807.567 1.244 1.613 1.244.417 0 1.162-.02 1.36-.041v.985c-.184.034-1.087.068-1.442.068-1.839 0-2.694-.697-2.694-2.242v-4.197h-1.975v-.991h1.975v-2.01Zm9.919 9.543c-1.962 0-3.213-1.279-3.213-3.282v-1.121c0-2.003 1.251-3.281 3.213-3.281 1.962 0 3.213 1.278 3.213 3.281v1.121c0 2.003-1.251 3.282-3.213 3.282Zm0-6.658c-1.271 0-2.064.902-2.064 2.358v.909c0 1.463.793 2.358 2.064 2.358 1.272 0 2.065-.895 2.065-2.358v-.909c0-1.456-.793-2.358-2.065-2.358Zm8.361 3.199v2.392h2.297v.93h-4.929v-.93h1.497v-5.557h-1.647v-.93h2.768v1.894h.15c.274-1.374 1.197-2.085 2.625-2.085.424 0 .828.061 1.074.164v1.305a3.93 3.93 0 0 0-1.224-.205c-1.641 0-2.611 1.135-2.611 3.022Zm10.951 1.408h1.128c-.226 1.224-1.402 2.051-2.96 2.051-2.037 0-3.22-1.224-3.22-3.336v-1.114c0-1.956 1.251-3.241 3.138-3.241 1.928 0 3.062 1.279 3.062 3.425v.725h-5.051v.3c0 1.361.806 2.236 2.071 2.236.936 0 1.627-.397 1.832-1.046Zm-1.921-4.642c-1.237 0-1.982.848-1.982 2.27h3.903c0-1.415-.725-2.27-1.921-2.27Zm7.479 6.556v-6.405h-1.99v-.991h1.99v-.746c0-1.435.888-2.105 2.713-2.105.431 0 1.463.034 1.709.068v.95c-.321-.034-1.278-.061-1.695-.061-1.032 0-1.579.383-1.579 1.128v.766h3.274v.991h-3.26V353h-1.162Zm9.454-3.322v2.392h2.297v.93h-4.929v-.93h1.497v-5.557h-1.648v-.93h2.769v1.894h.15c.274-1.374 1.197-2.085 2.625-2.085.424 0 .827.061 1.074.164v1.305a3.93 3.93 0 0 0-1.224-.205c-1.641 0-2.611 1.135-2.611 3.022Zm8.948 3.459c-1.962 0-3.213-1.279-3.213-3.282v-1.121c0-2.003 1.251-3.281 3.213-3.281 1.962 0 3.213 1.278 3.213 3.281v1.121c0 2.003-1.251 3.282-3.213 3.282Zm0-6.658c-1.272 0-2.065.902-2.065 2.358v.909c0 1.463.793 2.358 2.065 2.358 1.271 0 2.064-.895 2.064-2.358v-.909c0-1.456-.793-2.358-2.064-2.358Zm5.619 6.521v-7.417h1.114v1.306h.096c.396-.923 1.244-1.443 2.372-1.443 1.613 0 2.488.964 2.488 2.742V353h-1.162v-4.519c0-1.339-.547-1.968-1.702-1.968-1.224 0-2.044.854-2.044 2.119V353h-1.162Zm10.425-9.406h1.148v2.01h3.008v.991h-2.994v4.183c0 .807.567 1.244 1.613 1.244.417 0 1.162-.02 1.361-.041v.985c-.185.034-1.087.068-1.443.068-1.839 0-2.693-.697-2.693-2.242v-4.197h-1.976v-.991h1.976v-2.01Zm17.308 0h1.149v2.01h3.008v.991h-2.994v4.183c0 .807.567 1.244 1.613 1.244.417 0 1.162-.02 1.36-.041v.985c-.184.034-1.087.068-1.442.068-1.839 0-2.694-.697-2.694-2.242v-4.197h-1.975v-.991h1.975v-2.01Zm9.919 9.543c-1.962 0-3.213-1.279-3.213-3.282v-1.121c0-2.003 1.251-3.281 3.213-3.281 1.962 0 3.213 1.278 3.213 3.281v1.121c0 2.003-1.251 3.282-3.213 3.282Zm0-6.658c-1.271 0-2.064.902-2.064 2.358v.909c0 1.463.793 2.358 2.064 2.358 1.272 0 2.065-.895 2.065-2.358v-.909c0-1.456-.793-2.358-2.065-2.358Zm17.774-1.019c1.716 0 2.837 1.237 2.837 3.144v1.381c0 1.901-1.121 3.138-2.837 3.138-1.073 0-1.86-.458-2.181-1.271h-.13v3.65h-1.182v-9.919h1.148v1.135h.123c.39-.821 1.162-1.258 2.222-1.258Zm-.335 1.066c-1.224 0-2.003.875-2.003 2.243v1.066c0 1.374.779 2.249 2.003 2.249 1.223 0 2.003-.882 2.003-2.249v-1.066c0-1.368-.78-2.243-2.003-2.243Zm8.23 3.152v2.392h2.297v.93h-4.929v-.93h1.498v-5.557h-1.648v-.93h2.769v1.894h.15c.273-1.374 1.196-2.085 2.625-2.085.424 0 .827.061 1.073.164v1.305a3.924 3.924 0 0 0-1.223-.205c-1.641 0-2.612 1.135-2.612 3.022Zm8.949 3.459c-1.962 0-3.213-1.279-3.213-3.282v-1.121c0-2.003 1.251-3.281 3.213-3.281 1.961 0 3.212 1.278 3.212 3.281v1.121c0 2.003-1.251 3.282-3.212 3.282Zm0-6.658c-1.272 0-2.065.902-2.065 2.358v.909c0 1.463.793 2.358 2.065 2.358 1.271 0 2.064-.895 2.064-2.358v-.909c0-1.456-.793-2.358-2.064-2.358Zm8.189 6.644c-1.716 0-2.837-1.237-2.837-3.144v-1.381c0-1.901 1.121-3.138 2.837-3.138 1.073 0 1.866.458 2.187 1.271h.124v-4.06h1.182V353h-1.141v-1.135h-.13c-.383.821-1.162 1.258-2.222 1.258Zm.342-1.06c1.217 0 2.003-.875 2.003-2.249v-1.066c0-1.367-.786-2.242-2.003-2.242-1.224 0-2.01.875-2.01 2.242v1.066c0 1.368.786 2.249 2.01 2.249Zm11.812-6.48V353h-1.114v-1.306h-.096c-.396.923-1.244 1.443-2.372 1.443-1.613 0-2.488-.964-2.488-2.741v-4.813h1.162v4.519c0 1.339.547 1.968 1.702 1.968 1.224 0 2.044-.854 2.044-2.119v-4.368h1.162Zm8.709 2.311h-1.148c-.144-.869-.868-1.415-1.825-1.415-1.292 0-2.01.881-2.01 2.474v.67c0 1.593.718 2.468 2.01 2.468.957 0 1.681-.54 1.825-1.388h1.148c-.184 1.511-1.312 2.434-2.953 2.434-2.016 0-3.192-1.238-3.192-3.364v-.97c0-2.126 1.176-3.364 3.192-3.364 1.641 0 2.762.93 2.953 2.455Zm4.3-4.3h1.149v2.01h3.007v.991h-2.994v4.183c0 .807.568 1.244 1.613 1.244.417 0 1.163-.02 1.361-.041v.985c-.185.034-1.087.068-1.443.068-1.838 0-2.693-.697-2.693-2.242v-4.197h-1.976v-.991h1.976v-2.01Zm10.049.171a.94.94 0 0 1-.964-.957.94.94 0 0 1 .964-.951.94.94 0 0 1 .964.951.94.94 0 0 1-.964.957Zm3.11 9.235h-6.145v-.964h2.543v-5.489h-2.523v-.964h3.671v6.453h2.454V353Zm5.414.137c-1.962 0-3.213-1.279-3.213-3.282v-1.121c0-2.003 1.251-3.281 3.213-3.281 1.962 0 3.213 1.278 3.213 3.281v1.121c0 2.003-1.251 3.282-3.213 3.282Zm0-6.658c-1.271 0-2.064.902-2.064 2.358v.909c0 1.463.793 2.358 2.064 2.358 1.272 0 2.065-.895 2.065-2.358v-.909c0-1.456-.793-2.358-2.065-2.358Zm5.619 6.521v-7.417h1.115v1.306h.095c.397-.923 1.245-1.443 2.372-1.443 1.614 0 2.489.964 2.489 2.742V353h-1.162v-4.519c0-1.339-.547-1.968-1.702-1.968-1.224 0-2.044.854-2.044 2.119V353h-1.163ZM304.95 382.375h1.176c.123 1.08.991 1.736 2.304 1.736 1.312 0 2.174-.683 2.174-1.743 0-.854-.575-1.367-1.908-1.695l-.847-.212c-1.832-.465-2.66-1.333-2.66-2.762 0-1.681 1.265-2.768 3.234-2.768 1.859 0 3.138 1.073 3.22 2.714h-1.176c-.123-1.019-.875-1.621-2.037-1.621-1.265 0-2.024.602-2.024 1.607 0 .854.547 1.347 1.832 1.668l.862.219c1.914.471 2.72 1.305 2.72 2.789 0 1.77-1.333 2.898-3.397 2.898-2.037 0-3.37-1.08-3.473-2.83Zm12.161-6.61a.94.94 0 0 1-.964-.957.94.94 0 0 1 .964-.951.94.94 0 0 1 .964.951.94.94 0 0 1-.964.957Zm3.111 9.235h-6.146v-.964h2.543v-5.489h-2.522v-.964h3.671v6.453h2.454V385Zm4.149-9.406h1.149v2.01h3.007v.991h-2.994v4.183c0 .807.568 1.244 1.613 1.244.417 0 1.163-.02 1.361-.041v.985c-.185.034-1.087.068-1.443.068-1.838 0-2.693-.697-2.693-2.242v-4.197h-1.975v-.991h1.975v-2.01Zm11.922 7.492h1.128c-.226 1.224-1.401 2.051-2.96 2.051-2.037 0-3.22-1.224-3.22-3.336v-1.114c0-1.956 1.251-3.241 3.138-3.241 1.928 0 3.062 1.279 3.062 3.425v.725h-5.051v.3c0 1.361.806 2.236 2.071 2.236.936 0 1.627-.397 1.832-1.046Zm-1.921-4.642c-1.237 0-1.982.848-1.982 2.27h3.903c0-1.415-.725-2.27-1.921-2.27Zm17.357-2.679a.94.94 0 0 1-.964-.957.94.94 0 0 1 .964-.951.94.94 0 0 1 .963.951.94.94 0 0 1-.963.957Zm3.11 9.235h-6.146v-.964h2.543v-5.489h-2.522v-.964h3.671v6.453h2.454V385Zm2.714-5.414c0-1.285 1.093-2.147 2.727-2.147 1.545 0 2.591.773 2.728 2.01h-1.121c-.137-.649-.759-1.046-1.627-1.046-.944 0-1.552.438-1.552 1.115 0 .567.383.888 1.313 1.093l1.045.24c1.443.328 2.099.957 2.099 2.03 0 1.367-1.142 2.256-2.898 2.256-1.682 0-2.796-.786-2.926-2.058h1.182c.171.684.828 1.08 1.785 1.08 1.011 0 1.654-.458 1.654-1.169 0-.588-.362-.902-1.306-1.114l-1.1-.253c-1.34-.308-2.003-.984-2.003-2.037ZM380.802 385h-6.146v-.964h2.536v-8.401h-2.515v-.964h3.677v9.365h2.448V385Zm5.544-9.235a.94.94 0 0 1-.964-.957.94.94 0 0 1 .964-.951.94.94 0 0 1 .964.951.94.94 0 0 1-.964.957Zm3.11 9.235h-6.145v-.964h2.543v-5.489h-2.523v-.964h3.671v6.453h2.454V385Zm2.065-7.417h1.244l2.071 6.173h.089l2.057-6.173h1.238L395.513 385h-1.279l-2.713-7.417Zm14.006 5.503h1.128c-.225 1.224-1.401 2.051-2.96 2.051-2.037 0-3.219-1.224-3.219-3.336v-1.114c0-1.956 1.251-3.241 3.137-3.241 1.928 0 3.063 1.279 3.063 3.425v.725h-5.052v.3c0 1.361.807 2.236 2.071 2.236.937 0 1.627-.397 1.832-1.046Zm-1.921-4.642c-1.237 0-1.982.848-1.982 2.27h3.903c0-1.415-.724-2.27-1.921-2.27Z"/>
  <rect width="16" height="16" x="306" y="276" fill="#fff" rx="3"/>
  <path fill="#0AB3AF" d="M312.224 284.454h2.732c.157 0 .275.077.381.207a.762.762 0 0 1 .144.464.62.62 0 0 1-.171.452.638.638 0 0 1-.42.168h-2.666v-1.291ZM315.218 282.427c0 .22-.052.388-.17.465a.65.65 0 0 1-.368.142h-2.457v-1.162h2.509a.535.535 0 0 1 .342.129c.092.091.144.233.144.426Z"/>
  <path fill="#0AB3AF" fill-rule="evenodd" d="M308.692 278h10.7l-.013.014c.341 0 .545.272.545.6v10.712c0 .341-.204.545-.531.545h-7.171L310.259 292v-2.142h-1.581c-.327 0-.6-.205-.6-.533V278.6c0-.327.273-.6.614-.6Zm8.316 9.293c.243-.147.445-.353.586-.601h-.014a1.76 1.76 0 0 0 .204-.873c0-.532-.123-.956-.368-1.283a2.002 2.002 0 0 0-1.036-.655c.346-.148.634-.407.818-.737a2.13 2.13 0 0 0 .273-1.023 2.053 2.053 0 0 0-.464-1.324 1.906 1.906 0 0 0-.545-.437 1.426 1.426 0 0 0-.722-.177h-5.481v7.642h4.826c.368 0 .723-.069 1.05-.151.327-.067.614-.218.873-.381Z" clip-rule="evenodd"/>
  <rect width="16" height="16" x="306" y="244" fill="#3B434C" rx="3"/>
  <path fill="url(#f)" d="M312.344 257.221c-.542-.496-.701-1.537-.475-2.291.392.475.934.626 1.496.711.868.131 1.72.082 2.526-.314.093-.046.178-.106.279-.167.075.219.095.441.068.666-.064.549-.337.973-.772 1.295-.173.128-.357.243-.537.365-.551.372-.701.809-.493 1.445l.02.069a1.456 1.456 0 0 1-.644-.551 1.55 1.55 0 0 1-.248-.841c-.002-.148-.002-.298-.022-.444-.049-.356-.216-.516-.531-.525a.621.621 0 0 0-.648.505c-.005.025-.012.048-.02.077h.001Z"/>
  <path fill="#fff" d="M309.25 254.804s1.605-.782 3.215-.782l1.214-3.756c.045-.182.178-.305.328-.305.149 0 .282.123.328.305l1.213 3.756c1.907 0 3.215.782 3.215.782l-2.732-7.443c-.078-.22-.21-.361-.388-.361h-3.272c-.178 0-.305.141-.389.361l-2.732 7.443Z"/>
  <defs>
    <filter id="c" width="647.083" height="412.083" x="208.958" y="14.563" color-interpolation-filters="sRGB" filterUnits="userSpaceOnUse">
      <feFlood flood-opacity="0" result="BackgroundImageFix"/>
      <feColorMatrix in="SourceAlpha" result="hardAlpha" values="0 0 0 0 0 0 0 0 0 0 0 0 0 0 0 0 0 0 127 0"/>
      <feOffset dy=".604"/>
      <feGaussianBlur stdDeviation="3.021"/>
      <feColorMatrix values="0 0 0 0 0.2 0 0 0 0 0.215686 0 0 0 0 0.231373 0 0 0 0.06 0"/>
      <feBlend in2="BackgroundImageFix" result="effect1_dropShadow_136_3632"/>
      <feColorMatrix in="SourceAlpha" result="hardAlpha" values="0 0 0 0 0 0 0 0 0 0 0 0 0 0 0 0 0 0 127 0"/>
      <feOffset dy="1.208"/>
      <feGaussianBlur stdDeviation="1.208"/>
      <feColorMatrix values="0 0 0 0 0.2 0 0 0 0 0.215686 0 0 0 0 0.231373 0 0 0 0.08 0"/>
      <feBlend in2="effect1_dropShadow_136_3632" result="effect2_dropShadow_136_3632"/>
      <feBlend in="SourceGraphic" in2="effect2_dropShadow_136_3632" result="shape"/>
    </filter>
    <filter id="e" width="642.293" height="213.293" x="211.853" y="210.168" color-interpolation-filters="sRGB" filterUnits="userSpaceOnUse">
      <feFlood flood-opacity="0" result="BackgroundImageFix"/>
      <feColorMatrix in="SourceAlpha" result="hardAlpha" values="0 0 0 0 0 0 0 0 0 0 0 0 0 0 0 0 0 0 127 0"/>
      <feOffset dy=".315"/>
      <feGaussianBlur stdDeviation="1.573"/>
      <feColorMatrix values="0 0 0 0 0.2 0 0 0 0 0.215686 0 0 0 0 0.231373 0 0 0 0.06 0"/>
      <feBlend in2="BackgroundImageFix" result="effect1_dropShadow_136_3632"/>
      <feColorMatrix in="SourceAlpha" result="hardAlpha" values="0 0 0 0 0 0 0 0 0 0 0 0 0 0 0 0 0 0 127 0"/>
      <feOffset dy=".629"/>
      <feGaussianBlur stdDeviation=".629"/>
      <feColorMatrix values="0 0 0 0 0.2 0 0 0 0 0.215686 0 0 0 0 0.231373 0 0 0 0.08 0"/>
      <feBlend in2="effect1_dropShadow_136_3632" result="effect2_dropShadow_136_3632"/>
      <feBlend in="SourceGraphic" in2="effect2_dropShadow_136_3632" result="shape"/>
    </filter>
    <radialGradient id="a" cx="0" cy="0" r="1" gradientTransform="matrix(179.25043 418.99993 -422.70603 180.83592 21.75 9)" gradientUnits="userSpaceOnUse">
      <stop stop-color="#DEFFFE"/>
      <stop offset=".425" stop-color="#EDF4FF"/>
      <stop offset="1" stop-color="#F6F9FD"/>
    </radialGradient>
    <linearGradient id="f" x1="311.77" x2="317.004" y1="259" y2="256.527" gradientUnits="userSpaceOnUse">
      <stop stop-color="#D83333"/>
      <stop offset="1" stop-color="#F041FF"/>
    </linearGradient>
    <clipPath id="d">
      <rect width="635" height="400" x="215" y="20" fill="#fff" rx="5"/>
    </clipPath>
  </defs>
</svg>