<svg xmlns:xlink="http://www.w3.org/1999/xlink" xmlns="http://www.w3.org/2000/svg"   aria-hidden="true" data-astro-cid-sdvpe5d5="true" data-icon="sitecore" width="1"  height="1" ><defs><symbol id="ai:local:sitecore" viewBox="0 0 50 50"><path fill="#545A61" d="M25 2C12.317 2 2 12.318 2 25s10.317 23 23 23 23-10.318 23-23S37.683 2 25 2m0 6c9.374 0 17 7.626 17 17s-7.626 17-17 17S8 34.374 8 25 15.626 8 25 8m9.244 5.21-6.531 4.546.426.73c.007.015.821 1.435.861 3.514.033 1.654 0 9-11 9-3 0-7-1-7-1s3 3 11 3c10.842 0 10.999-11.512 11-12.002l.004-.996L39.133 20a15.1 15.1 0 0 0-4.889-6.79m.694 8.79C34.629 25.204 32.804 35 22 35c-3.375 0-6.494-.665-8.883-1.379C14.864 34.993 18.375 37 24 37c7.335 0 11.096-6.431 11.133-6.496l.53-.93 2.849 1.899A14.9 14.9 0 0 0 40 25a15 15 0 0 0-.322-3zm1.343 10.389C34.845 34.386 30.792 39 24 39c-2.383 0-4.43-.335-6.166-.836A14.85 14.85 0 0 0 25 40c5.236 0 9.847-2.701 12.531-6.777z"></path></symbol></defs>   <symbol id="ai:local:sitecore" viewBox="0 0 50 50"><path fill="#545A61" d="M25 2C12.317 2 2 12.318 2 25s10.317 23 23 23 23-10.318 23-23S37.683 2 25 2m0 6c9.374 0 17 7.626 17 17s-7.626 17-17 17S8 34.374 8 25 15.626 8 25 8m9.244 5.21-6.531 4.546.426.73c.007.015.821 1.435.861 3.514.033 1.654 0 9-11 9-3 0-7-1-7-1s3 3 11 3c10.842 0 10.999-11.512 11-12.002l.004-.996L39.133 20a15.1 15.1 0 0 0-4.889-6.79m.694 8.79C34.629 25.204 32.804 35 22 35c-3.375 0-6.494-.665-8.883-1.379C14.864 34.993 18.375 37 24 37c7.335 0 11.096-6.431 11.133-6.496l.53-.93 2.849 1.899A14.9 14.9 0 0 0 40 25a15 15 0 0 0-.322-3zm1.343 10.389C34.845 34.386 30.792 39 24 39c-2.383 0-4.43-.335-6.166-.836A14.85 14.85 0 0 0 25 40c5.236 0 9.847-2.701 12.531-6.777z"></path></symbol><use href="#ai:local:sitecore"></use>  </svg>