<svg xmlns:xlink="http://www.w3.org/1999/xlink" data-icon="search" viewBox="0 0 64 64" fill="none" xmlns="http://www.w3.org/2000/svg" width="64"  height="64" ><path d="M8.5328 26.6769C8.5328 16.6562 16.6562 8.5328 26.6769 8.5328C36.6977 8.5328 44.8211 16.6562 44.8211 26.6769C44.8211 36.6977 36.6977 44.8211 26.6769 44.8211C16.6562 44.8211 8.5328 36.6977 8.5328 26.6769ZM26.6769 0C11.9437 0 0 11.9437 0 26.6769C0 41.4102 11.9437 53.3539 26.6769 53.3539C32.5038 53.3539 37.8943 51.4858 42.2822 48.3158L56.7168 62.7504C58.3829 64.4165 61.0843 64.4165 62.7504 62.7504C64.4165 61.0843 64.4165 58.3829 62.7504 56.7168L48.3158 42.2822C51.4858 37.8943 53.3539 32.5038 53.3539 26.6769C53.3539 11.9437 41.4102 0 26.6769 0Z" fill="#545A61"></path></svg>