<svg xmlns:xlink="http://www.w3.org/1999/xlink" xmlns="http://www.w3.org/2000/svg" width="63" height="70" fill="none" viewBox="0 0 63 70">
  <path fill="#000" fill-rule="evenodd" d="M36.987 8.92c-.054-.438-.128-1.035-.401-1.035-.123 0-.42.263-.74.547-.373.33-.776.688-.97.688-.076 0-.094 0-.094-.096 0-.187.231-.606.465-1.03.24-.434.484-.875.484-1.077 0-.21-.358-.246-.697-.28-.305-.03-.595-.06-.595-.213 0-.185.279-.374.577-.577.344-.234.715-.487.715-.771 0-.282-.347-.436-.673-.58-.289-.129-.561-.25-.561-.446 0-.102.234-.223.49-.357.316-.164.667-.347.667-.535 0-.16-.259-.538-.533-.939-.311-.454-.643-.937-.643-1.17 0-.274.593.05 1.18.371.426.233.85.465 1.042.465.229 0 .229-.664.229-.873 0-.324.095-.512.19-.512.105 0 .257.16.421.331.193.202.4.42.563.409.19 0 .444-.093.757-.206.503-.183 1.158-.42 1.941-.42 2.676 0 4.615 1.613 4.615 4.367 0 2.847-2.166 4.462-4.462 4.462-1.097 0-1.896-.465-2.41-.763-.241-.14-.42-.244-.535-.244-.124 0-.278.226-.43.448-.146.214-.29.425-.403.425-.095 0-.133-.018-.17-.247-.007-.044-.013-.093-.019-.143Zm1.648-1.547c0 .342.874 1.006 2.205 1.006 1.026 0 2.942-.683 2.94-3.417 0-2.165-1.121-3.456-2.998-3.456-1.16 0-1.901.474-1.901.91 0 .268.228.305.418.305.228 0 .646-.129.982-.233.225-.07.413-.127.482-.127.132 0 .208.037.208.132 0 .099-.088.251-.181.413-.106.183-.218.377-.218.517 0 .179.508.204 1.023.23.529.026 1.064.053 1.064.246 0 .2-.476.395-.898.568-.336.137-.637.261-.637.362 0 .107.233.322.497.565.344.316.738.68.738.916 0 .076-.037.152-.17.152-.188 0-.455-.046-.738-.094-.32-.056-.663-.114-.935-.114-.113 0-.17.056-.17.132 0 .136.073.336.15.546.084.23.172.471.172.65 0 .114-.056.151-.133.151-.14 0-.408-.136-.698-.284-.34-.173-.71-.36-.935-.36-.153 0-.267.113-.267.284ZM36.78 4.37c.181.151.36.299.36.401 0 .064-.178.221-.362.383-.196.174-.4.354-.4.433 0 .038.038.057.133.057.058 0 .173.003.304.007.17.006.366.012.496.012.095 0 .133.076.133.152l.038.76c0 .094.038.17.094.17.081 0 .2-.175.325-.36.138-.203.284-.418.394-.418.088 0 .286.07.479.139.182.065.359.127.433.127.037 0 .057-.019.057-.057 0-.091-.113-.285-.22-.466-.092-.158-.18-.307-.18-.369 0-.083.257-.121.52-.16.279-.042.564-.084.564-.182 0-.074-.25-.16-.508-.25-.274-.096-.556-.194-.556-.282 0-.079.127-.253.25-.422.114-.158.225-.31.225-.375 0-.039-.039-.057-.076-.057-.09 0-.236.062-.393.128-.178.076-.369.157-.5.157-.117 0-.24-.313-.348-.59-.086-.22-.163-.417-.222-.417-.087 0-.142.23-.2.476-.067.283-.14.588-.272.588-.154 0-.33-.022-.492-.043-.139-.017-.268-.033-.365-.033-.057 0-.094.019-.094.057 0 .116.193.277.383.434Z" clip-rule="evenodd"/>
  <path fill="#000" d="M21.927 7.468c0 .664 2.373 3.911 2.83 3.911.38 0 .664-.664.664-1.235a.777.777 0 0 0-.113-.417c-.342-.475-2.754-2.374-3.286-2.374-.057 0-.095.058-.095.115ZM7.97 5.512c0 .38-1.442 1.652-1.954 1.652-.19 0-.247-.228-.247-.436 0-.38.17-.912.38-1.083.246-.228.816-.34 1.252-.34.266 0 .57.055.57.207Z"/>
  <path fill="#000" d="M25.308 6.613c0-.61-.883-1.487-1.71-2.307-.716-.711-1.389-1.38-1.405-1.794-.003-.081.041-.163.11-.235.246-.26.852-.486 1.43-.701.663-.248 1.29-.482 1.29-.736 0-.246-.457-.246-.685-.246-1.766 0-4.348.646-4.348 1.272 0 .308.526.828 1.077 1.371.605.597 1.24 1.223 1.24 1.63 0 .209-.134.285-.343.285-.32 0-.827-.192-1.338-.386-.52-.196-1.042-.394-1.377-.394-.303 0-.418.21-.418.514 0 .52.354 1.309.657 1.983.227.506.425.948.425 1.167 0 .058-.019.134-.095.134-.15 0-.54-.362-.981-.77-.57-.525-1.222-1.128-1.544-1.128-.208 0-.228.284-.228.702v.645c0 .437-.019.703-.227.703-.25 0-.432-.354-.611-.704-.177-.343-.35-.682-.585-.682-.25 0-.398.63-.544 1.254-.143.61-.285 1.214-.52 1.214-.277 0-.294-.691-.311-1.376-.016-.673-.033-1.34-.296-1.34-.32 0-.662.532-.974 1.018-.264.41-.507.787-.698.787-.151 0-.189-.152-.189-.285 0-.278.082-.642.163-1.004.08-.355.159-.707.159-.97 0-.266-.076-.418-.303-.418-.308 0-.807.26-1.284.506-.436.227-.854.443-1.09.443-.076 0-.17-.037-.17-.114 0-.207.43-.62.899-1.07.558-.536 1.17-1.123 1.17-1.474 0-.302-.663-.361-1.35-.423-.736-.066-1.5-.134-1.5-.508 0-.3.5-.607 1.005-.915.512-.314 1.029-.63 1.029-.945 0-.551-2.412-.797-3.342-.797-1.12 0-1.728.132-1.728.455 0 .254.677.418 1.332.577.616.15 1.213.294 1.213.505 0 .186-.525.513-1.107.874-.723.449-1.533.952-1.533 1.31 0 .282.914.294 1.837.306.938.012 1.884.024 1.884.321 0 .293-.67 1.029-1.4 1.832-.879.964-1.846 2.026-1.846 2.534 0 .21.152.305.36.305.536 0 1.535-.553 2.449-1.06.771-.426 1.482-.82 1.804-.82.247 0 .267.303.267.57 0 .24-.04.542-.082.853-.044.33-.089.667-.089.95 0 .437.114.74.493.74.386 0 .755-.36 1.087-.685.273-.267.522-.51.737-.51.273 0 .35.708.435 1.49.105.957.221 2.022.723 2.022.433 0 .725-1.176.984-2.22.206-.83.391-1.577.61-1.577.252 0 .48.286.703.567.214.27.423.534.646.534.28 0 .358-.464.437-.935.082-.487.165-.983.475-.983.31 0 .893.5 1.511 1.032.703.603 1.452 1.247 1.906 1.247.266 0 .36-.21.36-.476 0-.545-.412-1.463-.79-2.304-.32-.713-.614-1.37-.614-1.701 0-.19.056-.247.265-.247.34 0 .981.216 1.674.45.816.276 1.703.575 2.256.575.345 0 .553-.19.553-.437Z"/>
  <path fill="#000" d="M23.332 2.854c0 .341 1.197 1.082 1.748 1.082.323 0 .418-.437.418-.893 0-.569-.246-.588-.74-.588-.628 0-1.425.171-1.425.399ZM18.87.917c0-.115-.57-.229-1.347-.229-.658 0-.917.292-1.159.564-.212.239-.41.463-.854.463-.464 0-.656-.235-.859-.485-.229-.28-.472-.58-1.135-.58-.76 0-1.462.134-1.462.304 0 .086.127.127.284.177.261.083.608.193.608.584 0 .374-.608.598-1.14.793-.412.152-.778.286-.778.46 0 .133.152.19.342.19.202 0 .462-.045.73-.09.287-.05.582-.1.827-.1.266 0 .513.056.513.303 0 .251-.286.608-.556.944-.241.301-.47.586-.47.766 0 .114.094.152.19.152.168 0 .387-.189.633-.4.31-.267.661-.569 1-.569.579 0 .605.71.628 1.313.016.445.03.833.264.833.26 0 .35-.437.448-.913.117-.57.247-1.196.691-1.196.365 0 .677.438.96.835.234.328.448.628.655.628.114 0 .209-.095.209-.228 0-.185-.123-.46-.254-.754-.152-.34-.316-.708-.316-.993 0-.323.228-.475.532-.475.234 0 .513.077.77.148.222.061.428.118.577.118.113 0 .228-.038.228-.17 0-.214-.37-.435-.764-.671-.447-.268-.925-.554-.925-.867 0-.352.333-.494.6-.608.18-.076.33-.14.33-.247ZM49.973 11.664c-.266 0-.646 0-.855-.417-.066-.13-.098-.29-.13-.453-.053-.264-.107-.534-.307-.687.323.095.664.095.93.095.461 0 .911-.171 1.326-.329.355-.134.685-.26.975-.26.413 0 .547.266.547.531 0 .837-1.687 1.52-2.486 1.52Z"/>
  <path fill="#000" d="M50.39 13.81c1.973 0 3.78-1.576 3.78-2.962 0-.646-.305-1.177-1.084-1.272.133.17.19.303.19.607 0 1.045-1.592 2.204-3.322 2.204-.627 0-.817.436-.817.663 0 .533.513.76 1.253.76Z"/>
  <path fill="#000" d="M50.239 14.608c.248 1.803 2.98 4.234 3.72 4.177.496-.042.685-2.355.685-4.177l.001-.27c.005-.913.008-1.608-.495-1.781-.874 1.766-3.17 2.127-3.911 2.05ZM8.032 61.164c-.026-.084-.066-.195-.111-.323-.13-.367-.31-.873-.37-1.273-.18-1.196.446-1.983 1.02-2.164.644-.18.895.144 1.145.896.322 1.145.358 2.646.25 4.794-.141 2.935-1.61 6.479-5.259 6.405-3.15-.07-4.544-2.11-4.689-5.223-.068-1.467.037-2.934.644-5.009.323-1.11.61-1.506 1.61-1.719.787-.144.716.678.538 1.648-.392 2.146-.574 3.182-.429 5.617.14 2.576 1.324 3.579 2.612 3.579 1.933.037 2.79-1.573 3.15-3.902.284-1.86.07-2.754-.111-3.326ZM24.116 57.62c-.05-.575-.5-.965-1.109-.965-.679 0-1.319.712-1.25 1.608.043.59.39 1.075 1.074 1.075.785 0 1.357-.894 1.285-1.719Z"/>
  <path fill="#000" fill-rule="evenodd" d="M53.674 63.488c-.443 1.84-1.788 4.547-3.794 4.547-.465 0-1.288-.18-1.288-.645 0-.158.31-.273.736-.43.931-.345 2.415-.894 2.415-2.54 0-.894-.822-2.148-2.04-2.148-1.61 0-3.18 1.755-3.18 4.188 0 2.181 1.354 2.897 2.714 2.897 2.363 0 3.794-1.933 4.545-3.542.097.29.184.682.275 1.1.249 1.127.538 2.442 1.194 2.442.356 0 .609-.179 1.038-1.144.113-.251.225-.507.337-.763.957-2.184 1.924-4.391 3.205-4.391.21 0 .288.149.384.33.147.28.336.638 1.119.638.607 0 1.035-.5 1.035-1.076 0-.824-.75-1.466-1.895-1.466-2.403 0-3.454 2.576-4.054 4.047-.24.588-.407 1-.561 1-.484 0-.623-1.184-.75-2.27-.108-.922-.208-1.775-.504-1.775-.573 0-.854.682-.93 1.001Zm-4.438.217c.753 0 .969.89.789 1.43-.18.535-.823 1.146-1.824 1.324-.216-.538-.324-2.754 1.035-2.754ZM25.047 67.782c.537 0 1.46-.174 2.185-1.337-.415-.921-.711-2.784-.752-3.463-.214-3.469 1.123-6.732 2.585-6.823 1.073-.065 1.931.95 2.03 2.596.22 3.618-.752 5.471-1.497 6.893h-.001c-.145.277-.281.537-.399.79.122.604 1.146 1.632 2.112 1.632.357 0 .788-.18.896-.324a3.549 3.549 0 0 1-.145-1.038c0-2.505 1.611-4.617 3.007-4.617 1.11 0 1.754 1.467 1.754 2.435 0 1.144-.967 2.076-2.398 2.97.252.25.715.43 1.11.43 2.041 0 3.11-2.47 3.9-4.725.143-.43.395-1.038.895-1.038.375 0 .655 1.08.97 2.295.407 1.567.872 3.36 1.676 3.36.61 0 1.11-1.254 1.11-2.217a2.47 2.47 0 0 0-.108-.728c-.068-.253-.142-.532-.142-1.099 0-1.144.608-2.11 1.434-2.11.5 0 .68.5.68 1.107 0 2.29-1.648 6.55-4.078 6.55-1.147 0-1.518-1.24-1.794-2.165-.164-.548-.295-.985-.535-.985-.223 0-.474.308-.82.731-.766.94-2 2.454-4.44 2.454-.575 0-1.182-.286-1.682-.86-.858.574-1.575.825-2.399.825-.808 0-1.337-.508-1.748-.903-.261-.252-.475-.457-.683-.457-.229 0-.466.174-.772.4-.559.413-1.348.995-2.737.995-1.077 0-1.591-.9-1.975-1.57-.228-.4-.41-.718-.636-.718-.235 0-.524.437-.85.929-.42.634-.901 1.36-1.405 1.36-.776 0-1.237-1.057-1.683-2.08-.419-.96-.825-1.892-1.468-1.892-.524 0-1.623 1.033-2.696 2.041-1.048.985-2.07 1.946-2.51 1.9-.357-.037-.508-.304-.47-.663.037-.364.277-1.177.47-1.83.07-.236.133-.451.179-.617.106-.4.21-.816.305-1.199v-.002c.164-.656.304-1.22.398-1.46.148-.384.545-.658.864-.628.15.014.201.276.248.512l.01.05c.181.885.433 1.787.718 1.787.21 0 .625-.56 1.106-1.21.666-.9 1.462-1.976 2.023-1.976.546 0 .87 1.068 1.219 2.218.407 1.341.848 2.794 1.715 2.794.538 0 .933-.643 1.29-1.433.036-1.326.393-3.218 1.467-3.218.752 0 1.11 1.68.571 3.15 0 1.751 1.143 2.181 1.896 2.181Zm10.2-2.864c0-.606-.324-1.107-.714-1.107-.326 0-1.074.356-1.074 1.502 0 .898.319 1.323.465 1.506 1.035-.324 1.324-1.185 1.324-1.9Zm-5.311-5.197c-.062-1-.305-1.452-.842-1.415-.713.043-1.042 2.285-.896 4.642.092 1.538.321 1.775.535 1.76.394-.024 1.34-2.771 1.203-4.987Z" clip-rule="evenodd"/>
  <path fill="#000" d="M8.063 24.93c-.15.857-.282 1.622-.566 1.622-.171 0-.38-.077-.38-.97 0-.54.032-.938.054-1.218.012-.152.021-.27.021-.357 0-.152-.056-.266-.227-.266-.589 0-1.063 2.107-1.063 4.197 0 2.355.455 3.815 1.044 3.815.588 0 1.424-1.423 1.424-1.954 0-.185-.088-.32-.202-.497-.027-.04-.055-.084-.083-.13-.456-.74-.018-1.575.342-1.575.299 0 .423.16.615.403.124.16.277.355.525.565.247.209.34.437.34.702 0 .528-.436 1.14-.968 1.886-.825 1.157-1.879 2.633-1.879 4.608 0 2.831 1.616 3.907 2.568 4.541.311.208.552.368.641.527.965-1.753.08-2.554-.84-3.387-.963-.872-1.965-1.778-.926-3.846.456.95.949 1.063 2.164 1.139-.74-.646-.834-1.177-.834-1.69 0-.893.792-2.413 1.421-3.62.08-.153.158-.301.23-.443.836-1.614 1.786-4.026 1.786-5.051 0-.437-.171-.646-.361-.646-.21 0-.437.285-.608.817-.303 1.025-1.253 3.075-1.728 3.075-.095 0-.132-.094-.132-.208 0-.351.26-1.125.533-1.938.304-.903.624-1.855.624-2.334 0-.247-.114-.494-.36-.494-.441 0-.888 1.394-1.276 2.604-.296.927-.558 1.745-.756 1.745-.171 0-.267-.114-.267-.476 0-.34.098-.814.202-1.313.114-.555.236-1.14.236-1.61 0-.304-.076-.551-.324-.551-.585 0-.8 1.238-.99 2.328Z"/>
  <path fill="#000" d="M12.338 32.114c.798 0 1.462-.59 1.462-1.897v-1.938c0-.74.057-1.576.551-2.165-.057.247-.057.513-.057.76 0 .824.232 1.518.462 2.205.225.675.449 1.344.449 2.124 0 .588-.171.912-.626.912-.298 0-.375-.185-.424-.303-.023-.056-.04-.096-.07-.096-.076 0-.19.246-.19.512 0 .4.285 1.026 1.082 1.026.684 0 1.234-.627 1.234-1.33 0-.84-.322-1.726-.648-2.627-.338-.93-.681-1.876-.681-2.802 0-.798.209-1.33.38-1.748 0 2.297 1.185 4.214 2.114 5.719.6.971 1.094 1.77 1.094 2.389 0 .361-.265.646-.664.646a.62.62 0 0 1-.646-.609c0-.132-.02-.17-.076-.17-.113 0-.455.38-.455.874 0 .626.512 1.387 1.462 1.387 1.081 0 1.67-.913 1.67-1.73 0-.876-.753-1.952-1.598-3.157-1.074-1.533-2.294-3.275-2.294-5.082 0-.552.094-1.444.494-2.127-2.507 1.613-3.285 3.76-3.285 5.64 0 1.633-.057 2.448-.892 2.448-.275 0-.422-.157-.531-.274-.065-.069-.116-.124-.173-.124-.113 0-.17.342-.17.436 0 .702.514 1.101 1.026 1.101Z"/>
  <path fill="#000" fill-rule="evenodd" d="M41.596 10.661c-.241.011-.411.02-.49.072-.057.038-.115.077-.115.19 0 1.425 1.52 3.627 4.045 3.627 1.729 0 3.188-.589 3.188-1.557 0-.835-.817-2.62-1.383-2.62-.168 0-.39.086-.628.179-.272.106-.563.22-.816.22-.297 0-.408-.182-.522-.367-.119-.194-.24-.393-.58-.393a1.03 1.03 0 0 0-.494.132c-.928.458-1.714.495-2.205.517Zm5.112 1.876c0 .228-.627.608-1.463.608-1.407 0-2.32-.759-2.32-1.254 0-.056.039-.094.115-.094.098 0 .266.056.49.13.295.1.689.23 1.145.306.93.153 1.425.172 1.672.172.247 0 .36.057.36.132Z" clip-rule="evenodd"/>
  <path fill="#000" d="M12.738 39.273c-.626.152-1.633 1.138-1.633 2.697 0 1.86 1.994 4.728 5.279 4.728 2.771 0 3.455-1.918 3.455-3.21 0-2.867-1.765-4.88-4.062-4.88-1.253 0-2.374.911-2.374 2.259 0 1.255.95 3.134 3.208 3.134 1.064 0 1.69-.76 1.69-1.632 0-.855-.778-2.031-1.918-2.031-.342 0-.588.225-.588.587 0 .455.626.912 1.405.912.189 0 .341-.038.418-.077a.466.466 0 0 1 .057.229c0 .437-.418.703-1.064.703-.968 0-1.899-.721-1.899-1.863 0-.682.59-1.175 1.444-1.175 1.69 0 2.695 1.5 2.695 3 0 1.347-.739 2.127-2.259 2.127-3.038 0-4.518-2.735-3.854-5.508Z"/>
  <path fill="#000" fill-rule="evenodd" d="M35.323 50.345c-.136.022-.326.053-.91.053-1.064 0-2.764-.418-3.544-2.24-.132-.304-.358-.304-.436-.304-.151 0-.326.153-.575.371-.627.548-1.725 1.51-4.115 1.51-1.405 0-2.05-.514-2.05-.647 0-.019 0-.038.076-.038.042 0 .12.006.229.014.238.017.619.044 1.063.044 2.107 0 3.817-.968 4.842-2.087.36-.399.531-.456.834-.456.266 0 .551.228.684.589.475 1.214 1.558 2.182 2.734 2.182 1.09 0 1.444-1.276 1.68-2.127.11-.394.194-.696.314-.738a.842.842 0 0 0 .228.037c.19 0 .495-.133.495-.495 0-.242-.192-.376-.357-.49-.094-.066-.179-.125-.213-.194a1.392 1.392 0 0 1-.112-.396c-.055-.299-.108-.59-.496-.59-.371 0-.416.29-.454.534l-.002.017c-.816-.247-1.5-.361-2.108-.361a3.43 3.43 0 0 0-1.139.171c-.227-.381-1.158-1.121-1.973-1.388-.323 1.712-1.862 3.059-4.14 3.249-.134 1.119-1.007 1.404-1.691 1.404-.494 0-1.272-.17-1.31-.36-.284-1.614-1.5-2.525-2.033-2.733.02.17.039.358.039.53 0 1.368-.931 2.22-2.677 2.22-.284 0-.646-.018-.912-.075 1.406 1.566 2.528 1.622 3.394 1.666.363.018.68.034.955.157.311.14.607.356.941.598.97.706 2.258 1.642 5.154 1.642 1.424 0 2.867-.55 3.816-1.158.17.57.76 1.082 1.728 1.082 1.652 0 2.583-.512 2.583-.93 0-.114-.02-.285-.304-.285-.102 0-.161.01-.238.022Zm-1.622-2.981a.762.762 0 0 1-.76-.76c0-.42.342-.761.76-.761s.76.342.76.76c0 .419-.342.76-.76.76ZM45.93 38.303c-.138 0-.493.354-.957.815-.875.871-2.14 2.129-3.069 2.129-.341 0-.626-.646-.626-1.137 0-.267.17-.457.78-.59 1.613-.367 2.252-1.15 2.823-1.849.585-.715 1.097-1.342 2.508-1.342 1.538 0 3.25 1.046 3.25 3.4 0 2.506-3.568 5.619-4.1 5.619-.438 0-.913-.627-.913-1.044 0-.133.058-.304.438-.456 1.82-.722 2.863-2.393 2.863-3.248 0-.19-.094-.378-.341-.378-.101 0-.307.31-.59.737-.616.93-1.598 2.414-2.655 2.414-1.065 0-2.148-.966-2.148-1.423 0-.349.646-.832 1.346-1.356.829-.62 1.733-1.296 1.733-1.873 0-.4-.19-.417-.342-.417Zm2.049-1.176c-.266 0-.551.21-.551.723 0 .568.437.93.684 1.043.133.077.342.153.55.153.55 0 .988-.153.988-.61 0-.586-.856-1.309-1.671-1.309Z" clip-rule="evenodd"/>
  <path fill="#000" d="M7.117 13.828c.683 0 1.233-.416 1.233-.416-1.1-.324-1.708-1.14-1.708-2.223 0-.114 0-.209.019-.323-.702.305-1.006.912-1.006 1.5 0 .855.646 1.462 1.462 1.462ZM11.56 19.24c0-.854.436-1.69.854-2.182.95.283 2.108 1.177 2.108 2.449 0 .816-.437 1.613-1.367 1.613-.968 0-1.596-.854-1.596-1.88Z"/>
  <path fill="#000" fill-rule="evenodd" d="M6.053 18.026c0-.076.022-.151.058-.21.07-.115.104-.323.148-.586.121-.726.311-1.87 1.52-2.641.835-.532 1.577-.609 2.203-.609.152 0 .304.007.418.02l.2.02c.246.024.433.042.503.112s.089.17.112.288c.027.141.06.31.192.491.098.134.204.207.295.269.134.092.237.162.237.377 0 .285-.532 1.975-1.9 2.659-.645.322-1.158.455-1.594.455-.415 0-.759-.101-1.06-.19-.238-.07-.449-.132-.649-.132-.031 0-.066.006-.107.014-.057.01-.127.023-.216.023-.17 0-.36-.19-.36-.36Zm4.759-2.33a1.67 1.67 0 0 1-.24-.234 1.504 1.504 0 0 1-.197-.43c-.05-.152-.093-.28-.182-.33a.458.458 0 0 0-.285-.075c-.284 0-.494.037-.494.398 0 .57.531 1.577 1.197 1.577.303 0 .456-.343.456-.608 0-.078-.125-.186-.255-.299Zm-3.297.601c0 .704.683 1.482 1.31 1.482.342 0 .703-.19.703-.324 0-.032-.029-.051-.074-.08l-.021-.014c-.57-.265-1.178-.797-1.292-1.728-.018-.133-.057-.19-.133-.19-.208 0-.493.475-.493.854Z" clip-rule="evenodd"/>
  <path fill="#000" d="M10.61 11.892c0 .418-.076.797-.17 1.101-1.311 0-2.812-.607-2.812-2.107 0-.703.533-1.291 1.273-1.291 1.29 0 1.709 1.386 1.709 2.297ZM6.737 22.715c-.778 0-1.216-.684-1.216-2.126.57.873 1.102 1.139 1.785 1.139.512 0 1.083-.114 1.823-.285-.968.835-1.785 1.272-2.392 1.272ZM6.168 19.183c0-.094 0-.189.018-.285.456.627 1.215.816 1.917.816.228 0 .475-.019.683-.057-.492.628-1.044.913-1.518.913-.626 0-1.1-.495-1.1-1.387ZM9.49 20.227c0-.949.91-1.48 1.348-1.594a2.539 2.539 0 0 0-.133.874c0 .568.19 1.138.721 1.651-.152.114-.398.19-.74.19-.665 0-1.196-.438-1.196-1.12ZM12.28 14.19a.762.762 0 0 1-.759-.76c0-.417.342-.76.76-.76.417 0 .76.343.76.76 0 .418-.343.76-.76.76ZM13.27 15.899a.763.763 0 0 1-.762-.76c0-.417.342-.76.762-.76.417 0 .759.343.759.76 0 .418-.342.76-.76.76ZM42.134 24.462c0-.379.342-.702.717-.702.419 0 .742.323.742.702a.72.72 0 0 1-.742.741.725.725 0 0 1-.717-.74ZM35.467 18.614c0 .418.343.76.759.76.42 0 .761-.342.761-.76a.763.763 0 0 0-.761-.759.762.762 0 0 0-.759.76ZM34.822 21.291c0 .59.492 1.082 1.082 1.082.588 0 1.083-.493 1.083-1.082 0-.588-.495-1.082-1.083-1.082-.59 0-1.082.494-1.082 1.082ZM37.215 20.076a1.15 1.15 0 0 0 1.155 1.158c.646 0 1.16-.512 1.16-1.158 0-.646-.514-1.158-1.16-1.158a1.15 1.15 0 0 0-1.155 1.158ZM37.31 17.608c0 .399.324.723.719.723a.722.722 0 0 0 0-1.444.72.72 0 0 0-.718.72ZM40.746 15.786a.722.722 0 1 0 1.443-.002.722.722 0 0 0-1.443.002ZM39.321 18.121c0 .664.55 1.214 1.216 1.214.666 0 1.217-.55 1.217-1.214 0-.665-.55-1.215-1.217-1.215-.665 0-1.216.55-1.216 1.215ZM37.367 22.564a.76.76 0 0 0 .757.759c.418 0 .76-.341.76-.76a.762.762 0 0 0-.76-.759.761.761 0 0 0-.757.76ZM39.853 21.044c0 .418.342.76.761.76.418 0 .76-.342.76-.76a.762.762 0 0 0-.76-.759c-.42 0-.76.342-.76.76ZM39.15 23.722c0 .721.59 1.31 1.312 1.31.721 0 1.312-.589 1.312-1.31 0-.722-.59-1.31-1.312-1.31-.723 0-1.311.588-1.311 1.31ZM41.886 22.107a.892.892 0 1 0 1.784.003.892.892 0 0 0-1.784-.003ZM41.83 19.715c0 .437.361.798.793.798.438 0 .8-.36.8-.798a.803.803 0 0 0-.8-.797.802.802 0 0 0-.794.797Z"/>
  <path fill="#000" fill-rule="evenodd" d="M40.194 45.861c1.92 0 3.074-.853 3.568-1.233.438 0 1.046.418 1.046 1.443 0 1.802-2.656 4.023-6.21 4.023-1.098 0-1.687-.758-1.687-1.517 0-1.082.59-2.07 1.04-2.602.21-.247.418-.437.609-.437.042 0 .107.025.202.061.247.094.69.262 1.431.262Zm2.637.837c0-.343-.114-.399-.21-.399a.494.494 0 0 0-.144.068c-.277.156-.93.521-2.112.52h-.247l.008.07.004.032c.014.119.026.215.026.336 0 .453-.114.93-.266 1.383.95-.017 1.596-.283 2.07-.607.681-.436.87-.986.87-1.403Z" clip-rule="evenodd"/>
  <path fill="#000" d="M42.965 43.868c0 .21-.036.42-.19.551-.49.418-1.232.627-2.049.627-1.026 0-1.863-.36-1.863-.722v-.874c0-.266.741-.891 2.129-.891 1.14 0 1.973.32 1.973.872v.437ZM35.371 23.096c.098.756.627.979 1.16 1.203.605.254 1.216.51 1.216 1.549 0 .134-.017.298-.035.471-.02.195-.041.402-.041.593 0 .418.037.778.357.778.322 0 .399-.227.399-.531 0-.167-.023-.356-.044-.527-.017-.142-.033-.271-.033-.366 0-.665.476-.816.761-.816.325 0 .615.15.934.314.391.202.826.426 1.423.426-.119.583-.757.812-1.389 1.039-.687.247-1.367.49-1.367 1.183 0 .665.665.816 1.102.816.4 0 .533-.057.533-.398 0-.104-.012-.213-.022-.312a2.306 2.306 0 0 1-.017-.22.15.15 0 0 1 .153-.152c.419 0 2.466 1.557 2.466 2.032 0 .436-2.162.873-2.79.873-.19 0-.228-.133-.228-.209 0-.057.061-.165.13-.287.09-.159.193-.343.193-.472 0-.17-.284-.285-1.045-.285-.361 0-.627.038-.627.324 0 .26.217.55.43.836.205.274.406.544.406.776 0 .38-.228.608-.836.608-.514 0-1.29-.4-1.29-1.063 0-.299.173-.597.325-.859.118-.204.224-.385.224-.527 0-.095-.073-.247-.3-.247-.25 0-.436.235-.682.546-.447.567-1.096 1.389-2.7 1.523.398-.36.739-.76.739-1.574 0-.195-.023-.372-.045-.553-.024-.19-.049-.383-.049-.606 0-.57.265-.855.645-.855.388 0 .667.302.915.572.2.218.382.415.587.415.247 0 .513-.227.513-.569 0-.66-.58-.975-1.21-1.316-.747-.405-1.564-.848-1.564-1.95.001-.551.19-1.235.703-2.183Z"/>
  <path fill="#000" d="M44.428 28.66c0 .473.153 1.024.628 1.024.399 0 .74-.607.74-1.272 0-.465-.05-.866-.088-1.177-.024-.197-.044-.358-.044-.476 0-.132.057-.189.132-.189.139.01.273.198.409.389.144.202.29.408.447.408.192 0 .437-.198.652-.371.168-.136.317-.256.408-.256.057 0 .076.077.076.095 0 .148-.117.388-.23.619-.106.214-.207.421-.207.54 0 .107.288.169.57.23.27.057.532.114.532.207 0 .165-.39.235-.824.312-.314.056-.651.117-.882.22-.532.227-.856.512-.856.892s.38.456.912.456c.861 0 1.55-.315 1.991-.517.21-.096.364-.166.456-.166.056 0 .094.037.094.094 0 .085-.13.26-.274.45-.175.234-.371.495-.371.652 0 .18.368.377.689.55.254.137.478.257.47.341-.019.057-.095.076-.228.076-.1 0-.227-.013-.359-.027a4.32 4.32 0 0 0-.42-.03c-.153 0-.285.019-.343.094-.055.063-.058.27-.061.493-.005.318-.01.667-.166.667-.072 0-.178-.191-.328-.461-.365-.656-.99-1.78-2.024-1.78-.21 0-.361.171-.361.456 0 .759.74 1.632 1.444 2.05.12.08.272.159.414.233.232.121.437.229.437.3 0 .099-.23.115-.49.133-.337.024-.722.05-.722.265 0 .176.04.398.08.613.036.202.072.399.072.545 0 .095-.02.208-.133.208-.11 0-.294-.24-.486-.491-.206-.271-.421-.552-.56-.552-.116 0-.301.163-.483.323-.174.153-.345.303-.447.303-.057 0-.095-.057-.095-.113 0-.176.114-.44.25-.757.202-.47.453-1.056.453-1.636 0-.456-.057-1.443-.608-1.443-.456 0-.97.721-1.198 1.443-.05.156-.067.481-.086.826-.031.575-.066 1.206-.256 1.206-.132 0-.186-.233-.245-.482-.067-.29-.14-.6-.345-.6-.15 0-.394.147-.621.284-.196.118-.38.228-.476.228-.038 0-.077-.02-.077-.057 0-.125.167-.406.317-.658.123-.207.235-.394.235-.462 0-.15-.35-.232-.68-.309-.295-.069-.575-.134-.575-.242 0-.133.495-.227.95-.304.966-.171 2.39-.873 2.39-1.86 0-.95-.79-1.434-1.457-1.842-.106-.065-.21-.128-.305-.19-.085-.054-.172-.105-.256-.155-.271-.16-.505-.298-.505-.414 0-.153.456-.153.646-.153.285 0 .567-.019.567-.246 0-.076-.008-.187-.016-.309-.01-.152-.022-.322-.022-.47 0-.19.018-.342.095-.342.157 0 .348.281.52.534.14.208.269.396.355.396.154 0 .337-.195.518-.388.175-.187.348-.371.489-.371.094 0 .133.057.133.227 0 .355-.092.733-.183 1.109-.09.37-.178.737-.178 1.076ZM37.006 34.583c0-.248-.21-.55-1.084-.665.049-.305.404-.37.735-.43.308-.057.595-.11.595-.348 0-.361-.704-.646-1.539-.646-3.248 0-5.62 2.64-5.62 5.544 0 2.62 1.898 5.469 5.45 5.469 3.416 0 5.05-2.753 5.07-4.842-.627.57-2.319.74-3.19.74-1.911 0-2.792-.706-3.27-1.09-.177-.142-.299-.24-.397-.24-.36 0-.36.59-.36.8 0 .207-.018.284-.132.284-.07 0-.144-.02-.215-.04a.738.738 0 0 0-.184-.037c-.114 0-.19.096-.19.267 0 .798 1.006 1.385 2.032 1.385.867 0 1.443-.24 1.833-.403.2-.083.35-.146.466-.146.152 0 .228.172.228.264 0 .116-.07.245-.133.359-.05.09-.095.172-.095.23 0 .146.148.166.303.186.167.022.343.045.343.233 0 .457-.779.856-1.996.856-2.354 0-3.911-1.634-3.911-3.134 0-1.743 1.16-2.067 2.05-2.315.556-.155 1.007-.281 1.007-.704 0-.38-.361-.552-.608-.59.342-.398.759-.494 1.177-.494.17 0 .334.016.49.03.142.014.277.027.403.027.361 0 .742-.132.742-.55ZM41.942 35.532c0-.19-.057-.399-.19-.606 1.422.094 2.334.948 2.334 1.955 0 .741-.532 1.366-1.311 1.366-.718 0-1.194-.511-1.194-1.138 0-.278.092-.541.183-.802.09-.257.178-.511.178-.775Z"/>
  <path fill="#000" d="M35.713 36.71c0-.19-.058-.38-.247-.57 1.1 0 1.844.703 1.844 1.425 0 .492-.362.91-.895.91-.493 0-.835-.4-.835-.853 0-.167.035-.328.07-.485.032-.147.063-.29.063-.427Z"/>
  <path fill="#000" fill-rule="evenodd" d="M41.068 36.198c0-1.406-1.083-2.906-3.078-3.286.265.323.36.646.36.968 0 .411-.158.827-.314 1.24-.155.408-.309.814-.309 1.21 0 1.063.7 1.727 1.669 1.727 1.064 0 1.672-.89 1.672-1.86Zm-1.634-.285c-.266 0-.456-.21-.456-.475 0-.082.027-.186.055-.293a1.92 1.92 0 0 0 .059-.277c.011-.074.014-.147.017-.212.005-.152.01-.263.116-.263.342 0 .703.551.703.95 0 .303-.19.57-.494.57ZM23.637 12.234c1.254 0 1.823 1.082 1.823 2.297 0 .532-.15 1.31-.398 1.31-.197 0-.213-.277-.23-.592-.005-.08-.01-.163-.017-.243-.038-.513-.133-.627-.304-.627-.323 0-.531.76-.531 1.463 0 .436.075.93.416.93.19 0 .362-.095.476-.209-.076.873-.723 1.634-1.634 1.634-1.67 0-2.297-1.957-2.486-3.096-1.007 1.063-1.937 1.842-3.608 1.842-1.557 0-2.26-1.14-2.26-2.221 0-.324.114-1.159.514-1.159.197 0 .24.27.29.585.07.442.154.971.696.971.229 0 .645-.19.874-.815.133-.38.209-.779.209-1.121 0-.513-.114-.835-.493-.835-.324 0-.723.246-.856.379.457-1.367 1.558-2.07 2.771-2.07 1.502 0 2.299 1.33 2.299 2.811 0 .208-.02.436-.058.645.646-1.063 1.54-1.88 2.508-1.88Zm-5.62 3.665c.646 0 1.386-3.494 1.386-4.083 0-.152-.056-.267-.189-.267-.59 0-1.405 3.324-1.405 4.065 0 .133.037.285.209.285Zm4.653 1.044c.473 0 1.005-1.824 1.005-2.963 0-.247-.038-.512-.152-.512-.4 0-1.064 1.88-1.064 2.905 0 .399.096.57.21.57Zm-3.097-1.69c.209 0 .475-.23.97-.778.037-.247.037-.476.037-.76 0-.38-.152-.798-.38-.798-.57 0-.854 1.52-.854 1.919 0 .227.114.417.227.417Zm2.602-.778c0-.324-.076-.4-.152-.4-.19 0-.398.229-.702.741.038.684.152.988.342.988.208 0 .512-.665.512-1.33Z" clip-rule="evenodd"/>
  <path fill="#000" d="M19.232 20.322c0-1.992.037-2.981.854-2.981.456 0 1.31.817 1.538 1.652a1.454 1.454 0 0 0-.285-.038c-.608 0-.948.608-1.443 1.633 1.101-.742 2.126-1.348 3.285-1.348.987 0 1.766.606 1.766 1.538 0 .398-.19.835-.437 1.214-.152-.854-.854-1.233-2.07-1.233-.702 0-1.538.132-2.202.38 2.146.303 2.469 1.081 2.469 1.784 0 1.186-1.176 1.775-1.974 2.174l-.02.01c.075-.342.132-.703.132-1.082 0-.722-.265-1.539-1.347-2.335-.08.368-.26.669-.426.948-.184.31-.352.592-.352.912 0 .227.152.303.265.303 0 .185-.044.553-.085.892-.035.287-.067.553-.067.666 0 .513.114.608.361.665.086.248.125.592.162.914.028.246.054.479.099.649.06.223.232.28.365.28l.052.132c.144.37.33.846.651 1.082.075.057.17.19.17.304 0 .342-.511.722-.834.722-.095 0-.26-.06-.405-.41-.053-.127-.262-.31-.484-.505-.28-.246-.58-.509-.611-.7.057-.057.095-.17.095-.304 0-.235-.165-.486-.347-.765-.23-.35-.488-.744-.488-1.209.095-.038.19-.19.19-.361 0-.22-.107-.54-.222-.883-.131-.392-.273-.814-.273-1.148.21 0 .324-.02.342-.324.04-.627.171-1.557.76-2.088a3.589 3.589 0 0 0-.531-.039c-1.14 0-2.905.665-3.57 2.146a3.795 3.795 0 0 1-.057-.626c0-1.234.74-2.051 1.291-2.298.285-.133.627-.17 1.007-.17.587 0 1.282.124 1.996.252l.073.013c-.646-.855-1.633-1.481-2.45-1.481-.38 0-.683.133-.778.455a3.51 3.51 0 0 1-.057-.645c0-.93.303-1.462 1.1-1.462 1.178 0 2.183 1.405 2.792 2.715ZM52.08 31.032c.95 0 1.71 1.233 1.71 2.677 0 1.538-.723 3.21-2.01 4.348-.01-1.383-.929-1.782-1.772-2.149-.72-.312-1.384-.602-1.384-1.458 0-.797.57-1.33 1.255-1.33.589 0 1.053.161 1.392.482a1.689 1.689 0 0 1-.48-1.184c0-.723.456-1.386 1.288-1.386ZM36.585 13.677c-.532 0-.968-.208-1.462-.683-.341.475-.493 1.12-.493 1.728 0 1.025.397 1.994.834 2.07.113.008.17-.138.234-.299.075-.191.159-.405.354-.405.03 0 .084.021.163.052.223.087.648.253 1.321.253 1.402 0 2.923-.798 2.923-2.867 0-.285-.133-.913-.362-1.215 0 1.708-1.235 2.392-2.313 2.392a1.91 1.91 0 0 1-.741-.133c.227-.19.417-.532.417-.741 0-.133-.113-.209-.284-.209-.059 0-.14.012-.231.024-.114.015-.243.033-.36.033Z"/>
  <path fill="#000" d="M37.005 11.228c.265 0 .832.132.984.38-.225.113-.415.38-.414.588a.3.3 0 0 0 .19.285c.49.228.794.589.946.912.855-.475 1.198-1.786 1.198-2.545 0-.228 0-.551-.209-.551-.072 0-.153.042-.238.087-.094.05-.194.103-.294.103-.047 0-.117-.048-.218-.118-.269-.187-.76-.527-1.64-.527-1.389 0-1.959 1.025-1.959 1.86 0 .228.057.456.133.646.114-.532.684-1.12 1.521-1.12Z"/>
  <path fill="#000" fill-rule="evenodd" d="M46.886 4.254c.955.29 2.439.742 2.439 1.657 0 .873-.704.968-.986.968-.698 0-1.184-.477-1.516-.804-.172-.169-.303-.297-.4-.297a.15.15 0 0 0-.152.153c0 .063.021.167.048.297.045.217.104.506.104.804 0 .836-.64 1.16-1.04 1.36-.18.092-.31.157-.31.234 0 .095.039.133.19.152.989.151 1.997.227 2.942.227 3.438 0 6.248-1.063 6.248-4.062 0-.961-.178-1.547-.325-2.03-.102-.337-.19-.623-.19-.952 0-.265.19-.816.704-1.12-.52 0-.802-.086-1.056-.163a2.15 2.15 0 0 0-.692-.121c-.78 0-1.327.53-1.327 1.328 0 .11.016.244.035.403.027.229.06.507.06.831 0 .666-.132 1.292-.722 1.292-.552 0-.76-.36-.76-.779 0-.42.122-.764.231-1.072.088-.248.168-.473.168-.694 0-.892-1.102-1.158-2.279-1.158-1.403 0-2.923.38-2.923.57 0 .103.207.154.534.234.7.173 1.95.48 2.92 1.721-.93.02-2.732.438-2.732.684 0 .098.334.2.787.337Zm2.191 3.08c2.224-.36 3.455-1.651 3.455-3.34.495.152.8.645.8 1.196 0 .987-.952 2.163-3.551 2.163-.228 0-.456 0-.704-.018Zm3.817-5.145a.47.47 0 0 1-.475-.474.47.47 0 0 1 .475-.475c.266 0 .475.21.475.475a.47.47 0 0 1-.475.474ZM51.225 28.468c.305-.948.685-1.614 1.307-2.64l-.225-.112c-.724-.356-2.051-1.01-2.051-2.014 0-1.31 1.633-2.335 1.972-2.335.152 0 .19.133.19.38 0 .354-.087.82-.17 1.27-.078.417-.153.82-.153 1.103 0 .531.342 1.045.646 1.045.323 0 1.216-1.14 1.216-2.26 0-2.013-1.767-2.62-2.314-2.62-.168 0-.38.089-.665.209-.59.247-1.493.626-2.964.626-4.082 0-5.013-4.044-5.013-5.81 0-.076.018-.095.037-.095.02 0 .055.022.109.058.198.13.662.436 1.678.436.301 0 .59-.035.907-.073.383-.047.805-.098 1.336-.098 2.185 0 3.201 1.456 4.526 3.355l.163.233c.098.061.211.127.336.199h.002c.956.551 2.546 1.467 2.546 3.599 0 1.147-.657 2.017-1.349 2.933-.591.783-1.207 1.6-1.46 2.65.422-.046.76-.435 1.097-.824.36-.415.72-.829 1.18-.829.456 0 .665.361.665.932 0 .834-.476 2.088-1.388 2.866.019-.076.019-.171.019-.285 0-.53-.208-1.29-.818-1.29-.746 0-1.092.638-1.466 1.326-.1.184-.203.372-.315.553-.551-1.936-1.292-3.684-2.621-4.747-.508-.409-1.155-.58-1.764-.74-1.002-.264-1.9-.5-1.9-1.729 0-.257.08-.567.163-.888.088-.342.18-.697.18-1.01 0-.21-.039-.4-.153-.551 1.097.411 1.3 1.014 1.533 1.703.154.456.32.949.767 1.449.17.194.413.385.7.611.892.705 2.209 1.744 3.057 4.23.019-.094.038-.34.038-.511 0-1.844-1.601-3.664-2.794-5.019-.625-.71-1.138-1.293-1.249-1.685 2.161.247 2.54.78 3.567 3.627.05.14.127.33.215.548.283.696.68 1.675.68 2.224Zm-.494-9.21c0-.15-.145-.25-.331-.377-.303-.206-.712-.485-.77-1.179-.02-.17-.077-.474-.287-.474-.166 0-.188.248-.211.502-.025.268-.05.543-.244.543-.544 0-.859-.661-1.097-1.161-.146-.304-.262-.549-.384-.549-.077 0-.167.057-.167.285 0 .1.008.183.018.27.01.093.02.19.02.318 0 .248-.058.419-.285.419-.267 0-.519-.324-.76-.635-.223-.286-.437-.562-.647-.562-.095 0-.19.057-.19.152 0 .117.1.282.196.445.093.155.184.307.184.41 0 .238-.338.284-.66.328-.294.04-.575.079-.575.26 0 .172.17.228.399.228.21 0 .483-.047.742-.092.233-.04.454-.078.607-.078.19 0 .475.038.475.284 0 .135-.177.29-.352.442-.167.147-.332.29-.332.412 0 .114.114.17.209.17.242 0 .571-.197.92-.407.39-.235.805-.484 1.147-.484.113 0 .398.057.398.228 0 .111-.132.261-.276.426-.176.2-.37.42-.37.617 0 .096.059.21.172.21.143 0 .307-.158.496-.341.261-.252.572-.552.947-.552.132 0 .295.027.449.053.134.022.26.042.35.042.153 0 .21-.095.21-.152Z" clip-rule="evenodd"/>
  <path fill="#000" d="M27.985 41.229a.87.87 0 0 1-.21.55c-.207-.38-.797-.57-1.063-.569-.962 0-1.271.684-1.586 1.38-.326.719-.656 1.45-1.718 1.45-.543 0-.778-.045-.955-.078a1.552 1.552 0 0 0-.316-.037c-.134 0-.21.058-.21.171 0 .495.703 1.71 2.659 1.71s3.836-1.197 3.836-2.68c0-.246-.057-.51-.171-.776.076-.114.267-.19.437-.19.154 0 .274.088.392.176.114.084.227.167.367.167a.52.52 0 0 0 .532-.532c0-.248-.132-.418-.36-.534a.653.653 0 0 0 .266-.512c0-.324-.229-.626-.609-.626-.171 0-.284.058-.417.188-.037-.34-.228-.663-.589-.663-.285 0-.494.208-.494.532 0 .149.05.284.102.422.053.142.107.287.107.45Z"/>
  <path fill="#000" fill-rule="evenodd" d="M20.009 39.861c-.151-.968-.911-1.785-2.43-2.163-1.215-.305-1.386-.532-1.386-.857 0-.532.741-.892 1.405-.892.93 0 1.614.266 2.24 1.216.312.468.482 1.108.622 1.634.115.434.21.79.346.91.151.134.398.172.57.172.103 0 .201-.006.29-.012a3.52 3.52 0 0 1 .204-.008c1.367 0 2.297 1.538 2.297 2.222 0 .627-.55.853-1.233.853-.817 0-1.748-.472-2.223-1.005-.36-.379-.55-1.14-.702-2.07ZM21.452 41c0 .342.854.95 1.425.95.283 0 .378-.171.378-.304 0-.493-.854-1.084-1.33-1.084-.207 0-.473.152-.473.438Z" clip-rule="evenodd"/>
  <path fill="#000" d="M21.13 27.158c0-.575.648-1.023 1.33-1.494.758-.524 1.557-1.077 1.557-1.867 0-.247-.095-.683-.266-1.006 1.006.55 1.747 1.482 1.747 2.24 0 .733-.427 1.246-.804 1.698-.297.358-.563.677-.563 1.038 0 .449.327.72.672 1.005.384.317.79.653.79 1.273 0 .452-.303.939-.626 1.456-.368.589-.76 1.218-.76 1.885 0 .969.684 1.765 1.727 1.899-.342.076-.645.132-.968.132-1.919 0-3.893-1.575-3.893-3.455 0-.93.399-1.746 1.005-2.335.533.456 1.064.76 1.407.76.303 0 .437-.152.437-.38 0-.286-.461-.562-1.009-.89-.799-.479-1.782-1.068-1.782-1.959Z"/>
  <path fill="#000" fill-rule="evenodd" d="M27.112 35.38c0-.383-.355-.598-.747-.836-.482-.291-1.02-.617-1.02-1.329 0-.323.209-.873.628-1.463.171.988.568 1.5 1.424 1.825 1.69.625 1.918 1.574 1.918 2.582 0 1.71-1.197 3.836-4.273 3.836-2.468 0-4.235-2.204-4.235-4.064 0-.514.133-1.082.456-1.082.212 0 .319.125.453.282.046.055.096.114.155.172.855.856 1.785 1.083 3.133 1.083 1.216 0 2.108-.493 2.108-1.006Zm.076 1.367c-.123.057-.233.1-.329.14-.411.165-.582.233-.582.773 0 .134-.017.29-.033.433-.012.119-.024.228-.024.306 0 .228.037.361.303.361.684 0 1.767-1.158 1.767-2.146 0-.267-.153-.378-.324-.378-.07 0-.143.063-.245.152a2.144 2.144 0 0 1-.533.36ZM11.483 37.602a1.24 1.24 0 0 1-1.367-1.064c-.09-.738.511-1.295 1.065-1.378l.19-.027a1.25 1.25 0 0 1-.096-.38c-.066-.71.37-1.27 1.031-1.38.73-.12 1.266.374 1.438.943.152-.133.38-.227.628-.257.638-.08 1.252.428 1.327 1.112.058.664-.405 1.215-1.09 1.344-.07.013-.162.023-.162.023.056.133.094.248.114.437.075.703-.4 1.254-1.1 1.345-.689.09-1.198-.3-1.35-.908-.153.095-.381.163-.628.19Zm1.548-1.01a.722.722 0 1 0-.168-1.438.722.722 0 0 0 .168 1.438Z" clip-rule="evenodd"/>
</svg>